{
.appVersion = "939";
copyright = "Copyright 2011 Google Inc. All Rights Reserved.";
customParameters = (
{
name = license;
value = "Licensed under the Apache License, Version 2.0";
},
{
name = licenseURL;
value = "http://www.apache.org/licenses/LICENSE-2.0";
},
{
name = vendorID;
value = GOOG;
},
{
name = panose;
value = (
2,
0,
0,
0,
0,
0,
0,
0,
0,
0
);
},
{
name = unicodeRanges;
value = (
0,
1,
2,
3,
4,
5,
6,
7,
9,
29,
30,
31,
32,
33,
34,
35,
36,
37,
38,
40,
45,
60,
62,
64,
69
);
},
{
name = codePageRanges;
value = (
1252,
1250,
1251,
1253,
1254,
1257,
1258
);
},
{
name = glyphOrder;
value = (
.notdef,
uni0000,
uni0002,
uni0009,
uni000D,
space,
exclam,
quotedbl,
numbersign,
dollar,
percent,
ampersand,
quotesingle,
parenleft,
parenright,
asterisk,
plus,
comma,
hyphen,
period,
slash,
zero,
one,
two,
three,
four,
five,
six,
seven,
eight,
nine,
colon,
semicolon,
less,
equal,
greater,
question,
at,
A,
B,
C,
D,
E,
F,
G,
H,
I,
J,
K,
L,
M,
N,
O,
P,
Q,
R,
S,
T,
U,
V,
W,
X,
Y,
Z,
bracketleft,
backslash,
bracketright,
asciicircum,
underscore,
grave,
a,
b,
c,
d,
e,
f,
g,
h,
i,
j,
k,
l,
m,
n,
o,
p,
q,
r,
s,
t,
u,
v,
w,
x,
y,
z,
braceleft,
bar,
braceright,
asciitilde,
exclamdown,
cent,
sterling,
currency,
yen,
brokenbar,
section,
dieresis,
copyright,
ordfeminine,
guillemotleft,
logicalnot,
registered,
macron,
degree,
plusminus,
twosuperior,
threesuperior,
acute,
mu,
paragraph,
periodcentered,
cedilla,
onesuperior,
ordmasculine,
guillemotright,
onequarter,
onehalf,
threequarters,
questiondown,
AE,
multiply,
Oslash,
Thorn,
germandbls,
ae,
eth,
divide,
oslash,
thorn,
dcroat,
Hbar,
dotlessi,
kgreenlandic,
Lslash,
lslash,
Eng,
eng,
OE,
oe,
longs,
uni0180,
uni0181,
uni0182,
uni0183,
uni0184,
uni0185,
uni0186,
uni0187,
uni0188,
uni0189,
uni018A,
uni018B,
uni018C,
uni018D,
uni018E,
uni018F,
uni0190,
uni0191,
florin,
uni0193,
uni0194,
uni0195,
uni0197,
uni0198,
uni0199,
uni019A,
uni019B,
uni019C,
uni019D,
Ohorn,
ohorn,
uni01A2,
uni01A3,
uni01A4,
uni01A5,
uni01A6,
uni01A7,
uni01A8,

glyphs = (
{
glyphname = .notdef;
lastChange = "2017-04-17 15:00:40 +0000";
layers = (
{
layerId = "EFC0C7B3-D173-4BF6-BF18-C95D96D5B447";
paths = (
{
closed = 1;
nodes = (
"808 1456 LINE",
"100 1456 LINE",
"100 0 LINE",
"808 0 LINE"
);
},
{
closed = 1;
nodes = (
"452 796 LINE",
"194 1402 LINE",
"709 1402 LINE"
);
},
{
closed = 1;
nodes = (
"754 84 LINE",
"480 728 LINE",
"754 1372 LINE"
);
},
{
closed = 1;
nodes = (
"154 96 LINE",
"154 1360 LINE",
"422 728 LINE"
);
},
{
closed = 1;
nodes = (
"709 54 LINE",
"194 54 LINE",
"452 660 LINE"
);
}
);
width = 908;
}
);
note = .notdef;
},
{
glyphname = exclam;
lastChange = "2017-04-17 15:00:40 +0000";
layers = (
{
layerId = "EFC0C7B3-D173-4BF6-BF18-C95D96D5B447";
paths = (
{
closed = 1;
nodes = (
"181 411 LINE",
"348 411 LINE",
"361 1456 LINE",
"167 1456 LINE"
);
},
{
closed = 1;
nodes = (
"161 36 OFFCURVE",
"198 -12 OFFCURVE",
"270 -12 CURVE SMOOTH",
"341 -12 OFFCURVE",
"380 36 OFFCURVE",
"380 93 CURVE SMOOTH",
"380 153 OFFCURVE",
"341 200 OFFCURVE",
"270 200 CURVE SMOOTH",
"198 200 OFFCURVE",
"161 153 OFFCURVE",
"161 93 CURVE SMOOTH"
);
}
);
width = 528;
}
);
note = exclam;
unicode = 0021;
},
{
glyphname = quotedbl;
lastChange = "2017-04-17 15:00:40 +0000";
layers = (
{
layerId = "EFC0C7B3-D173-4BF6-BF18-C95D96D5B447";
paths = (
{
closed = 1;
nodes = (
"137 1536 LINE",
"137 1043 LINE",
"248 1043 LINE",
"278 1400 LINE",
"278 1536 LINE"
);
},
{
closed = 1;
nodes = (
"407 1536 LINE",
"407 1043 LINE",
"518 1043 LINE",
"548 1400 LINE",
"548 1536 LINE"
);
}
);
width = 656;
}
);
leftKerningGroup = quotedbl;
note = quotedbl;
rightKerningGroup = quotedbl;
unicode = 0022;
},
{
glyphname = numbersign;
lastChange = "2017-04-17 15:00:40 +0000";
layers = (
{
layerId = "EFC0C7B3-D173-4BF6-BF18-C95D96D5B447";
paths = (
{
closed = 1;
nodes = (
"909 410 LINE",
"1160 410 LINE",
"1160 548 LINE",
"936 548 LINE",
"1005 901 LINE",
"1235 901 LINE",
"1235 1040 LINE",
"1032 1040 LINE",
"1113 1456 LINE",
"970 1456 LINE",
"889 1040 LINE",
"625 1040 LINE",
"706 1456 LINE",
"562 1456 LINE",
"481 1040 LINE",
"195 1040 LINE",
"195 901 LINE",
"454 901 LINE",
"386 548 LINE",
"119 548 LINE",
"119 410 LINE",
"359 410 LINE",
"279 0 LINE",
"422 0 LINE",
"502 410 LINE",
"766 410 LINE",
"686 0 LINE",
"829 0 LINE"
);
},
{
closed = 1;
nodes = (
"862 901 LINE",
"793 548 LINE",
"529 548 LINE",
"598 901 LINE"
);
}
);
width = 1261;
}
);
note = numbersign;
unicode = 0023;
},
{
glyphname = dollar;
lastChange = "2017-04-17 15:00:40 +0000";
layers = (
{
layerId = "EFC0C7B3-D173-4BF6-BF18-C95D96D5B447";
paths = (
{
closed = 1;
nodes = (
"1042 604 OFFCURVE",
"912 717 OFFCURVE",
"660 802 CURVE SMOOTH",
"407 887 OFFCURVE",
"352 956 OFFCURVE",
"352 1083 CURVE SMOOTH",
"352 1220 OFFCURVE",
"429 1315 OFFCURVE",
"597 1315 CURVE SMOOTH",
"757 1315 OFFCURVE",
"845 1187 OFFCURVE",
"845 1008 CURVE",
"1029 1008 LINE",
"1029 1281 OFFCURVE",
"898 1443 OFFCURVE",
"674 1472 CURVE",
"674 1692 LINE",
"524 1692 LINE",
"524 1473 LINE",
"304 1446 OFFCURVE",
"166 1301 OFFCURVE",
"166 1080 CURVE SMOOTH",
"166 848 OFFCURVE",
"313 728 OFFCURVE",
"565 648 CURVE SMOOTH",
"778 580 OFFCURVE",
"856 496 OFFCURVE",
"856 375 CURVE SMOOTH",
"856 232 OFFCURVE",
"754 141 OFFCURVE",
"575 141 CURVE SMOOTH",
"444 141 OFFCURVE",
"296 204 OFFCURVE",
"296 429 CURVE",
"110 429 LINE",
"110 125 OFFCURVE",
"302 3 OFFCURVE",
"507 -18 CURVE",
"507 -208 LINE",
"656 -208 LINE",
"656 -17 LINE",
"892 8 OFFCURVE",
"1042 145 OFFCURVE",
"1042 377 CURVE SMOOTH"
);
}
);
width = 1151;
}
);
note = dollar;
unicode = 0024;
},
{
glyphname = percent;
lastChange = "2017-04-17 15:00:40 +0000";
layers = (
{
layerId = "EFC0C7B3-D173-4BF6-BF18-C95D96D5B447";
paths = (
{
closed = 1;
nodes = (
"105 936 OFFCURVE",
"220 800 OFFCURVE",
"405 800 CURVE SMOOTH",
"590 800 OFFCURVE",
"702 936 OFFCURVE",
"702 1099 CURVE SMOOTH",
"702 1176 LINE SMOOTH",
"702 1341 OFFCURVE",
"590 1477 OFFCURVE",
"403 1477 CURVE SMOOTH",
"219 1477 OFFCURVE",
"105 1341 OFFCURVE",
"105 1176 CURVE SMOOTH",
"105 1099 LINE SMOOTH"
);
},
{
closed = 1;
nodes = (
"244 1269 OFFCURVE",
"296 1357 OFFCURVE",
"403 1357 CURVE SMOOTH",
"511 1357 OFFCURVE",
"563 1269 OFFCURVE",
"563 1176 CURVE SMOOTH",
"563 1099 LINE SMOOTH",
"563 1006 OFFCURVE",
"512 920 OFFCURVE",
"405 920 CURVE SMOOTH",
"296 920 OFFCURVE",
"244 1007 OFFCURVE",
"244 1099 CURVE SMOOTH",
"244 1176 LINE SMOOTH"
);
},
{
closed = 1;
nodes = (
"343 177 LINE",
"447 111 LINE",
"1158 1249 LINE",
"1054 1315 LINE"
);
},
{
closed = 1;
nodes = (
"814 115 OFFCURVE",
"927 -21 OFFCURVE",
"1114 -21 CURVE SMOOTH",
"1299 -21 OFFCURVE",
"1411 115 OFFCURVE",
"1411 279 CURVE SMOOTH",
"1411 357 LINE SMOOTH",
"1411 521 OFFCURVE",
"1299 657 OFFCURVE",
"1112 657 CURVE SMOOTH",
"928 657 OFFCURVE",
"814 521 OFFCURVE",
"814 357 CURVE SMOOTH",
"814 279 LINE SMOOTH"
);
},
{
closed = 1;
nodes = (
"953 452 OFFCURVE",
"1005 537 OFFCURVE",
"1112 537 CURVE SMOOTH",
"1221 537 OFFCURVE",
"1273 452 OFFCURVE",
"1273 357 CURVE SMOOTH",
"1273 279 LINE SMOOTH",
"1273 184 OFFCURVE",
"1222 99 OFFCURVE",
"1114 99 CURVE SMOOTH",
"1005 99 OFFCURVE",
"953 186 OFFCURVE",
"953 279 CURVE SMOOTH",
"953 357 LINE SMOOTH"
);
}
);
width = 1500;
}
);
note = percent;
unicode = 0025;
},
{
glyphname = ampersand;
lastChange = "2017-04-17 15:00:40 +0000";
layers = (
{
layerId = "EFC0C7B3-D173-4BF6-BF18-C95D96D5B447";
paths = (
{
closed = 1;
nodes = (
"1058 249 LINE",
"1140 361 OFFCURVE",
"1181 502 OFFCURVE",
"1181 672 CURVE",
"1015 672 LINE",
"1015 566 OFFCURVE",
"992 470 OFFCURVE",
"947 383 CURVE",
"623 771 LINE",
"732 852 LINE SMOOTH",
"852 941 OFFCURVE",
"930 1029 OFFCURVE",
"930 1169 CURVE SMOOTH",
"930 1334 OFFCURVE",
"799 1476 OFFCURVE",
"584 1476 CURVE SMOOTH",
"364 1476 OFFCURVE",
"219 1350 OFFCURVE",
"219 1123 CURVE SMOOTH",
"219 1008 OFFCURVE",
"283 909 OFFCURVE",
"383 789 CURVE",
"216 672 OFFCURVE",
"101 565 OFFCURVE",
"101 392 CURVE SMOOTH",
"101 152 OFFCURVE",
"280 -20 OFFCURVE",
"571 -20 CURVE SMOOTH",
"704 -20 OFFCURVE",
"848 26 OFFCURVE",
"948 115 CURVE",
"1044 0 LINE",
"1266 0 LINE"
);
},
{
closed = 1;
nodes = (
"405 1234 OFFCURVE",
"466 1325 OFFCURVE",
"583 1325 CURVE SMOOTH",
"695 1325 OFFCURVE",
"759 1248 OFFCURVE",
"759 1169 CURVE SMOOTH",
"759 1072 OFFCURVE",
"718 1026 OFFCURVE",
"630 965 CURVE SMOOTH",
"523 889 LINE",
"444 987 OFFCURVE",
"405 1067 OFFCURVE",
"405 1129 CURVE SMOOTH"
);
},
{
closed = 1;
nodes = (
"286 413 OFFCURVE",
"294 446 OFFCURVE",
"311 491 CURVE SMOOTH",
"327 536 OFFCURVE",
"371 584 OFFCURVE",
"443 637 CURVE SMOOTH",
"485 668 LINE",
"840 243 LINE",
"759 169 OFFCURVE",
"670 132 OFFCURVE",
"571 132 CURVE SMOOTH",
"378 132 OFFCURVE",
"286 251 OFFCURVE",
"286 392 CURVE SMOOTH"
);
}
);
width = 1274;
}
);
note = ampersand;
unicode = 0026;
},
{
glyphname = quotesingle;
lastChange = "2017-04-17 15:00:40 +0000";
layers = (
{
layerId = "EFC0C7B3-D173-4BF6-BF18-C95D96D5B447";
paths = (
{
closed = 1;
nodes = (
"104 1058 LINE",
"233 1058 LINE",
"254 1426 LINE",
"254 1536 LINE",
"105 1536 LINE"
);
}
);
width = 358;
}
);
leftKerningGroup = quotedbl;
note = quotesingle;
rightKerningGroup = quotedbl;
unicode = 0027;
},
{
glyphname = parenleft;
lastChange = "2017-04-17 15:00:40 +0000";
layers = (
{
layerId = "EFC0C7B3-D173-4BF6-BF18-C95D96D5B447";
paths = (
{
closed = 1;
nodes = (
"134 390 OFFCURVE",
"162 217 OFFCURVE",
"217 73 CURVE SMOOTH",
"328 -216 OFFCURVE",
"496 -401 OFFCURVE",
"623 -470 CURVE",
"662 -358 LINE",
"505 -230 OFFCURVE",
"319 73 OFFCURVE",
"319 580 CURVE SMOOTH",
"319 1107 OFFCURVE",
"505 1402 OFFCURVE",
"662 1521 CURVE",
"623 1643 LINE",
"560 1608 OFFCURVE",
"490 1544 OFFCURVE",
"414 1453 CURVE SMOOTH",
"262 1270 OFFCURVE",
"134 979 OFFCURVE",
"134 592 CURVE SMOOTH"
);
}
);
width = 701;
}
);
note = parenleft;
unicode = 0028;
},
{
glyphname = parenright;
lastChange = "2017-04-17 15:00:40 +0000";
layers = (
{
layerId = "EFC0C7B3-D173-4BF6-BF18-C95D96D5B447";
paths = (
{
closed = 1;
nodes = (
"567 783 OFFCURVE",
"539 955 OFFCURVE",
"484 1100 CURVE SMOOTH",
"373 1388 OFFCURVE",
"203 1572 OFFCURVE",
"78 1643 CURVE",
"39 1530 LINE",
"86 1491 OFFCURVE",
"137 1431 OFFCURVE",
"190 1348 CURVE SMOOTH",
"297 1183 OFFCURVE",
"382 931 OFFCURVE",
"382 594 CURVE SMOOTH",
"382 67 OFFCURVE",
"195 -239 OFFCURVE",
"39 -358 CURVE",
"78 -470 LINE",
"141 -435 OFFCURVE",
"210 -372 OFFCURVE",
"287 -281 CURVE SMOOTH",
"439 -98 OFFCURVE",
"567 193 OFFCURVE",
"567 582 CURVE SMOOTH"
);
}
);
width = 713;
}
);
note = parenright;
unicode = 0029;
},
{
glyphname = asterisk;
lastChange = "2017-04-17 15:00:40 +0000";
layers = (
{
layerId = "EFC0C7B3-D173-4BF6-BF18-C95D96D5B447";
paths = (
{
closed = 1;
nodes = (
"435 898 LINE",
"620 610 LINE",
"744 703 LINE",
"547 974 LINE",
"854 1065 LINE",
"808 1218 LINE",
"510 1107 LINE",
"520 1457 LINE",
"368 1457 LINE",
"377 1113 LINE",
"75 1224 LINE",
"28 1074 LINE",
"330 984 LINE",
"129 708 LINE",
"254 617 LINE"
);
}
);
width = 882;
}
);
note = asterisk;
unicode = 002A;
},
{
glyphname = plus;
lastChange = "2017-04-17 15:00:40 +0000";
layers = (
{
layerId = "EFC0C7B3-D173-4BF6-BF18-C95D96D5B447";
paths = (
{
closed = 1;
nodes = (
"670 781 LINE",
"670 1206 LINE",
"485 1206 LINE",
"485 781 LINE",
"78 781 LINE",
"78 607 LINE",
"485 607 LINE",
"485 146 LINE",
"670 146 LINE",
"670 607 LINE",
"1076 607 LINE",
"1076 781 LINE"
);
}
);
width = 1162;
}
);
note = plus;
unicode = 002B;
},
{
glyphname = comma;
lastChange = "2017-04-17 15:00:40 +0000";
layers = (
{
layerId = "EFC0C7B3-D173-4BF6-BF18-C95D96D5B447";
paths = (
{
closed = 1;
nodes = (
"128 56 LINE SMOOTH",
"126 -37 OFFCURVE",
"93 -129 OFFCURVE",
"29 -218 CURVE",
"134 -291 LINE",
"245 -200 OFFCURVE",
"309 -50 OFFCURVE",
"309 71 CURVE SMOOTH",
"309 220 LINE",
"128 220 LINE"
);
}
);
width = 403;
}
);
leftKerningGroup = comma;
note = comma;
rightKerningGroup = comma;
unicode = 002C;
},
{
glyphname = hyphen;
lastChange = "2017-04-17 15:00:40 +0000";
layers = (
{
layerId = "EFC0C7B3-D173-4BF6-BF18-C95D96D5B447";
paths = (
{
closed = 1;
nodes = (
"38 543 LINE",
"526 543 LINE",
"526 695 LINE",
"38 695 LINE"
);
}
);
width = 566;
}
);
leftKerningGroup = hyphen;
note = hyphen;
unicode = 002D;
},
{
glyphname = period;
lastChange = "2017-04-17 15:00:40 +0000";
layers = (
{
layerId = "EFC0C7B3-D173-4BF6-BF18-C95D96D5B447";
paths = (
{
closed = 1;
nodes = (
"144 37 OFFCURVE",
"184 -12 OFFCURVE",
"259 -12 CURVE SMOOTH",
"334 -12 OFFCURVE",
"374 37 OFFCURVE",
"374 98 CURVE SMOOTH",
"374 161 OFFCURVE",
"334 210 OFFCURVE",
"259 210 CURVE SMOOTH",
"184 210 OFFCURVE",
"144 161 OFFCURVE",
"144 98 CURVE SMOOTH"
);
}
);
width = 540;
}
);
leftKerningGroup = comma;
note = period;
rightKerningGroup = comma;
unicode = 002E;
},
{
glyphname = slash;
lastChange = "2017-04-17 15:00:40 +0000";
layers = (
{
layerId = "EFC0C7B3-D173-4BF6-BF18-C95D96D5B447";
paths = (
{
closed = 1;
nodes = (
"19 -125 LINE",
"178 -125 LINE",
"785 1456 LINE",
"627 1456 LINE"
);
}
);
width = 845;
}
);
note = slash;
unicode = 002F;
},
{
glyphname = zero;
lastChange = "2017-04-17 15:00:40 +0000";
layers = (
{
layerId = "EFC0C7B3-D173-4BF6-BF18-C95D96D5B447";
paths = (
{
closed = 1;
nodes = (
"1030 1323 OFFCURVE",
"853 1476 OFFCURVE",
"574 1476 CURVE SMOOTH",
"295 1476 OFFCURVE",
"115 1320 OFFCURVE",
"115 844 CURVE SMOOTH",
"115 599 LINE SMOOTH",
"120 142 OFFCURVE",
"301 -20 OFFCURVE",
"576 -20 CURVE SMOOTH",
"859 -20 OFFCURVE",
"1035 145 OFFCURVE",
"1035 622 CURVE SMOOTH",
"1035 867 LINE"
);
},
{
closed = 1;
nodes = (
"848 265 OFFCURVE",
"756 132 OFFCURVE",
"576 132 CURVE SMOOTH",
"400 132 OFFCURVE",
"301 267 OFFCURVE",
"301 592 CURVE SMOOTH",
"301 889 LINE SMOOTH",
"304 1206 OFFCURVE",
"401 1325 OFFCURVE",
"574 1325 CURVE SMOOTH",
"754 1325 OFFCURVE",
"849 1203 OFFCURVE",
"849 875 CURVE SMOOTH",
"849 584 LINE SMOOTH"
);
}
);
width = 1151;
}
);
note = zero;
unicode = 0030;
},
{
glyphname = one;
lastChange = "2017-04-17 15:00:40 +0000";
layers = (
{
layerId = "EFC0C7B3-D173-4BF6-BF18-C95D96D5B447";
paths = (
{
closed = 1;
nodes = (
"171 1264 LINE",
"171 1097 LINE",
"544 1233 LINE",
"544 0 LINE",
"729 0 LINE",
"729 1464 LINE",
"700 1464 LINE"
);
}
);
width = 1151;
}
);
note = one;
unicode = 0031;
},
{
glyphname = two;
lastChange = "2017-04-17 15:00:40 +0000";
layers = (
{
layerId = "EFC0C7B3-D173-4BF6-BF18-C95D96D5B447";
paths = (
{
closed = 1;
nodes = (
"735 575 LINE SMOOTH",
"888 742 OFFCURVE",
"1008 916 OFFCURVE",
"1008 1087 CURVE SMOOTH",
"1008 1320 OFFCURVE",
"844 1476 OFFCURVE",
"569 1476 CURVE SMOOTH",
"258 1476 OFFCURVE",
"94 1273 OFFCURVE",
"94 1028 CURVE",
"279 1028 LINE",
"279 1201 OFFCURVE",
"374 1324 OFFCURVE",
"569 1324 CURVE SMOOTH",
"730 1324 OFFCURVE",
"823 1208 OFFCURVE",
"823 1065 CURVE SMOOTH",
"823 956 OFFCURVE",
"779 867 OFFCURVE",
"616 683 CURVE SMOOTH",
"122 133 LINE",
"122 0 LINE",
"1075 0 LINE",
"1075 152 LINE",
"345 152 LINE"
);
}
);
width = 1151;
}
);
note = two;
unicode = 0032;
},
{
glyphname = three;
lastChange = "2017-04-17 15:00:40 +0000";
layers = (
{
layerId = "EFC0C7B3-D173-4BF6-BF18-C95D96D5B447";
paths = (
{
closed = 1;
nodes = (
"711 667 OFFCURVE",
"832 583 OFFCURVE",
"832 402 CURVE SMOOTH",
"832 221 OFFCURVE",
"726 132 OFFCURVE",
"557 132 CURVE SMOOTH",
"386 132 OFFCURVE",
"280 232 OFFCURVE",
"280 385 CURVE",
"95 385 LINE",
"95 126 OFFCURVE",
"304 -20 OFFCURVE",
"557 -20 CURVE SMOOTH",
"820 -20 OFFCURVE",
"1018 134 OFFCURVE",
"1018 406 CURVE SMOOTH",
"1018 538 OFFCURVE",
"960 685 OFFCURVE",
"767 748 CURVE",
"927 816 OFFCURVE",
"996 956 OFFCURVE",
"996 1064 CURVE SMOOTH",
"996 1335 OFFCURVE",
"819 1476 OFFCURVE",
"556 1476 CURVE SMOOTH",
"287 1476 OFFCURVE",
"107 1298 OFFCURVE",
"107 1075 CURVE",
"292 1075 LINE",
"292 1227 OFFCURVE",
"399 1324 OFFCURVE",
"556 1324 CURVE SMOOTH",
"725 1324 OFFCURVE",
"810 1239 OFFCURVE",
"810 1068 CURVE SMOOTH",
"810 927 OFFCURVE",
"718 820 OFFCURVE",
"527 819 CURVE SMOOTH",
"391 819 LINE",
"391 667 LINE",
"523 667 LINE SMOOTH"
);
}
);
width = 1151;
}
);
note = three;
unicode = 0033;
},
{
glyphname = four;
lastChange = "2017-04-17 15:00:40 +0000";
layers = (
{
layerId = "EFC0C7B3-D173-4BF6-BF18-C95D96D5B447";
paths = (
{
closed = 1;
nodes = (
"717 338 LINE",
"717 0 LINE",
"902 0 LINE",
"902 338 LINE",
"1105 338 LINE",
"1105 490 LINE",
"902 490 LINE",
"902 1456 LINE",
"705 1456 LINE",
"53 447 LINE",
"53 338 LINE"
);
},
{
closed = 1;
nodes = (
"717 1205 LINE",
"717 490 LINE",
"263 490 LINE",
"694 1164 LINE"
);
}
);
width = 1151;
}
);
note = four;
unicode = 0034;
},
{
glyphname = five;
lastChange = "2017-04-17 15:00:40 +0000";
layers = (
{
layerId = "EFC0C7B3-D173-4BF6-BF18-C95D96D5B447";
paths = (
{
closed = 1;
nodes = (
"420 750 OFFCURVE",
"469 786 OFFCURVE",
"593 786 CURVE SMOOTH",
"780 786 OFFCURVE",
"884 645 OFFCURVE",
"884 462 CURVE SMOOTH",
"884 259 OFFCURVE",
"784 132 OFFCURVE",
"609 132 CURVE SMOOTH",
"446 132 OFFCURVE",
"353 216 OFFCURVE",
"330 383 CURVE",
"154 383 LINE",
"181 111 OFFCURVE",
"373 -20 OFFCURVE",
"609 -20 CURVE SMOOTH",
"920 -20 OFFCURVE",
"1070 185 OFFCURVE",
"1070 464 CURVE SMOOTH",
"1070 761 OFFCURVE",
"904 952 OFFCURVE",
"636 952 CURVE SMOOTH",
"547 952 OFFCURVE",
"466 931 OFFCURVE",
"393 889 CURVE",
"437 1285 LINE",
"1027 1285 LINE",
"1027 1456 LINE",
"280 1456 LINE",
"207 731 LINE",
"355 693 LINE"
);
}
);
width = 1151;
}
);
note = five;
unicode = 0035;
},
{
glyphname = six;
lastChange = "2017-04-17 15:00:40 +0000";
layers = (
{
layerId = "EFC0C7B3-D173-4BF6-BF18-C95D96D5B447";
paths = (
{
closed = 1;
nodes = (
"1053 554 OFFCURVE",
"1038 631 OFFCURVE",
"1009 705 CURVE SMOOTH",
"950 852 OFFCURVE",
"828 955 OFFCURVE",
"635 955 CURVE SMOOTH",
"504 955 OFFCURVE",
"399 911 OFFCURVE",
"322 824 CURVE",
"329 907 OFFCURVE",
"351 984 OFFCURVE",
"386 1057 CURVE SMOOTH",
"456 1201 OFFCURVE",
"588 1301 OFFCURVE",
"847 1301 CURVE",
"847 1458 LINE",
"831 1458 LINE SMOOTH",
"644 1458 OFFCURVE",
"500 1417 OFFCURVE",
"399 1336 CURVE SMOOTH",
"198 1172 OFFCURVE",
"133 899 OFFCURVE",
"133 626 CURVE SMOOTH",
"133 539 LINE SMOOTH",
"133 449 OFFCURVE",
"150 361 OFFCURVE",
"185 276 CURVE SMOOTH",
"253 104 OFFCURVE",
"392 -20 OFFCURVE",
"601 -20 CURVE SMOOTH",
"896 -20 OFFCURVE",
"1053 199 OFFCURVE",
"1053 475 CURVE SMOOTH"
);
},
{
closed = 1;
nodes = (
"360 714 OFFCURVE",
"476 802 OFFCURVE",
"605 802 CURVE SMOOTH",
"785 802 OFFCURVE",
"870 639 OFFCURVE",
"870 466 CURVE SMOOTH",
"870 271 OFFCURVE",
"772 133 OFFCURVE",
"601 133 CURVE SMOOTH",
"456 133 OFFCURVE",
"319 274 OFFCURVE",
"319 533 CURVE SMOOTH",
"319 603 LINE"
);
}
);
width = 1151;
}
);
note = six;
unicode = 0036;
},
{
glyphname = seven;
lastChange = "2017-04-17 15:00:40 +0000";
layers = (
{
layerId = "EFC0C7B3-D173-4BF6-BF18-C95D96D5B447";
paths = (
{
closed = 1;
nodes = (
"78 1304 LINE",
"866 1304 LINE",
"264 0 LINE",
"459 0 LINE",
"1062 1352 LINE",
"1062 1456 LINE",
"78 1456 LINE"
);
}
);
width = 1151;
}
);
note = seven;
unicode = 0037;
},
{
glyphname = eight;
lastChange = "2017-04-17 15:00:40 +0000";
layers = (
{
layerId = "EFC0C7B3-D173-4BF6-BF18-C95D96D5B447";
paths = (
{
closed = 1;
nodes = (
"1038 555 OFFCURVE",
"942 687 OFFCURVE",
"791 751 CURVE",
"920 814 OFFCURVE",
"1004 933 OFFCURVE",
"1004 1077 CURVE SMOOTH",
"1004 1332 OFFCURVE",
"823 1476 OFFCURVE",
"574 1476 CURVE SMOOTH",
"326 1476 OFFCURVE",
"145 1332 OFFCURVE",
"145 1077 CURVE SMOOTH",
"145 934 OFFCURVE",
"226 814 OFFCURVE",
"355 751 CURVE",
"206 687 OFFCURVE",
"112 557 OFFCURVE",
"112 394 CURVE SMOOTH",
"112 127 OFFCURVE",
"314 -20 OFFCURVE",
"575 -20 CURVE SMOOTH",
"836 -20 OFFCURVE",
"1038 127 OFFCURVE",
"1038 394 CURVE SMOOTH"
);
},
{
closed = 1;
nodes = (
"819 923 OFFCURVE",
"720 825 OFFCURVE",
"575 825 CURVE SMOOTH",
"428 825 OFFCURVE",
"331 923 OFFCURVE",
"331 1074 CURVE SMOOTH",
"331 1227 OFFCURVE",
"429 1324 OFFCURVE",
"574 1324 CURVE SMOOTH",
"719 1324 OFFCURVE",
"819 1219 OFFCURVE",
"819 1074 CURVE SMOOTH"
);
},
{
closed = 1;
nodes = (
"852 230 OFFCURVE",
"747 132 OFFCURVE",
"575 132 CURVE SMOOTH",
"403 132 OFFCURVE",
"297 230 OFFCURVE",
"297 398 CURVE SMOOTH",
"297 561 OFFCURVE",
"404 674 OFFCURVE",
"573 674 CURVE SMOOTH",
"738 674 OFFCURVE",
"852 561 OFFCURVE",
"852 398 CURVE SMOOTH"
);
}
);
width = 1151;
}
);
note = eight;
unicode = 0038;
},
{
glyphname = nine;
lastChange = "2017-04-17 15:00:40 +0000";
layers = (
{
layerId = "EFC0C7B3-D173-4BF6-BF18-C95D96D5B447";
paths = (
{
closed = 1;
nodes = (
"1016 985 OFFCURVE",
"1001 1079 OFFCURVE",
"970 1169 CURVE SMOOTH",
"908 1349 OFFCURVE",
"773 1476 OFFCURVE",
"552 1476 CURVE SMOOTH",
"255 1476 OFFCURVE",
"100 1250 OFFCURVE",
"100 973 CURVE SMOOTH",
"100 894 OFFCURVE",
"115 817 OFFCURVE",
"144 743 CURVE SMOOTH",
"203 594 OFFCURVE",
"324 487 OFFCURVE",
"516 487 CURVE SMOOTH",
"643 487 OFFCURVE",
"754 550 OFFCURVE",
"831 642 CURVE",
"828 558 OFFCURVE",
"812 479 OFFCURVE",
"784 405 CURVE SMOOTH",
"727 256 OFFCURVE",
"600 155 OFFCURVE",
"305 155 CURVE",
"305 -2 LINE",
"633 -2 OFFCURVE",
"803 106 OFFCURVE",
"897 268 CURVE SMOOTH",
"991 430 OFFCURVE",
"1016 631 OFFCURVE",
"1016 820 CURVE SMOOTH",
"1016 887 LINE SMOOTH"
);
},
{
closed = 1;
nodes = (
"282 1176 OFFCURVE",
"380 1323 OFFCURVE",
"552 1323 CURVE SMOOTH",
"700 1323 OFFCURVE",
"832 1177 OFFCURVE",
"832 912 CURVE SMOOTH",
"832 839 LINE",
"784 727 OFFCURVE",
"673 641 OFFCURVE",
"546 641 CURVE SMOOTH",
"367 641 OFFCURVE",
"282 810 OFFCURVE",
"282 983 CURVE SMOOTH"
);
}
);
width = 1151;
}
);
note = nine;
unicode = 0039;
},
{
glyphname = colon;
lastChange = "2017-04-17 15:00:40 +0000";
layers = (
{
layerId = "EFC0C7B3-D173-4BF6-BF18-C95D96D5B447";
paths = (
{
closed = 1;
nodes = (
"133 37 OFFCURVE",
"173 -12 OFFCURVE",
"248 -12 CURVE SMOOTH",
"323 -12 OFFCURVE",
"363 37 OFFCURVE",
"363 98 CURVE SMOOTH",
"363 161 OFFCURVE",
"323 210 OFFCURVE",
"248 210 CURVE SMOOTH",
"173 210 OFFCURVE",
"133 161 OFFCURVE",
"133 98 CURVE SMOOTH"
);
},
{
closed = 1;
nodes = (
"134 920 OFFCURVE",
"174 871 OFFCURVE",
"249 871 CURVE SMOOTH",
"324 871 OFFCURVE",
"364 920 OFFCURVE",
"364 981 CURVE SMOOTH",
"364 1044 OFFCURVE",
"324 1093 OFFCURVE",
"249 1093 CURVE SMOOTH",
"174 1093 OFFCURVE",
"134 1044 OFFCURVE",
"134 981 CURVE SMOOTH"
);
}
);
width = 496;
}
);
note = colon;
unicode = 003A;
},
{
glyphname = semicolon;
lastChange = "2017-04-17 15:00:40 +0000";
layers = (
{
layerId = "EFC0C7B3-D173-4BF6-BF18-C95D96D5B447";
paths = (
{
closed = 1;
nodes = (
"110 920 OFFCURVE",
"150 871 OFFCURVE",
"225 871 CURVE SMOOTH",
"300 871 OFFCURVE",
"340 920 OFFCURVE",
"340 981 CURVE SMOOTH",
"340 1044 OFFCURVE",
"300 1093 OFFCURVE",
"225 1093 CURVE SMOOTH",
"150 1093 OFFCURVE",
"110 1044 OFFCURVE",
"110 981 CURVE SMOOTH"
);
},
{
closed = 1;
nodes = (
"140 56 LINE SMOOTH",
"138 -37 OFFCURVE",
"105 -129 OFFCURVE",
"41 -218 CURVE",
"146 -291 LINE",
"257 -200 OFFCURVE",
"321 -50 OFFCURVE",
"321 71 CURVE SMOOTH",
"321 220 LINE",
"140 220 LINE"
);
}
);
width = 433;
}
);
note = semicolon;
unicode = 003B;
},
{
glyphname = less;
lastChange = "2017-04-17 15:00:40 +0000";
layers = (
{
layerId = "EFC0C7B3-D173-4BF6-BF18-C95D96D5B447";
paths = (
{
closed = 1;
nodes = (
"266 645 LINE",
"890 902 LINE",
"890 1098 LINE",
"72 720 LINE",
"72 575 LINE",
"890 196 LINE",
"890 392 LINE"
);
}
);
width = 1041;
}
);
note = less;
unicode = 003C;
},
{
glyphname = equal;
lastChange = "2017-04-17 15:00:40 +0000";
layers = (
{
layerId = "EFC0C7B3-D173-4BF6-BF18-C95D96D5B447";
paths = (
{
closed = 1;
nodes = (
"152 814 LINE",
"986 814 LINE",
"986 975 LINE",
"152 975 LINE"
);
},
{
closed = 1;
nodes = (
"152 399 LINE",
"986 399 LINE",
"986 560 LINE",
"152 560 LINE"
);
}
);
width = 1124;
}
);
note = equal;
unicode = 003D;
},
{
glyphname = greater;
lastChange = "2017-04-17 15:00:40 +0000";
layers = (
{
layerId = "EFC0C7B3-D173-4BF6-BF18-C95D96D5B447";
paths = (
{
closed = 1;
nodes = (
"797 651 LINE",
"135 388 LINE",
"135 197 LINE",
"989 576 LINE",
"989 722 LINE",
"135 1100 LINE",
"135 909 LINE"
);
}
);
width = 1071;
}
);
note = greater;
unicode = 003E;
},
{
glyphname = question;
lastChange = "2017-04-17 15:00:40 +0000";
layers = (
{
layerId = "EFC0C7B3-D173-4BF6-BF18-C95D96D5B447";
paths = (
{
closed = 1;
nodes = (
"543 521 OFFCURVE",
"574 606 OFFCURVE",
"636 663 CURVE SMOOTH",
"760 778 OFFCURVE",
"887 917 OFFCURVE",
"887 1096 CURVE SMOOTH",
"887 1331 OFFCURVE",
"742 1476 OFFCURVE",
"487 1476 CURVE SMOOTH",
"256 1476 OFFCURVE",
"78 1340 OFFCURVE",
"75 1115 CURVE",
"260 1115 LINE",
"261 1254 OFFCURVE",
"370 1314 OFFCURVE",
"487 1314 CURVE SMOOTH",
"626 1314 OFFCURVE",
"701 1228 OFFCURVE",
"701 1091 CURVE SMOOTH",
"701 955 OFFCURVE",
"619 888 OFFCURVE",
"530 796 CURVE SMOOTH",
"405 667 OFFCURVE",
"358 603 OFFCURVE",
"357 410 CURVE",
"543 410 LINE"
);
},
{
closed = 1;
nodes = (
"349 36 OFFCURVE",
"387 -12 OFFCURVE",
"458 -12 CURVE SMOOTH",
"530 -12 OFFCURVE",
"568 36 OFFCURVE",
"568 93 CURVE SMOOTH",
"568 153 OFFCURVE",
"530 200 OFFCURVE",
"458 200 CURVE SMOOTH",
"387 200 OFFCURVE",
"349 153 OFFCURVE",
"349 93 CURVE SMOOTH"
);
}
);
width = 968;
}
);
note = question;
unicode = 003F;
},
{
glyphname = at;
lastChange = "2017-04-17 15:00:40 +0000";
layers = (
{
layerId = "EFC0C7B3-D173-4BF6-BF18-C95D96D5B447";
paths = (
{
closed = 1;
nodes = (
"1146 -298 OFFCURVE",
"1014 -328 OFFCURVE",
"897 -328 CURVE SMOOTH",
"472 -328 OFFCURVE",
"237 -21 OFFCURVE",
"261 478 CURVE SMOOTH",
"281 966 OFFCURVE",
"545 1300 OFFCURVE",
"965 1300 CURVE SMOOTH",
"1429 1300 OFFCURVE",
"1630 1000 OFFCURVE",
"1607 503 CURVE SMOOTH",
"1598 278 OFFCURVE",
"1509 98 OFFCURVE",
"1348 98 CURVE SMOOTH",
"1315 98 OFFCURVE",
"1284 112 OFFCURVE",
"1253 141 CURVE SMOOTH",
"1222 170 OFFCURVE",
"1211 233 OFFCURVE",
"1220 330 CURVE SMOOTH",
"1271 884 LINE",
"1196 941 OFFCURVE",
"1127 990 OFFCURVE",
"983 990 CURVE SMOOTH",
"776 990 OFFCURVE",
"581 769 OFFCURVE",
"550 418 CURVE SMOOTH",
"526 155 OFFCURVE",
"623 -21 OFFCURVE",
"819 -21 CURVE SMOOTH",
"926 -21 OFFCURVE",
"1015 36 OFFCURVE",
"1087 149 CURVE",
"1122 36 OFFCURVE",
"1202 -21 OFFCURVE",
"1327 -21 CURVE SMOOTH",
"1424 -21 OFFCURVE",
"1501 6 OFFCURVE",
"1560 59 CURVE SMOOTH",
"1677 165 OFFCURVE",
"1729 339 OFFCURVE",
"1736 503 CURVE SMOOTH",
"1759 1071 OFFCURVE",
"1482 1431 OFFCURVE",
"969 1431 CURVE SMOOTH",
"802 1431 OFFCURVE",
"656 1390 OFFCURVE",
"531 1307 CURVE SMOOTH",
"281 1142 OFFCURVE",
"132 843 OFFCURVE",
"116 478 CURVE SMOOTH",
"92 -95 OFFCURVE",
"386 -453 OFFCURVE",
"893 -453 CURVE SMOOTH",
"1017 -453 OFFCURVE",
"1172 -424 OFFCURVE",
"1265 -364 CURVE",
"1227 -250 LINE"
);
},
{
closed = 1;
nodes = (
"736 710 OFFCURVE",
"854 861 OFFCURVE",
"999 861 CURVE SMOOTH",
"1042 861 OFFCURVE",
"1082 851 OFFCURVE",
"1119 832 CURVE",
"1073 330 LINE",
"1072 321 LINE",
"1019 180 OFFCURVE",
"933 123 OFFCURVE",
"865 123 CURVE SMOOTH",
"748 123 OFFCURVE",
"692 230 OFFCURVE",
"709 418 CURVE SMOOTH"
);
}
);
width = 1839;
}
);
note = at;
unicode = 0040;
},
{
glyphname = A;
lastChange = "2017-04-17 15:00:40 +0000";
layers = (
{
layerId = "EFC0C7B3-D173-4BF6-BF18-C95D96D5B447";
paths = (
{
closed = 1;
nodes = (
"364 381 LINE",
"973 381 LINE",
"1112 0 LINE",
"1310 0 LINE",
"753 1456 LINE",
"584 1456 LINE",
"29 0 LINE",
"226 0 LINE"
);
},
{
closed = 1;
nodes = (
"916 539 LINE",
"422 539 LINE",
"669 1218 LINE"
);
}
);
width = 1336;
}
);
leftKerningGroup = A;
note = A;
rightKerningGroup = A;
unicode = 0041;
},
{
glyphname = B;
lastChange = "2017-04-17 15:00:40 +0000";
layers = (
{
layerId = "EFC0C7B3-D173-4BF6-BF18-C95D96D5B447";
paths = (
{
closed = 1;
nodes = (
"1160 584 OFFCURVE",
"1070 722 OFFCURVE",
"906 767 CURVE",
"1039 824 OFFCURVE",
"1121 933 OFFCURVE",
"1121 1068 CURVE SMOOTH",
"1121 1339 OFFCURVE",
"945 1456 OFFCURVE",
"646 1456 CURVE SMOOTH",
"169 1456 LINE",
"169 0 LINE",
"679 0 LINE SMOOTH",
"970 0 OFFCURVE",
"1160 148 OFFCURVE",
"1160 420 CURVE SMOOTH"
);
},
{
closed = 1;
nodes = (
"838 1295 OFFCURVE",
"928 1219 OFFCURVE",
"928 1070 CURVE SMOOTH",
"928 923 OFFCURVE",
"817 836 OFFCURVE",
"652 836 CURVE SMOOTH",
"362 836 LINE",
"362 1298 LINE",
"658 1298 LINE SMOOTH"
);
},
{
closed = 1;
nodes = (
"968 258 OFFCURVE",
"862 157 OFFCURVE",
"679 157 CURVE SMOOTH",
"362 157 LINE",
"362 681 LINE",
"688 681 LINE SMOOTH",
"884 681 OFFCURVE",
"968 581 OFFCURVE",
"968 418 CURVE SMOOTH"
);
}
);
width = 1276;
}
);
note = B;
rightKerningGroup = B;
unicode = 0042;
},
{
glyphname = C;
lastChange = "2017-04-17 15:00:40 +0000";
layers = (
{
layerId = "EFC0C7B3-D173-4BF6-BF18-C95D96D5B447";
paths = (
{
closed = 1;
nodes = (
"1015 258 OFFCURVE",
"933 137 OFFCURVE",
"688 137 CURVE SMOOTH",
"429 137 OFFCURVE",
"312 368 OFFCURVE",
"312 655 CURVE SMOOTH",
"312 802 LINE SMOOTH",
"312 1111 OFFCURVE",
"448 1318 OFFCURVE",
"705 1318 CURVE SMOOTH",
"930 1318 OFFCURVE",
"1019 1192 OFFCURVE",
"1048 989 CURVE",
"1240 989 LINE",
"1211 1276 OFFCURVE",
"1034 1476 OFFCURVE",
"705 1476 CURVE SMOOTH",
"345 1476 OFFCURVE",
"120 1208 OFFCURVE",
"120 800 CURVE SMOOTH",
"120 644 LINE SMOOTH",
"124 243 OFFCURVE",
"349 -20 OFFCURVE",
"688 -20 CURVE SMOOTH",
"1037 -20 OFFCURVE",
"1211 187 OFFCURVE",
"1240 463 CURVE",
"1048 463 LINE"
);
}
);
width = 1333;
}
);
leftKerningGroup = C;
note = C;
rightKerningGroup = C;
unicode = 0043;
},
{
glyphname = D;
lastChange = "2017-04-17 15:00:40 +0000";
layers = (
{
layerId = "EFC0C7B3-D173-4BF6-BF18-C95D96D5B447";
paths = (
{
closed = 1;
nodes = (
"967 0 OFFCURVE",
"1223 263 OFFCURVE",
"1223 684 CURVE SMOOTH",
"1223 771 LINE SMOOTH",
"1223 1192 OFFCURVE",
"964 1456 OFFCURVE",
"581 1456 CURVE SMOOTH",
"169 1456 LINE",
"169 0 LINE",
"563 0 LINE SMOOTH"
);
},
{
closed = 1;
nodes = (
"868 1298 OFFCURVE",
"1032 1108 OFFCURVE",
"1032 773 CURVE SMOOTH",
"1032 684 LINE SMOOTH",
"1032 365 OFFCURVE",
"874 157 OFFCURVE",
"563 157 CURVE SMOOTH",
"362 157 LINE",
"362 1298 LINE",
"581 1298 LINE SMOOTH"
);
}
);
width = 1344;
}
);
note = D;
rightKerningGroup = D;
unicode = 0044;
},
{
glyphname = E;
lastChange = "2017-04-17 15:00:40 +0000";
layers = (
{
layerId = "EFC0C7B3-D173-4BF6-BF18-C95D96D5B447";
paths = (
{
closed = 1;
nodes = (
"1094 157 LINE",
"362 157 LINE",
"362 673 LINE",
"992 673 LINE",
"992 830 LINE",
"362 830 LINE",
"362 1298 LINE",
"1084 1298 LINE",
"1084 1456 LINE",
"169 1456 LINE",
"169 0 LINE",
"1094 0 LINE"
);
}
);
width = 1164;
}
);
note = E;
rightKerningGroup = E;
unicode = 0045;
},
{
glyphname = F;
lastChange = "2017-04-17 15:00:40 +0000";
layers = (
{
layerId = "EFC0C7B3-D173-4BF6-BF18-C95D96D5B447";
paths = (
{
closed = 1;
nodes = (
"362 643 LINE",
"972 643 LINE",
"972 801 LINE",
"362 801 LINE",
"362 1298 LINE",
"1071 1298 LINE",
"1071 1456 LINE",
"169 1456 LINE",
"169 0 LINE",
"362 0 LINE"
);
}
);
width = 1132;
}
);
note = F;
unicode = 0046;
},
{
glyphname = G;
lastChange = "2017-04-17 15:00:40 +0000";
layers = (
{
layerId = "EFC0C7B3-D173-4BF6-BF18-C95D96D5B447";
paths = (
{
closed = 1;
nodes = (
"716 569 LINE",
"1053 569 LINE",
"1053 243 LINE",
"1034 221 OFFCURVE",
"1001 198 OFFCURVE",
"955 174 CURVE SMOOTH",
"909 149 OFFCURVE",
"834 137 OFFCURVE",
"731 137 CURVE SMOOTH",
"482 137 OFFCURVE",
"316 336 OFFCURVE",
"316 672 CURVE SMOOTH",
"316 792 LINE SMOOTH",
"317 1116 OFFCURVE",
"440 1318 OFFCURVE",
"708 1318 CURVE SMOOTH",
"931 1318 OFFCURVE",
"1025 1187 OFFCURVE",
"1052 1030 CURVE",
"1245 1030 LINE",
"1208 1289 OFFCURVE",
"1041 1476 OFFCURVE",
"708 1476 CURVE SMOOTH",
"332 1476 OFFCURVE",
"122 1218 OFFCURVE",
"122 785 CURVE SMOOTH",
"122 672 LINE SMOOTH",
"122 236 OFFCURVE",
"375 -20 OFFCURVE",
"730 -20 CURVE SMOOTH",
"893 -20 OFFCURVE",
"1012 5 OFFCURVE",
"1089 56 CURVE SMOOTH",
"1166 107 OFFCURVE",
"1218 152 OFFCURVE",
"1245 192 CURVE",
"1245 725 LINE",
"716 725 LINE"
);
}
);
width = 1395;
}
);
leftKerningGroup = C;
note = G;
unicode = 0047;
},
{
glyphname = H;
lastChange = "2017-04-17 15:00:40 +0000";
layers = (
{
layerId = "EFC0C7B3-D173-4BF6-BF18-C95D96D5B447";
paths = (
{
closed = 1;
nodes = (
"1288 1456 LINE",
"1096 1456 LINE",
"1096 830 LINE",
"362 830 LINE",
"362 1456 LINE",
"169 1456 LINE",
"169 0 LINE",
"362 0 LINE",
"362 673 LINE",
"1096 673 LINE",
"1096 0 LINE",
"1288 0 LINE"
);
}
);
width = 1461;
}
);
note = H;
rightKerningGroup = H;
unicode = 0048;
},
{
glyphname = I;
lastChange = "2017-04-17 15:00:40 +0000";
layers = (
{
layerId = "EFC0C7B3-D173-4BF6-BF18-C95D96D5B447";
paths = (
{
closed = 1;
nodes = (
"183 0 LINE",
"376 0 LINE",
"376 1456 LINE",
"183 1456 LINE"
);
}
);
width = 557;
}
);
note = I;
rightKerningGroup = H;
unicode = 0049;
},
{
glyphname = J;
lastChange = "2017-04-17 15:00:40 +0000";
layers = (
{
layerId = "EFC0C7B3-D173-4BF6-BF18-C95D96D5B447";
paths = (
{
closed = 1;
nodes = (
"780 236 OFFCURVE",
"665 137 OFFCURVE",
"513 137 CURVE SMOOTH",
"356 137 OFFCURVE",
"246 219 OFFCURVE",
"246 403 CURVE",
"53 403 LINE",
"53 116 OFFCURVE",
"245 -20 OFFCURVE",
"513 -20 CURVE SMOOTH",
"780 -20 OFFCURVE",
"972 137 OFFCURVE",
"972 425 CURVE SMOOTH",
"972 1456 LINE",
"780 1456 LINE",
"780 425 LINE SMOOTH"
);
}
);
width = 1130;
}
);
leftKerningGroup = J;
note = J;
rightKerningGroup = J;
unicode = 004A;
},
{
glyphname = K;
lastChange = "2017-04-17 15:00:40 +0000";
layers = (
{
layerId = "EFC0C7B3-D173-4BF6-BF18-C95D96D5B447";
paths = (
{
closed = 1;
nodes = (
"669 813 LINE",
"1241 1456 LINE",
"1009 1456 LINE",
"362 738 LINE",
"362 1456 LINE",
"169 1456 LINE",
"169 0 LINE",
"362 0 LINE",
"362 493 LINE",
"540 678 LINE",
"1055 0 LINE",
"1285 0 LINE"
);
}
);
width = 1285;
}
);
note = K;
rightKerningGroup = K;
unicode = 004B;
},
{
glyphname = L;
lastChange = "2017-04-17 15:00:40 +0000";
layers = (
{
layerId = "EFC0C7B3-D173-4BF6-BF18-C95D96D5B447";
paths = (
{
closed = 1;
nodes = (
"362 1456 LINE",
"169 1456 LINE",
"169 0 LINE",
"1052 0 LINE",
"1052 157 LINE",
"362 157 LINE"
);
}
);
width = 1103;
}
);
note = L;
rightKerningGroup = L;
unicode = 004C;
},
{
glyphname = M;
lastChange = "2017-04-17 15:00:40 +0000";
layers = (
{
layerId = "EFC0C7B3-D173-4BF6-BF18-C95D96D5B447";
paths = (
{
closed = 1;
nodes = (
"169 1456 LINE",
"169 0 LINE",
"361 0 LINE",
"361 568 LINE",
"342 1179 LINE",
"820 0 LINE",
"966 0 LINE",
"1445 1177 LINE",
"1426 568 LINE",
"1426 0 LINE",
"1618 0 LINE",
"1618 1456 LINE",
"1370 1456 LINE",
"894 269 LINE",
"417 1456 LINE"
);
}
);
width = 1788;
}
);
note = M;
rightKerningGroup = H;
unicode = 004D;
},
{
glyphname = N;
lastChange = "2017-04-17 15:00:40 +0000";
layers = (
{
layerId = "EFC0C7B3-D173-4BF6-BF18-C95D96D5B447";
paths = (
{
closed = 1;
nodes = (
"1098 330 LINE",
"362 1456 LINE",
"169 1456 LINE",
"169 0 LINE",
"362 0 LINE",
"362 1123 LINE",
"1095 0 LINE",
"1289 0 LINE",
"1289 1456 LINE",
"1098 1456 LINE"
);
}
);
width = 1461;
}
);
note = N;
rightKerningGroup = H;
unicode = 004E;
},
{
glyphname = O;
lastChange = "2017-04-17 15:00:40 +0000";
layers = (
{
layerId = "EFC0C7B3-D173-4BF6-BF18-C95D96D5B447";
paths = (
{
closed = 1;
nodes = (
"1286 1214 OFFCURVE",
"1056 1476 OFFCURVE",
"704 1476 CURVE SMOOTH",
"359 1476 OFFCURVE",
"119 1210 OFFCURVE",
"119 774 CURVE SMOOTH",
"119 682 LINE SMOOTH",
"119 245 OFFCURVE",
"361 -20 OFFCURVE",
"706 -20 CURVE SMOOTH",
"1061 -20 OFFCURVE",
"1290 245 OFFCURVE",
"1290 682 CURVE SMOOTH",
"1290 786 LINE"
);
},
{
closed = 1;
nodes = (
"1099 333 OFFCURVE",
"957 143 OFFCURVE",
"706 143 CURVE SMOOTH",
"467 143 OFFCURVE",
"310 333 OFFCURVE",
"310 682 CURVE SMOOTH",
"310 776 LINE SMOOTH",
"310 1123 OFFCURVE",
"465 1312 OFFCURVE",
"704 1312 CURVE SMOOTH",
"953 1312 OFFCURVE",
"1099 1123 OFFCURVE",
"1099 776 CURVE SMOOTH",
"1099 682 LINE SMOOTH"
);
}
);
width = 1409;
}
);
leftKerningGroup = C;
note = O;
rightKerningGroup = D;
unicode = 004F;
},
{
glyphname = P;
lastChange = "2017-04-17 15:00:40 +0000";
layers = (
{
layerId = "EFC0C7B3-D173-4BF6-BF18-C95D96D5B447";
paths = (
{
closed = 1;
nodes = (
"1037 571 OFFCURVE",
"1217 731 OFFCURVE",
"1217 1012 CURVE SMOOTH",
"1217 1271 OFFCURVE",
"1037 1456 OFFCURVE",
"706 1456 CURVE SMOOTH",
"169 1456 LINE",
"169 0 LINE",
"362 0 LINE",
"362 571 LINE",
"706 571 LINE SMOOTH"
);
},
{
closed = 1;
nodes = (
"933 1298 OFFCURVE",
"1024 1159 OFFCURVE",
"1024 1010 CURVE SMOOTH",
"1024 845 OFFCURVE",
"933 728 OFFCURVE",
"706 728 CURVE SMOOTH",
"362 728 LINE",
"362 1298 LINE",
"706 1298 LINE SMOOTH"
);
}
);
width = 1292;
}
);
note = P;
rightKerningGroup = P;
unicode = 0050;
},
{
glyphname = Q;
lastChange = "2017-04-17 15:00:40 +0000";
layers = (
{
layerId = "EFC0C7B3-D173-4BF6-BF18-C95D96D5B447";
paths = (
{
closed = 1;
nodes = (
"1187 194 OFFCURVE",
"1281 402 OFFCURVE",
"1281 682 CURVE SMOOTH",
"1281 786 LINE",
"1277 1214 OFFCURVE",
"1047 1476 OFFCURVE",
"695 1476 CURVE SMOOTH",
"350 1476 OFFCURVE",
"110 1210 OFFCURVE",
"110 774 CURVE SMOOTH",
"110 682 LINE SMOOTH",
"110 245 OFFCURVE",
"352 -20 OFFCURVE",
"697 -20 CURVE SMOOTH",
"750 -20 OFFCURVE",
"801 -14 OFFCURVE",
"849 -2 CURVE",
"1156 -246 LINE",
"1286 -126 LINE",
"1027 79 LINE"
);
},
{
closed = 1;
nodes = (
"1090 333 OFFCURVE",
"948 143 OFFCURVE",
"697 143 CURVE SMOOTH",
"458 143 OFFCURVE",
"301 333 OFFCURVE",
"301 682 CURVE SMOOTH",
"301 776 LINE SMOOTH",
"301 1123 OFFCURVE",
"456 1312 OFFCURVE",
"695 1312 CURVE SMOOTH",
"944 1312 OFFCURVE",
"1090 1123 OFFCURVE",
"1090 776 CURVE SMOOTH",
"1090 682 LINE SMOOTH"
);
}
);
width = 1409;
}
);
leftKerningGroup = C;
note = Q;
unicode = 0051;
},
{
glyphname = R;
lastChange = "2017-04-17 15:00:40 +0000";
layers = (
{
layerId = "EFC0C7B3-D173-4BF6-BF18-C95D96D5B447";
paths = (
{
closed = 1;
nodes = (
"1226 12 LINE",
"884 630 LINE",
"1057 697 OFFCURVE",
"1161 838 OFFCURVE",
"1161 1019 CURVE SMOOTH",
"1161 1303 OFFCURVE",
"978 1456 OFFCURVE",
"651 1456 CURVE SMOOTH",
"169 1456 LINE",
"169 0 LINE",
"362 0 LINE",
"362 590 LINE",
"704 590 LINE",
"1020 0 LINE",
"1226 0 LINE"
);
},
{
closed = 1;
nodes = (
"874 1298 OFFCURVE",
"969 1187 OFFCURVE",
"969 1019 CURVE SMOOTH",
"969 868 OFFCURVE",
"864 747 OFFCURVE",
"657 747 CURVE SMOOTH",
"362 747 LINE",
"362 1298 LINE",
"651 1298 LINE SMOOTH"
);
}
);
width = 1262;
}
);
note = R;
unicode = 0052;
},
{
glyphname = S;
lastChange = "2017-04-17 15:00:40 +0000";
layers = (
{
layerId = "EFC0C7B3-D173-4BF6-BF18-C95D96D5B447";
paths = (
{
closed = 1;
nodes = (
"945 227 OFFCURVE",
"832 137 OFFCURVE",
"631 137 CURVE SMOOTH",
"444 137 OFFCURVE",
"273 223 OFFCURVE",
"273 422 CURVE",
"81 422 LINE",
"81 325 OFFCURVE",
"108 244 OFFCURVE",
"163 179 CURVE SMOOTH",
"271 47 OFFCURVE",
"451 -20 OFFCURVE",
"631 -20 CURVE SMOOTH",
"938 -20 OFFCURVE",
"1139 133 OFFCURVE",
"1139 370 CURVE SMOOTH",
"1139 597 OFFCURVE",
"991 725 OFFCURVE",
"654 820 CURVE SMOOTH",
"418 887 OFFCURVE",
"320 961 OFFCURVE",
"320 1082 CURVE SMOOTH",
"320 1217 OFFCURVE",
"417 1318 OFFCURVE",
"622 1318 CURVE SMOOTH",
"839 1318 OFFCURVE",
"943 1199 OFFCURVE",
"943 1036 CURVE",
"1135 1036 LINE",
"1135 1263 OFFCURVE",
"950 1476 OFFCURVE",
"622 1476 CURVE SMOOTH",
"323 1476 OFFCURVE",
"127 1307 OFFCURVE",
"127 1080 CURVE SMOOTH",
"127 856 OFFCURVE",
"306 736 OFFCURVE",
"594 652 CURVE SMOOTH",
"738 609 OFFCURVE",
"833 568 OFFCURVE",
"878 528 CURVE SMOOTH",
"923 488 OFFCURVE",
"945 435 OFFCURVE",
"945 368 CURVE SMOOTH"
);
}
);
width = 1216;
}
);
leftKerningGroup = S;
note = S;
unicode = 0053;
},
{
glyphname = T;
lastChange = "2017-04-17 15:00:40 +0000";
layers = (
{
layerId = "EFC0C7B3-D173-4BF6-BF18-C95D96D5B447";
paths = (
{
closed = 1;
nodes = (
"517 0 LINE",
"707 0 LINE",
"707 1298 LINE",
"1175 1298 LINE",
"1175 1456 LINE",
"50 1456 LINE",
"50 1298 LINE",
"517 1298 LINE"
);
}
);
width = 1222;
}
);
leftKerningGroup = T;
note = T;
rightKerningGroup = T;
unicode = 0054;
},
{
glyphname = U;
lastChange = "2017-04-17 15:00:40 +0000";
layers = (
{
layerId = "EFC0C7B3-D173-4BF6-BF18-C95D96D5B447";
paths = (
{
closed = 1;
nodes = (
"1002 243 OFFCURVE",
"869 137 OFFCURVE",
"666 137 CURVE SMOOTH",
"466 137 OFFCURVE",
"331 243 OFFCURVE",
"331 471 CURVE SMOOTH",
"331 1456 LINE",
"140 1456 LINE",
"140 471 LINE SMOOTH",
"140 143 OFFCURVE",
"369 -20 OFFCURVE",
"666 -20 CURVE SMOOTH",
"949 -20 OFFCURVE",
"1194 143 OFFCURVE",
"1194 471 CURVE SMOOTH",
"1194 1456 LINE",
"1002 1456 LINE",
"1002 471 LINE SMOOTH"
);
}
);
width = 1328;
}
);
leftKerningGroup = U;
note = U;
rightKerningGroup = J;
unicode = 0055;
},
{
glyphname = V;
lastChange = "2017-04-17 15:00:40 +0000";
layers = (
{
layerId = "EFC0C7B3-D173-4BF6-BF18-C95D96D5B447";
paths = (
{
closed = 1;
nodes = (
"651 256 LINE",
"238 1456 LINE",
"29 1456 LINE",
"567 0 LINE",
"738 0 LINE",
"1277 1456 LINE",
"1068 1456 LINE"
);
}
);
width = 1304;
}
);
leftKerningGroup = V;
note = V;
rightKerningGroup = V;
unicode = 0056;
},
{
glyphname = W;
lastChange = "2017-04-17 15:00:40 +0000";
layers = (
{
layerId = "EFC0C7B3-D173-4BF6-BF18-C95D96D5B447";
paths = (
{
closed = 1;
nodes = (
"1355 461 LINE",
"1324 263 LINE",
"1283 440 LINE",
"1002 1456 LINE",
"841 1456 LINE",
"552 440 LINE",
"512 267 LINE",
"483 460 LINE",
"253 1456 LINE",
"61 1456 LINE",
"414 0 LINE",
"589 0 LINE",
"900 1061 LINE",
"923 1172 LINE",
"946 1061 LINE",
"1246 0 LINE",
"1421 0 LINE",
"1773 1456 LINE",
"1580 1456 LINE"
);
}
);
width = 1817;
}
);
leftKerningGroup = W;
note = W;
rightKerningGroup = W;
unicode = 0057;
},
{
glyphname = X;
lastChange = "2017-04-17 15:00:40 +0000";
layers = (
{
layerId = "EFC0C7B3-D173-4BF6-BF18-C95D96D5B447";
paths = (
{
closed = 1;
nodes = (
"529 735 LINE",
"58 0 LINE",
"285 0 LINE",
"644 569 LINE",
"1003 0 LINE",
"1230 0 LINE",
"759 735 LINE",
"1219 1456 LINE",
"994 1456 LINE",
"644 898 LINE",
"294 1456 LINE",
"69 1456 LINE"
);
}
);
width = 1284;
}
);
leftKerningGroup = X;
note = X;
rightKerningGroup = X;
unicode = 0058;
},
{
glyphname = Y;
lastChange = "2017-04-17 15:00:40 +0000";
layers = (
{
layerId = "EFC0C7B3-D173-4BF6-BF18-C95D96D5B447";
paths = (
{
closed = 1;
nodes = (
"517 544 LINE",
"517 0 LINE",
"710 0 LINE",
"710 544 LINE",
"1212 1456 LINE",
"993 1456 LINE",
"614 725 LINE",
"236 1456 LINE",
"15 1456 LINE"
);
}
);
width = 1230;
}
);
leftKerningGroup = Y;
note = Y;
rightKerningGroup = Y;
unicode = 0059;
},
{
glyphname = Z;
lastChange = "2017-04-17 15:00:40 +0000";
layers = (
{
layerId = "EFC0C7B3-D173-4BF6-BF18-C95D96D5B447";
paths = (
{
closed = 1;
nodes = (
"87 144 LINE",
"87 0 LINE",
"1146 0 LINE",
"1146 157 LINE",
"314 157 LINE",
"1114 1316 LINE",
"1114 1456 LINE",
"100 1456 LINE",
"100 1298 LINE",
"885 1298 LINE"
);
}
);
width = 1227;
}
);
leftKerningGroup = Z;
note = Z;
rightKerningGroup = Z;
unicode = 005A;
},
{
glyphname = bracketleft;
lastChange = "2017-04-17 15:00:40 +0000";
layers = (
{
layerId = "EFC0C7B3-D173-4BF6-BF18-C95D96D5B447";
paths = (
{
closed = 1;
nodes = (
"147 -312 LINE",
"523 -312 LINE",
"523 -160 LINE",
"332 -160 LINE",
"332 1512 LINE",
"523 1512 LINE",
"523 1664 LINE",
"147 1664 LINE"
);
}
);
width = 543;
}
);
note = bracketleft;
unicode = 005B;
},
{
glyphname = backslash;
lastChange = "2017-04-17 15:00:40 +0000";
layers = (
{
layerId = "EFC0C7B3-D173-4BF6-BF18-C95D96D5B447";
paths = (
{
closed = 1;
nodes = (
"217 1456 LINE",
"41 1456 LINE",
"649 -125 LINE",
"825 -125 LINE"
);
}
);
width = 841;
}
);
note = backslash;
unicode = 005C;
},
{
glyphname = bracketright;
lastChange = "2017-04-17 15:00:40 +0000";
layers = (
{
layerId = "EFC0C7B3-D173-4BF6-BF18-C95D96D5B447";
paths = (
{
closed = 1;
nodes = (
"202 -160 LINE",
"10 -160 LINE",
"10 -312 LINE",
"388 -312 LINE",
"388 1664 LINE",
"10 1664 LINE",
"10 1512 LINE",
"202 1512 LINE"
);
}
);
width = 543;
}
);
note = bracketright;
unicode = 005D;
},
{
glyphname = asciicircum;
lastChange = "2017-04-17 15:00:40 +0000";
layers = (
{
layerId = "EFC0C7B3-D173-4BF6-BF18-C95D96D5B447";
paths = (
{
closed = 1;
nodes = (
"427 1212 LINE",
"617 729 LINE",
"789 729 LINE",
"491 1456 LINE",
"363 1456 LINE",
"64 729 LINE",
"236 729 LINE"
);
}
);
width = 856;
}
);
note = asciicircum;
unicode = 005E;
},
{
glyphname = underscore;
lastChange = "2017-04-17 15:00:40 +0000";
layers = (
{
layerId = "EFC0C7B3-D173-4BF6-BF18-C95D96D5B447";
paths = (
{
closed = 1;
nodes = (
"4 -152 LINE",
"921 -152 LINE",
"921 0 LINE",
"4 0 LINE"
);
}
);
width = 924;
}
);
note = underscore;
unicode = 005F;
},
{
glyphname = grave;
lastChange = "2017-04-17 15:00:40 +0000";
layers = (
{
layerId = "EFC0C7B3-D173-4BF6-BF18-C95D96D5B447";
paths = (
{
closed = 1;
nodes = (
"315 1242 LINE",
"474 1242 LINE",
"281 1536 LINE",
"57 1536 LINE"
);
}
);
width = 633;
}
);
note = grave;
unicode = 0060;
},
{
glyphname = a;
lastChange = "2017-04-17 15:00:40 +0000";
layers = (
{
layerId = "EFC0C7B3-D173-4BF6-BF18-C95D96D5B447";
paths = (
{
closed = 1;
nodes = (
"1002 16 LINE",
"977 75 OFFCURVE",
"964 154 OFFCURVE",
"964 254 CURVE SMOOTH",
"964 740 LINE SMOOTH",
"964 983 OFFCURVE",
"797 1102 OFFCURVE",
"562 1102 CURVE SMOOTH",
"301 1102 OFFCURVE",
"132 937 OFFCURVE",
"132 782 CURVE",
"317 782 LINE",
"317 873 OFFCURVE",
"411 953 OFFCURVE",
"551 953 CURVE SMOOTH",
"702 953 OFFCURVE",
"779 870 OFFCURVE",
"779 742 CURVE SMOOTH",
"779 656 LINE",
"596 656 LINE SMOOTH",
"299 656 OFFCURVE",
"109 533 OFFCURVE",
"109 301 CURVE SMOOTH",
"109 121 OFFCURVE",
"254 -20 OFFCURVE",
"475 -20 CURVE SMOOTH",
"608 -20 OFFCURVE",
"714 41 OFFCURVE",
"783 114 CURVE",
"788 64 OFFCURVE",
"797 26 OFFCURVE",
"809 0 CURVE",
"1002 0 LINE"
);
},
{
closed = 1;
nodes = (
"365 142 OFFCURVE",
"295 223 OFFCURVE",
"295 326 CURVE SMOOTH",
"295 455 OFFCURVE",
"399 522 OFFCURVE",
"607 526 CURVE SMOOTH",
"779 526 LINE",
"779 303 LINE",
"739 222 OFFCURVE",
"635 142 OFFCURVE",
"502 142 CURVE SMOOTH"
);
}
);
width = 1114;
}
);
leftKerningGroup = a;
note = a;
rightKerningGroup = a;
unicode = 0061;
},
{
glyphname = b;
lastChange = "2017-04-17 15:00:40 +0000";
layers = (
{
layerId = "EFC0C7B3-D173-4BF6-BF18-C95D96D5B447";
paths = (
{
closed = 1;
nodes = (
"1057 881 OFFCURVE",
"906 1102 OFFCURVE",
"634 1102 CURVE SMOOTH",
"502 1102 OFFCURVE",
"399 1056 OFFCURVE",
"326 965 CURVE",
"326 1536 LINE",
"140 1536 LINE",
"140 0 LINE",
"310 0 LINE",
"320 125 LINE",
"394 28 OFFCURVE",
"499 -20 OFFCURVE",
"636 -20 CURVE SMOOTH",
"904 -20 OFFCURVE",
"1057 213 OFFCURVE",
"1057 529 CURVE SMOOTH",
"1057 550 LINE SMOOTH"
);
},
{
closed = 1;
nodes = (
"799 946 OFFCURVE",
"871 765 OFFCURVE",
"871 550 CURVE SMOOTH",
"871 529 LINE SMOOTH",
"871 314 OFFCURVE",
"790 137 OFFCURVE",
"590 137 CURVE SMOOTH",
"457 137 OFFCURVE",
"374 211 OFFCURVE",
"326 307 CURVE",
"326 778 LINE",
"373 873 OFFCURVE",
"453 946 OFFCURVE",
"588 946 CURVE SMOOTH"
);
}
);
width = 1150;
}
);
note = b;
rightKerningGroup = b;
unicode = 0062;
},
{
glyphname = c;
lastChange = "2017-04-17 15:00:40 +0000";
layers = (
{
layerId = "EFC0C7B3-D173-4BF6-BF18-C95D96D5B447";
paths = (
{
closed = 1;
nodes = (
"497 132 OFFCURVE",
"438 151 OFFCURVE",
"395 190 CURVE SMOOTH",
"309 266 OFFCURVE",
"278 393 OFFCURVE",
"278 520 CURVE SMOOTH",
"278 562 LINE SMOOTH",
"278 625 OFFCURVE",
"287 686 OFFCURVE",
"305 745 CURVE SMOOTH",
"340 864 OFFCURVE",
"422 950 OFFCURVE",
"574 950 CURVE SMOOTH",
"722 950 OFFCURVE",
"820 843 OFFCURVE",
"829 710 CURVE",
"1005 710 LINE",
"996 933 OFFCURVE",
"827 1102 OFFCURVE",
"574 1102 CURVE SMOOTH",
"249 1102 OFFCURVE",
"93 853 OFFCURVE",
"93 562 CURVE SMOOTH",
"93 520 LINE SMOOTH",
"93 229 OFFCURVE",
"249 -20 OFFCURVE",
"574 -20 CURVE SMOOTH",
"803 -20 OFFCURVE",
"996 149 OFFCURVE",
"1005 342 CURVE",
"829 342 LINE",
"820 219 OFFCURVE",
"706 132 OFFCURVE",
"574 132 CURVE SMOOTH"
);
}
);
width = 1072;
}
);
leftKerningGroup = c;
note = c;
rightKerningGroup = c;
unicode = 0063;
},
{
glyphname = d;
lastChange = "2017-04-17 15:00:40 +0000";
layers = (
{
layerId = "EFC0C7B3-D173-4BF6-BF18-C95D96D5B447";
paths = (
{
closed = 1;
nodes = (
"1009 1536 LINE",
"823 1536 LINE",
"823 974 LINE",
"750 1059 OFFCURVE",
"650 1102 OFFCURVE",
"523 1102 CURVE SMOOTH",
"266 1102 OFFCURVE",
"95 881 OFFCURVE",
"95 550 CURVE SMOOTH",
"95 521 LINE SMOOTH",
"98 210 OFFCURVE",
"268 -20 OFFCURVE",
"521 -20 CURVE SMOOTH",
"653 -20 OFFCURVE",
"756 25 OFFCURVE",
"830 116 CURVE",
"839 0 LINE",
"1009 0 LINE"
);
},
{
closed = 1;
nodes = (
"281 765 OFFCURVE",
"368 946 OFFCURVE",
"569 946 CURVE SMOOTH",
"683 946 OFFCURVE",
"768 895 OFFCURVE",
"823 792 CURVE",
"823 294 LINE",
"767 189 OFFCURVE",
"682 137 OFFCURVE",
"567 137 CURVE SMOOTH",
"367 137 OFFCURVE",
"281 314 OFFCURVE",
"281 529 CURVE SMOOTH",
"281 550 LINE SMOOTH"
);
}
);
width = 1155;
}
);
leftKerningGroup = c;
note = d;
unicode = 0064;
},
{
glyphname = e;
lastChange = "2017-04-17 15:00:40 +0000";
layers = (
{
layerId = "EFC0C7B3-D173-4BF6-BF18-C95D96D5B447";
paths = (
{
closed = 1;
nodes = (
"817 189 OFFCURVE",
"731 131 OFFCURVE",
"600 131 CURVE SMOOTH",
"403 131 OFFCURVE",
"284 290 OFFCURVE",
"279 489 CURVE",
"1011 489 LINE",
"1011 572 LINE SMOOTH",
"1011 875 OFFCURVE",
"875 1102 OFFCURVE",
"566 1102 CURVE SMOOTH",
"485 1102 OFFCURVE",
"408 1080 OFFCURVE",
"336 1037 CURVE SMOOTH",
"192 949 OFFCURVE",
"93 781 OFFCURVE",
"93 545 CURVE SMOOTH",
"93 503 LINE SMOOTH",
"93 198 OFFCURVE",
"289 -20 OFFCURVE",
"590 -20 CURVE SMOOTH",
"803 -20 OFFCURVE",
"926 82 OFFCURVE",
"997 189 CURVE",
"885 278 LINE"
);
},
{
closed = 1;
nodes = (
"755 950 OFFCURVE",
"817 798 OFFCURVE",
"826 654 CURVE",
"826 640 LINE",
"285 640 LINE",
"310 840 OFFCURVE",
"419 950 OFFCURVE",
"566 950 CURVE SMOOTH"
);
}
);
width = 1086;
}
);
leftKerningGroup = c;
note = e;
rightKerningGroup = e;
unicode = 0065;
},
{
glyphname = f;
lastChange = "2017-04-17 15:00:40 +0000";
layers = (
{
layerId = "EFC0C7B3-D173-4BF6-BF18-C95D96D5B447";
paths = (
{
closed = 1;
nodes = (
"417 1082 LINE",
"417 1202 LINE SMOOTH",
"419 1333 OFFCURVE",
"482 1399 OFFCURVE",
"605 1399 CURVE SMOOTH",
"644 1399 OFFCURVE",
"677 1396 OFFCURVE",
"705 1390 CURVE",
"715 1541 LINE",
"670 1552 OFFCURVE",
"628 1557 OFFCURVE",
"587 1557 CURVE SMOOTH",
"368 1557 OFFCURVE",
"235 1432 OFFCURVE",
"232 1203 CURVE SMOOTH",
"232 1082 LINE",
"61 1082 LINE",
"61 940 LINE",
"232 940 LINE",
"232 0 LINE",
"417 0 LINE",
"417 940 LINE",
"647 940 LINE",
"647 1082 LINE"
);
}
);
width = 712;
}
);
note = f;
unicode = 0066;
},
{
glyphname = g;
lastChange = "2017-04-17 15:00:40 +0000";
layers = (
{
layerId = "EFC0C7B3-D173-4BF6-BF18-C95D96D5B447";
paths = (
{
closed = 1;
nodes = (
"821 -427 OFFCURVE",
"1010 -264 OFFCURVE",
"1010 23 CURVE SMOOTH",
"1010 1082 LINE",
"842 1082 LINE",
"833 962 LINE",
"760 1055 OFFCURVE",
"657 1102 OFFCURVE",
"524 1102 CURVE SMOOTH",
"260 1102 OFFCURVE",
"97 881 OFFCURVE",
"97 550 CURVE SMOOTH",
"97 529 LINE SMOOTH",
"97 213 OFFCURVE",
"262 -20 OFFCURVE",
"522 -20 CURVE SMOOTH",
"651 -20 OFFCURVE",
"752 23 OFFCURVE",
"825 109 CURVE",
"825 14 LINE SMOOTH",
"825 -175 OFFCURVE",
"713 -275 OFFCURVE",
"538 -275 CURVE SMOOTH",
"425 -275 OFFCURVE",
"328 -226 OFFCURVE",
"248 -129 CURVE",
"151 -239 LINE",
"248 -380 OFFCURVE",
"440 -427 OFFCURVE",
"552 -427 CURVE SMOOTH"
);
},
{
closed = 1;
nodes = (
"282 765 OFFCURVE",
"368 946 OFFCURVE",
"569 946 CURVE SMOOTH",
"698 946 OFFCURVE",
"778 879 OFFCURVE",
"825 790 CURVE",
"825 297 LINE",
"770 190 OFFCURVE",
"684 137 OFFCURVE",
"567 137 CURVE SMOOTH",
"367 137 OFFCURVE",
"282 314 OFFCURVE",
"282 529 CURVE SMOOTH",
"282 550 LINE SMOOTH"
);
}
);
width = 1150;
}
);
leftKerningGroup = c;
note = g;
unicode = 0067;
},
{
glyphname = h;
lastChange = "2017-04-23 09:52:30 +0000";
layers = (
{
layerId = "EFC0C7B3-D173-4BF6-BF18-C95D96D5B447";
paths = (
{
closed = 1;
nodes = (
"730 946 OFFCURVE",
"806 880 OFFCURVE",
"806 711 CURVE SMOOTH",
"806 0 LINE",
"992 0 LINE",
"992 714 LINE",
"991 994 OFFCURVE",
"857 1102 OFFCURVE",
"645 1102 CURVE SMOOTH",
"514 1102 OFFCURVE",
"408 1052 OFFCURVE",
"326 953 CURVE",
"326 1536 LINE",
"141 1536 LINE",
"141 0 LINE",
"326 0 LINE",
"326 773 LINE",
"378 876 OFFCURVE",
"471 946 OFFCURVE",
"590 946 CURVE SMOOTH"
);
}
);
width = 1128;
}
);
note = h;
rightKerningGroup = h;
unicode = 0068;
},
{
glyphname = i;
lastChange = "2017-04-17 15:00:40 +0000";
layers = (
{
layerId = "EFC0C7B3-D173-4BF6-BF18-C95D96D5B447";
paths = (
{
closed = 1;
nodes = (
"142 1312 OFFCURVE",
"179 1265 OFFCURVE",
"251 1265 CURVE SMOOTH",
"322 1265 OFFCURVE",
"361 1312 OFFCURVE",
"361 1369 CURVE SMOOTH",
"361 1429 OFFCURVE",
"322 1476 OFFCURVE",
"251 1476 CURVE SMOOTH",
"179 1476 OFFCURVE",
"142 1429 OFFCURVE",
"142 1369 CURVE SMOOTH"
);
},
{
closed = 1;
nodes = (
"156 0 LINE",
"342 0 LINE",
"342 1082 LINE",
"156 1082 LINE"
);
}
);
width = 498;
}
);
note = i;
unicode = 0069;
},
{
glyphname = j;
lastChange = "2017-04-17 15:00:40 +0000";
layers = (
{
layerId = "EFC0C7B3-D173-4BF6-BF18-C95D96D5B447";
paths = (
{
closed = 1;
nodes = (
"127 1312 OFFCURVE",
"165 1265 OFFCURVE",
"236 1265 CURVE SMOOTH",
"308 1265 OFFCURVE",
"346 1312 OFFCURVE",
"346 1369 CURVE SMOOTH",
"346 1429 OFFCURVE",
"308 1476 OFFCURVE",
"236 1476 CURVE SMOOTH",
"165 1476 OFFCURVE",
"127 1429 OFFCURVE",
"127 1369 CURVE SMOOTH"
);
},
{
closed = 1;
nodes = (
"143 -234 OFFCURVE",
"101 -280 OFFCURVE",
"20 -280 CURVE SMOOTH",
"-12 -280 OFFCURVE",
"-40 -277 OFFCURVE",
"-65 -271 CURVE",
"-66 -420 LINE",
"-31 -431 OFFCURVE",
"8 -437 OFFCURVE",
"49 -437 CURVE SMOOTH",
"238 -437 OFFCURVE",
"332 -334 OFFCURVE",
"332 -129 CURVE SMOOTH",
"332 1082 LINE",
"146 1082 LINE",
"146 -141 LINE SMOOTH"
);
}
);
width = 490;
}
);
note = j;
unicode = 006A;
},
{
glyphname = k;
lastChange = "2017-04-17 15:00:40 +0000";
layers = (
{
layerId = "EFC0C7B3-D173-4BF6-BF18-C95D96D5B447";
paths = (
{
closed = 1;
nodes = (
"566 631 LINE",
"988 1082 LINE",
"762 1082 LINE",
"426 726 LINE",
"327 608 LINE",
"327 1536 LINE",
"141 1536 LINE",
"141 0 LINE",
"327 0 LINE",
"327 381 LINE",
"444 502 LINE",
"819 0 LINE",
"1037 0 LINE"
);
}
);
width = 1038;
}
);
note = k;
unicode = 006B;
},
{
glyphname = l;
lastChange = "2017-04-17 15:00:40 +0000";
layers = (
{
layerId = "EFC0C7B3-D173-4BF6-BF18-C95D96D5B447";
paths = (
{
closed = 1;
nodes = (
"156 0 LINE",
"342 0 LINE",
"342 1536 LINE",
"156 1536 LINE"
);
}
);
width = 498;
}
);
note = l;
unicode = 006C;
},
{
glyphname = m;
lastChange = "2017-04-17 15:00:40 +0000";
layers = (
{
layerId = "EFC0C7B3-D173-4BF6-BF18-C95D96D5B447";
paths = (
{
closed = 1;
nodes = (
"714 946 OFFCURVE",
"805 881 OFFCURVE",
"805 712 CURVE SMOOTH",
"805 0 LINE",
"990 0 LINE",
"990 718 LINE",
"1003 845 OFFCURVE",
"1091 946 OFFCURVE",
"1240 946 CURVE SMOOTH",
"1381 946 OFFCURVE",
"1471 894 OFFCURVE",
"1471 713 CURVE SMOOTH",
"1471 0 LINE",
"1657 0 LINE",
"1657 711 LINE SMOOTH",
"1657 984 OFFCURVE",
"1526 1102 OFFCURVE",
"1294 1102 CURVE SMOOTH",
"1138 1102 OFFCURVE",
"1022 1032 OFFCURVE",
"950 928 CURVE",
"893 1049 OFFCURVE",
"779 1102 OFFCURVE",
"640 1102 CURVE SMOOTH",
"505 1102 OFFCURVE",
"398 1056 OFFCURVE",
"320 964 CURVE",
"315 1082 LINE",
"139 1082 LINE",
"139 0 LINE",
"325 0 LINE",
"325 793 LINE",
"370 895 OFFCURVE",
"453 946 OFFCURVE",
"574 946 CURVE SMOOTH"
);
}
);
width = 1796;
}
);
leftKerningGroup = m;
note = m;
rightKerningGroup = h;
unicode = 006D;
},
{
glyphname = n;
lastChange = "2017-04-17 15:00:40 +0000";
layers = (
{
layerId = "EFC0C7B3-D173-4BF6-BF18-C95D96D5B447";
paths = (
{
closed = 1;
nodes = (
"730 946 OFFCURVE",
"806 880 OFFCURVE",
"806 711 CURVE SMOOTH",
"806 0 LINE",
"992 0 LINE",
"992 714 LINE",
"991 994 OFFCURVE",
"857 1102 OFFCURVE",
"645 1102 CURVE SMOOTH",
"512 1102 OFFCURVE",
"404 1050 OFFCURVE",
"322 947 CURVE",
"316 1082 LINE",
"141 1082 LINE",
"141 0 LINE",
"326 0 LINE",
"326 773 LINE",
"378 876 OFFCURVE",
"471 946 OFFCURVE",
"590 946 CURVE SMOOTH"
);
}
);
width = 1131;
}
);
leftKerningGroup = m;
note = n;
rightKerningGroup = h;
unicode = 006E;
},
{
glyphname = o;
lastChange = "2017-04-17 15:00:40 +0000";
layers = (
{
layerId = "EFC0C7B3-D173-4BF6-BF18-C95D96D5B447";
paths = (
{
closed = 1;
nodes = (
"92 216 OFFCURVE",
"281 -20 OFFCURVE",
"585 -20 CURVE SMOOTH",
"888 -20 OFFCURVE",
"1077 216 OFFCURVE",
"1077 529 CURVE SMOOTH",
"1077 562 LINE",
"1073 870 OFFCURVE",
"886 1102 OFFCURVE",
"583 1102 CURVE SMOOTH",
"280 1102 OFFCURVE",
"92 865 OFFCURVE",
"92 552 CURVE SMOOTH",
"92 529 LINE SMOOTH"
);
},
{
closed = 1;
nodes = (
"277 764 OFFCURVE",
"379 950 OFFCURVE",
"583 950 CURVE SMOOTH",
"788 950 OFFCURVE",
"891 764 OFFCURVE",
"891 552 CURVE SMOOTH",
"891 526 LINE SMOOTH",
"890 311 OFFCURVE",
"786 132 OFFCURVE",
"585 132 CURVE SMOOTH",
"378 132 OFFCURVE",
"277 314 OFFCURVE",
"277 529 CURVE SMOOTH",
"277 552 LINE SMOOTH"
);
}
);
width = 1168;
}
);
leftKerningGroup = o;
note = o;
rightKerningGroup = o;
unicode = 006F;
},
{
glyphname = p;
lastChange = "2017-04-17 15:00:40 +0000";
layers = (
{
layerId = "EFC0C7B3-D173-4BF6-BF18-C95D96D5B447";
paths = (
{
closed = 1;
nodes = (
"903 -20 OFFCURVE",
"1055 213 OFFCURVE",
"1055 529 CURVE SMOOTH",
"1055 550 LINE SMOOTH",
"1055 881 OFFCURVE",
"905 1102 OFFCURVE",
"632 1102 CURVE SMOOTH",
"499 1102 OFFCURVE",
"395 1056 OFFCURVE",
"319 963 CURVE",
"310 1082 LINE",
"140 1082 LINE",
"140 -416 LINE",
"326 -416 LINE",
"326 105 LINE",
"402 22 OFFCURVE",
"505 -20 OFFCURVE",
"635 -20 CURVE SMOOTH"
);
},
{
closed = 1;
nodes = (
"781 946 OFFCURVE",
"869 765 OFFCURVE",
"869 550 CURVE SMOOTH",
"869 529 LINE SMOOTH",
"869 314 OFFCURVE",
"780 132 OFFCURVE",
"580 132 CURVE SMOOTH",
"467 132 OFFCURVE",
"383 181 OFFCURVE",
"326 279 CURVE",
"326 797 LINE",
"382 896 OFFCURVE",
"466 946 OFFCURVE",
"578 946 CURVE SMOOTH"
);
}
);
width = 1150;
}
);
leftKerningGroup = m;
note = p;
rightKerningGroup = b;
unicode = 0070;
},
{
glyphname = q;
lastChange = "2017-04-17 15:00:40 +0000";
layers = (
{
layerId = "EFC0C7B3-D173-4BF6-BF18-C95D96D5B447";
paths = (
{
closed = 1;
nodes = (
"830 973 LINE",
"755 1059 OFFCURVE",
"654 1102 OFFCURVE",
"526 1102 CURVE SMOOTH",
"255 1102 OFFCURVE",
"95 881 OFFCURVE",
"95 550 CURVE SMOOTH",
"95 529 LINE SMOOTH",
"95 213 OFFCURVE",
"257 -20 OFFCURVE",
"524 -20 CURVE SMOOTH",
"649 -20 OFFCURVE",
"748 20 OFFCURVE",
"822 100 CURVE",
"822 -416 LINE",
"1008 -416 LINE",
"1008 1082 LINE",
"838 1082 LINE"
);
},
{
closed = 1;
nodes = (
"281 765 OFFCURVE",
"369 950 OFFCURVE",
"572 950 CURVE SMOOTH",
"681 950 OFFCURVE",
"764 903 OFFCURVE",
"822 808 CURVE",
"822 277 LINE",
"764 180 OFFCURVE",
"680 132 OFFCURVE",
"570 132 CURVE SMOOTH",
"370 132 OFFCURVE",
"281 314 OFFCURVE",
"281 529 CURVE SMOOTH",
"281 549 LINE SMOOTH"
);
}
);
width = 1164;
}
);
leftKerningGroup = c;
note = q;
unicode = 0071;
},
{
glyphname = r;
lastChange = "2017-04-17 15:00:40 +0000";
layers = (
{
layerId = "EFC0C7B3-D173-4BF6-BF18-C95D96D5B447";
paths = (
{
closed = 1;
nodes = (
"606 924 OFFCURVE",
"636 921 OFFCURVE",
"663 916 CURVE",
"664 1088 LINE",
"644 1097 OFFCURVE",
"617 1102 OFFCURVE",
"582 1102 CURVE SMOOTH",
"470 1102 OFFCURVE",
"384 1054 OFFCURVE",
"325 958 CURVE",
"321 1082 LINE",
"141 1082 LINE",
"141 0 LINE",
"326 0 LINE",
"326 768 LINE",
"370 872 OFFCURVE",
"452 924 OFFCURVE",
"573 924 CURVE SMOOTH"
);
}
);
width = 694;
}
);
note = r;
rightKerningGroup = r;
unicode = 0072;
},
{
glyphname = s;
lastChange = "2017-04-17 15:00:40 +0000";
layers = (
{
layerId = "EFC0C7B3-D173-4BF6-BF18-C95D96D5B447";
paths = (
{
closed = 1;
nodes = (
"771 198 OFFCURVE",
"689 132 OFFCURVE",
"538 132 CURVE SMOOTH",
"423 132 OFFCURVE",
"289 181 OFFCURVE",
"281 334 CURVE",
"95 334 LINE",
"95 155 OFFCURVE",
"251 -20 OFFCURVE",
"538 -20 CURVE SMOOTH",
"790 -20 OFFCURVE",
"956 110 OFFCURVE",
"956 301 CURVE SMOOTH",
"956 478 OFFCURVE",
"827 565 OFFCURVE",
"562 625 CURVE SMOOTH",
"461 648 OFFCURVE",
"396 671 OFFCURVE",
"365 696 CURVE SMOOTH",
"334 720 OFFCURVE",
"318 752 OFFCURVE",
"318 791 CURVE SMOOTH",
"318 870 OFFCURVE",
"380 950 OFFCURVE",
"533 950 CURVE SMOOTH",
"678 950 OFFCURVE",
"760 853 OFFCURVE",
"760 764 CURVE",
"945 764 LINE",
"945 951 OFFCURVE",
"792 1102 OFFCURVE",
"533 1102 CURVE SMOOTH",
"290 1102 OFFCURVE",
"132 957 OFFCURVE",
"132 786 CURVE SMOOTH",
"132 606 OFFCURVE",
"286 522 OFFCURVE",
"527 473 CURVE SMOOTH",
"632 452 OFFCURVE",
"699 425 OFFCURVE",
"728 394 CURVE SMOOTH",
"757 362 OFFCURVE",
"771 326 OFFCURVE",
"771 287 CURVE SMOOTH"
);
}
);
width = 1057;
}
);
leftKerningGroup = s;
note = s;
unicode = 0073;
},
{
glyphname = t;
lastChange = "2017-04-17 15:00:40 +0000";
layers = (
{
layerId = "EFC0C7B3-D173-4BF6-BF18-C95D96D5B447";
paths = (
{
closed = 1;
nodes = (
"563 143 OFFCURVE",
"534 139 OFFCURVE",
"511 139 CURVE SMOOTH",
"448 139 OFFCURVE",
"392 157 OFFCURVE",
"392 268 CURVE SMOOTH",
"392 940 LINE",
"594 940 LINE",
"594 1082 LINE",
"392 1082 LINE",
"392 1345 LINE",
"207 1345 LINE",
"207 1082 LINE",
"9 1082 LINE",
"9 940 LINE",
"207 940 LINE",
"207 269 LINE SMOOTH",
"207 52 OFFCURVE",
"319 -20 OFFCURVE",
"456 -20 CURVE SMOOTH",
"509 -20 OFFCURVE",
"557 -13 OFFCURVE",
"599 0 CURVE",
"598 151 LINE"
);
}
);
width = 670;
}
);
note = t;
unicode = 0074;
},
{
glyphname = u;
lastChange = "2017-04-17 15:00:40 +0000";
layers = (
{
layerId = "EFC0C7B3-D173-4BF6-BF18-C95D96D5B447";
paths = (
{
closed = 1;
nodes = (
"989 1082 LINE",
"803 1082 LINE",
"803 294 LINE",
"754 189 OFFCURVE",
"660 137 OFFCURVE",
"521 137 CURVE SMOOTH",
"420 137 OFFCURVE",
"322 187 OFFCURVE",
"322 382 CURVE SMOOTH",
"322 1082 LINE",
"137 1082 LINE",
"137 384 LINE SMOOTH",
"137 96 OFFCURVE",
"280 -20 OFFCURVE",
"492 -20 CURVE SMOOTH",
"632 -20 OFFCURVE",
"737 22 OFFCURVE",
"808 107 CURVE",
"812 0 LINE",
"989 0 LINE"
);
}
);
width = 1129;
}
);
leftKerningGroup = u;
note = u;
unicode = 0075;
},
{
glyphname = v;
lastChange = "2017-04-17 15:00:40 +0000";
layers = (
{
layerId = "EFC0C7B3-D173-4BF6-BF18-C95D96D5B447";
paths = (
{
closed = 1;
nodes = (
"498 253 LINE",
"223 1082 LINE",
"33 1082 LINE",
"425 0 LINE",
"566 0 LINE",
"955 1082 LINE",
"766 1082 LINE"
);
}
);
width = 992;
}
);
leftKerningGroup = v;
note = v;
rightKerningGroup = v;
unicode = 0076;
},
{
glyphname = w;
lastChange = "2017-04-17 15:00:40 +0000";
layers = (
{
layerId = "EFC0C7B3-D173-4BF6-BF18-C95D96D5B447";
paths = (
{
closed = 1;
nodes = (
"1098 257 LINE",
"842 1082 LINE",
"693 1082 LINE",
"441 274 LINE",
"228 1082 LINE",
"43 1082 LINE",
"357 0 LINE",
"508 0 LINE",
"764 819 LINE",
"1027 0 LINE",
"1177 0 LINE",
"1491 1082 LINE",
"1307 1082 LINE"
);
}
);
width = 1539;
}
);
note = w;
unicode = 0077;
},
{
glyphname = x;
lastChange = "2017-04-17 15:00:40 +0000";
layers = (
{
layerId = "EFC0C7B3-D173-4BF6-BF18-C95D96D5B447";
paths = (
{
closed = 1;
nodes = (
"406 548 LINE",
"42 0 LINE",
"257 0 LINE",
"507 406 LINE",
"757 0 LINE",
"971 0 LINE",
"606 548 LINE",
"960 1082 LINE",
"743 1082 LINE",
"503 688 LINE",
"266 1082 LINE",
"53 1082 LINE"
);
}
);
width = 1016;
}
);
leftKerningGroup = x;
note = x;
rightKerningGroup = x;
unicode = 0078;
},
{
glyphname = y;
lastChange = "2017-04-17 15:00:40 +0000";
layers = (
{
layerId = "EFC0C7B3-D173-4BF6-BF18-C95D96D5B447";
paths = (
{
closed = 1;
nodes = (
"746 1082 LINE",
"495 272 LINE",
"224 1082 LINE",
"22 1082 LINE",
"408 12 LINE",
"368 -98 LINE SMOOTH",
"323 -231 OFFCURVE",
"259 -275 OFFCURVE",
"134 -275 CURVE",
"84 -271 LINE",
"85 -421 LINE",
"115 -432 OFFCURVE",
"150 -437 OFFCURVE",
"189 -437 CURVE SMOOTH",
"220 -436 LINE",
"349 -426 OFFCURVE",
"446 -336 OFFCURVE",
"510 -167 CURVE SMOOTH",
"944 1082 LINE"
);
}
);
width = 969;
}
);
leftKerningGroup = v;
note = y;
rightKerningGroup = v;
unicode = 0079;
},
{
glyphname = z;
lastChange = "2017-04-17 15:00:40 +0000";
layers = (
{
layerId = "EFC0C7B3-D173-4BF6-BF18-C95D96D5B447";
paths = (
{
closed = 1;
nodes = (
"89 136 LINE",
"89 0 LINE",
"947 0 LINE",
"947 152 LINE",
"316 152 LINE",
"918 951 LINE",
"918 1082 LINE",
"97 1082 LINE",
"97 929 LINE",
"685 929 LINE"
);
}
);
width = 1016;
}
);
leftKerningGroup = z;
note = z;
rightKerningGroup = z;
unicode = 007A;
},
{
glyphname = braceleft;
lastChange = "2017-04-17 15:00:40 +0000";
layers = (
{
layerId = "EFC0C7B3-D173-4BF6-BF18-C95D96D5B447";
paths = (
{
closed = 1;
nodes = (
"205 543 OFFCURVE",
"276 462 OFFCURVE",
"276 299 CURVE SMOOTH",
"276 99 LINE SMOOTH",
"276 -110 OFFCURVE",
"360 -289 OFFCURVE",
"632 -366 CURVE",
"671 -251 LINE",
"512 -202 OFFCURVE",
"462 -65 OFFCURVE",
"462 99 CURVE SMOOTH",
"462 295 LINE SMOOTH",
"462 450 OFFCURVE",
"406 556 OFFCURVE",
"295 615 CURVE",
"406 675 OFFCURVE",
"462 781 OFFCURVE",
"462 934 CURVE SMOOTH",
"462 1132 LINE SMOOTH",
"462 1296 OFFCURVE",
"512 1434 OFFCURVE",
"671 1483 CURVE",
"632 1597 LINE",
"360 1520 OFFCURVE",
"276 1343 OFFCURVE",
"276 1132 CURVE SMOOTH",
"276 930 LINE SMOOTH",
"276 769 OFFCURVE",
"205 688 OFFCURVE",
"64 688 CURVE",
"64 543 LINE"
);
}
);
width = 693;
}
);
note = braceleft;
unicode = 007B;
},
{
glyphname = bar;
lastChange = "2017-04-17 15:00:40 +0000";
layers = (
{
layerId = "EFC0C7B3-D173-4BF6-BF18-C95D96D5B447";
paths = (
{
closed = 1;
nodes = (
"176 -270 LINE",
"325 -270 LINE",
"325 1456 LINE",
"176 1456 LINE"
);
}
);
width = 500;
}
);
note = bar;
unicode = 007C;
},
{
glyphname = braceright;
lastChange = "2017-04-17 15:00:40 +0000";
layers = (
{
layerId = "EFC0C7B3-D173-4BF6-BF18-C95D96D5B447";
paths = (
{
closed = 1;
nodes = (
"486 688 OFFCURVE",
"415 768 OFFCURVE",
"415 928 CURVE SMOOTH",
"415 1132 LINE SMOOTH",
"415 1343 OFFCURVE",
"332 1520 OFFCURVE",
"59 1597 CURVE",
"20 1483 LINE",
"179 1434 OFFCURVE",
"229 1296 OFFCURVE",
"229 1132 CURVE SMOOTH",
"229 933 LINE SMOOTH",
"229 776 OFFCURVE",
"290 670 OFFCURVE",
"411 615 CURVE",
"290 560 OFFCURVE",
"229 455 OFFCURVE",
"229 298 CURVE SMOOTH",
"229 99 LINE SMOOTH",
"229 -65 OFFCURVE",
"177 -202 OFFCURVE",
"20 -251 CURVE",
"59 -366 LINE",
"332 -289 OFFCURVE",
"415 -110 OFFCURVE",
"415 99 CURVE SMOOTH",
"415 301 LINE SMOOTH",
"415 462 OFFCURVE",
"486 543 OFFCURVE",
"627 543 CURVE",
"627 688 LINE"
);
}
);
width = 693;
}
);
note = braceright;
unicode = 007D;
},
{
glyphname = asciitilde;
lastChange = "2017-04-17 15:00:40 +0000";
layers = (
{
layerId = "EFC0C7B3-D173-4BF6-BF18-C95D96D5B447";
paths = (
{
closed = 1;
nodes = (
"1111 652 OFFCURVE",
"1042 565 OFFCURVE",
"939 565 CURVE SMOOTH",
"912 565 OFFCURVE",
"886 571 OFFCURVE",
"862 583 CURVE",
"837 594 OFFCURVE",
"800 622 OFFCURVE",
"750 666 CURVE SMOOTH",
"649 754 OFFCURVE",
"569 803 OFFCURVE",
"454 803 CURVE SMOOTH",
"265 803 OFFCURVE",
"131 645 OFFCURVE",
"131 436 CURVE",
"292 438 LINE",
"292 563 OFFCURVE",
"353 640 OFFCURVE",
"454 640 CURVE SMOOTH",
"521 640 OFFCURVE",
"573 604 OFFCURVE",
"641 541 CURVE SMOOTH",
"745 450 OFFCURVE",
"823 403 OFFCURVE",
"939 403 CURVE SMOOTH",
"1130 403 OFFCURVE",
"1263 573 OFFCURVE",
"1263 778 CURVE",
"1111 777 LINE"
);
}
);
width = 1393;
}
);
note = asciitilde;
unicode = 007E;
},
{
glyphname = exclamdown;
lastChange = "2017-04-17 15:00:40 +0000";
layers = (
{
layerId = "EFC0C7B3-D173-4BF6-BF18-C95D96D5B447";
paths = (
{
closed = 1;
nodes = (
"358 1055 OFFCURVE",
"321 1101 OFFCURVE",
"249 1101 CURVE SMOOTH",
"178 1101 OFFCURVE",
"139 1055 OFFCURVE",
"139 996 CURVE SMOOTH",
"139 937 OFFCURVE",
"178 890 OFFCURVE",
"249 890 CURVE SMOOTH",
"321 890 OFFCURVE",
"358 937 OFFCURVE",
"358 996 CURVE SMOOTH"
);
},
{
closed = 1;
nodes = (
"338 684 LINE",
"171 684 LINE",
"157 -361 LINE",
"352 -361 LINE"
);
}
);
width = 500;
}
);
note = exclamdown;
unicode = 00A1;
},
{
glyphname = cent;
lastChange = "2017-04-17 15:00:40 +0000";
layers = (
{
layerId = "EFC0C7B3-D173-4BF6-BF18-C95D96D5B447";
paths = (
{
closed = 1;
nodes = (
"831 219 OFFCURVE",
"719 132 OFFCURVE",
"587 132 CURVE SMOOTH",
"510 132 OFFCURVE",
"451 151 OFFCURVE",
"408 190 CURVE SMOOTH",
"322 266 OFFCURVE",
"291 393 OFFCURVE",
"291 520 CURVE SMOOTH",
"291 562 LINE SMOOTH",
"291 625 OFFCURVE",
"300 686 OFFCURVE",
"318 745 CURVE SMOOTH",
"353 864 OFFCURVE",
"435 950 OFFCURVE",
"587 950 CURVE SMOOTH",
"735 950 OFFCURVE",
"831 843 OFFCURVE",
"842 710 CURVE",
"1018 710 LINE",
"1009 907 OFFCURVE",
"877 1063 OFFCURVE",
"670 1096 CURVE",
"670 1318 LINE",
"484 1318 LINE",
"484 1093 LINE",
"229 1045 OFFCURVE",
"105 819 OFFCURVE",
"105 562 CURVE SMOOTH",
"105 520 LINE SMOOTH",
"105 263 OFFCURVE",
"228 37 OFFCURVE",
"484 -11 CURVE",
"484 -245 LINE",
"670 -245 LINE",
"670 -13 LINE",
"861 23 OFFCURVE",
"1009 173 OFFCURVE",
"1018 342 CURVE",
"842 342 LINE"
);
}
);
width = 1121;
}
);
note = cent;
unicode = 00A2;
},
{
glyphname = sterling;
lastChange = "2017-04-17 15:00:40 +0000";
layers = (
{
layerId = "EFC0C7B3-D173-4BF6-BF18-C95D96D5B447";
paths = (
{
closed = 1;
nodes = (
"1128 157 LINE",
"396 157 LINE",
"437 219 OFFCURVE",
"458 301 OFFCURVE",
"457 402 CURVE SMOOTH",
"449 623 LINE",
"763 623 LINE",
"763 780 LINE",
"444 780 LINE",
"435 1039 LINE",
"435 1219 OFFCURVE",
"539 1319 OFFCURVE",
"671 1319 CURVE SMOOTH",
"795 1319 OFFCURVE",
"908 1254 OFFCURVE",
"908 1087 CURVE",
"1100 1087 LINE",
"1100 1319 OFFCURVE",
"948 1476 OFFCURVE",
"687 1476 CURVE SMOOTH",
"432 1476 OFFCURVE",
"243 1315 OFFCURVE",
"243 1039 CURVE SMOOTH",
"252 780 LINE",
"91 780 LINE",
"91 623 LINE",
"257 623 LINE",
"265 401 LINE",
"265 313 OFFCURVE",
"241 174 OFFCURVE",
"172 157 CURVE",
"95 157 LINE",
"95 0 LINE",
"1128 0 LINE"
);
}
);
width = 1191;
}
);
note = sterling;
unicode = 00A3;
},
{
glyphname = currency;
lastChange = "2017-04-17 15:00:40 +0000";
layers = (
{
layerId = "EFC0C7B3-D173-4BF6-BF18-C95D96D5B447";
paths = (
{
closed = 1;
nodes = (
"1296 359 OFFCURVE",
"1330 477 OFFCURVE",
"1330 608 CURVE SMOOTH",
"1330 745 OFFCURVE",
"1293 867 OFFCURVE",
"1220 974 CURVE",
"1371 1128 LINE",
"1239 1265 LINE",
"1090 1113 LINE",
"985 1194 OFFCURVE",
"867 1234 OFFCURVE",
"735 1234 CURVE SMOOTH",
"604 1234 OFFCURVE",
"486 1194 OFFCURVE",
"382 1115 CURVE",
"236 1264 LINE",
"105 1128 LINE",
"252 978 LINE",
"177 869 OFFCURVE",
"140 746 OFFCURVE",
"140 608 CURVE SMOOTH",
"140 476 OFFCURVE",
"175 357 OFFCURVE",
"244 251 CURVE",
"105 110 LINE",
"236 -26 LINE",
"370 110 LINE",
"477 23 OFFCURVE",
"598 -20 OFFCURVE",
"735 -20 CURVE SMOOTH",
"873 -20 OFFCURVE",
"996 24 OFFCURVE",
"1103 112 CURVE",
"1239 -27 LINE",
"1371 110 LINE",
"1229 254 LINE"
);
},
{
closed = 1;
nodes = (
"312 860 OFFCURVE",
"502 1062 OFFCURVE",
"735 1062 CURVE SMOOTH",
"968 1062 OFFCURVE",
"1157 860 OFFCURVE",
"1157 608 CURVE SMOOTH",
"1157 356 OFFCURVE",
"968 152 OFFCURVE",
"735 152 CURVE SMOOTH",
"502 152 OFFCURVE",
"312 356 OFFCURVE",
"312 608 CURVE SMOOTH"
);
}
);
width = 1461;
}
);
note = currency;
unicode = 00A4;
},
{
glyphname = yen;
lastChange = "2017-04-17 15:00:40 +0000";
layers = (
{
layerId = "EFC0C7B3-D173-4BF6-BF18-C95D96D5B447";
paths = (
{
closed = 1;
nodes = (
"630 446 LINE",
"630 610 LINE",
"631 612 LINE",
"955 612 LINE",
"955 737 LINE",
"695 737 LINE",
"1060 1456 LINE",
"847 1456 LINE",
"539 793 LINE",
"232 1456 LINE",
"15 1456 LINE",
"382 737 LINE",
"120 737 LINE",
"120 612 LINE",
"438 612 LINE",
"438 446 LINE",
"120 446 LINE",
"120 322 LINE",
"438 322 LINE",
"438 0 LINE",
"630 0 LINE",
"630 322 LINE",
"955 322 LINE",
"955 446 LINE"
);
}
);
width = 1076;
}
);
note = yen;
unicode = 00A5;
},
{
glyphname = brokenbar;
lastChange = "2017-04-17 15:00:40 +0000";
layers = (
{
layerId = "EFC0C7B3-D173-4BF6-BF18-C95D96D5B447";
paths = (
{
closed = 1;
nodes = (
"148 698 LINE",
"333 698 LINE",
"333 1456 LINE",
"148 1456 LINE"
);
},
{
closed = 1;
nodes = (
"148 522 LINE",
"148 -270 LINE",
"333 -270 LINE",
"333 522 LINE"
);
}
);
width = 492;
}
);
note = brokenbar;
unicode = 00A6;
},
{
glyphname = section;
lastChange = "2017-04-17 15:00:40 +0000";
layers = (
{
layerId = "EFC0C7B3-D173-4BF6-BF18-C95D96D5B447";
paths = (
{
closed = 1;
nodes = (
"1100 -4 OFFCURVE",
"1053 91 OFFCURVE",
"960 157 CURVE",
"1083 213 OFFCURVE",
"1145 304 OFFCURVE",
"1145 431 CURVE SMOOTH",
"1145 675 OFFCURVE",
"984 769 OFFCURVE",
"684 853 CURVE SMOOTH",
"534 895 OFFCURVE",
"437 932 OFFCURVE",
"393 965 CURVE SMOOTH",
"349 998 OFFCURVE",
"327 1047 OFFCURVE",
"327 1113 CURVE SMOOTH",
"327 1229 OFFCURVE",
"422 1325 OFFCURVE",
"631 1325 CURVE SMOOTH",
"830 1325 OFFCURVE",
"937 1201 OFFCURVE",
"937 1046 CURVE",
"1122 1046 LINE",
"1122 1323 OFFCURVE",
"936 1477 OFFCURVE",
"631 1477 CURVE SMOOTH",
"334 1477 OFFCURVE",
"142 1332 OFFCURVE",
"142 1111 CURVE SMOOTH",
"142 987 OFFCURVE",
"188 892 OFFCURVE",
"279 825 CURVE",
"158 768 OFFCURVE",
"97 677 OFFCURVE",
"97 551 CURVE SMOOTH",
"97 302 OFFCURVE",
"272 205 OFFCURVE",
"564 126 CURVE SMOOTH",
"699 85 OFFCURVE",
"791 48 OFFCURVE",
"841 14 CURVE SMOOTH",
"890 -21 OFFCURVE",
"915 -69 OFFCURVE",
"915 -131 CURVE SMOOTH",
"915 -251 OFFCURVE",
"805 -343 OFFCURVE",
"613 -343 CURVE SMOOTH",
"454 -343 OFFCURVE",
"276 -274 OFFCURVE",
"276 -62 CURVE",
"91 -64 LINE",
"91 -172 OFFCURVE",
"117 -257 OFFCURVE",
"168 -320 CURVE SMOOTH",
"271 -445 OFFCURVE",
"441 -495 OFFCURVE",
"613 -495 CURVE SMOOTH",
"908 -495 OFFCURVE",
"1100 -361 OFFCURVE",
"1100 -129 CURVE SMOOTH"
);
},
{
closed = 1;
nodes = (
"754 255 OFFCURVE",
"696 274 OFFCURVE",
"626 293 CURVE SMOOTH",
"485 332 OFFCURVE",
"392 369 OFFCURVE",
"348 404 CURVE SMOOTH",
"304 438 OFFCURVE",
"282 488 OFFCURVE",
"282 553 CURVE SMOOTH",
"282 645 OFFCURVE",
"332 719 OFFCURVE",
"437 744 CURVE",
"482 727 OFFCURVE",
"538 709 OFFCURVE",
"603 691 CURVE SMOOTH",
"740 650 OFFCURVE",
"833 612 OFFCURVE",
"884 576 CURVE SMOOTH",
"935 540 OFFCURVE",
"960 491 OFFCURVE",
"960 428 CURVE SMOOTH",
"960 330 OFFCURVE",
"906 267 OFFCURVE",
"799 238 CURVE"
);
}
);
width = 1256;
}
);
note = section;
unicode = 00A7;
},
{
glyphname = dieresis;
lastChange = "2017-04-17 15:00:40 +0000";
layers = (
{
layerId = "EFC0C7B3-D173-4BF6-BF18-C95D96D5B447";
paths = (
{
closed = 1;
nodes = (
"101 1314 OFFCURVE",
"139 1267 OFFCURVE",
"210 1267 CURVE SMOOTH",
"282 1267 OFFCURVE",
"320 1314 OFFCURVE",
"320 1371 CURVE SMOOTH",
"320 1431 OFFCURVE",
"282 1478 OFFCURVE",
"210 1478 CURVE SMOOTH",
"139 1478 OFFCURVE",
"101 1431 OFFCURVE",
"101 1371 CURVE SMOOTH"
);
},
{
closed = 1;
nodes = (
"532 1312 OFFCURVE",
"569 1265 OFFCURVE",
"641 1265 CURVE SMOOTH",
"712 1265 OFFCURVE",
"751 1312 OFFCURVE",
"751 1369 CURVE SMOOTH",
"751 1429 OFFCURVE",
"712 1476 OFFCURVE",
"641 1476 CURVE SMOOTH",
"569 1476 OFFCURVE",
"532 1429 OFFCURVE",
"532 1369 CURVE SMOOTH"
);
}
);
width = 857;
}
);
note = dieresis;
unicode = 00A8;
},
{
glyphname = copyright;
lastChange = "2017-04-17 15:00:40 +0000";
layers = (
{
layerId = "EFC0C7B3-D173-4BF6-BF18-C95D96D5B447";
paths = (
{
closed = 1;
nodes = (
"92 588 OFFCURVE",
"124 461 OFFCURVE",
"188 348 CURVE SMOOTH",
"316 121 OFFCURVE",
"541 -21 OFFCURVE",
"802 -21 CURVE SMOOTH",
"933 -21 OFFCURVE",
"1052 12 OFFCURVE",
"1159 79 CURVE SMOOTH",
"1373 211 OFFCURVE",
"1511 448 OFFCURVE",
"1511 729 CURVE SMOOTH",
"1511 870 OFFCURVE",
"1479 997 OFFCURVE",
"1415 1110 CURVE SMOOTH",
"1287 1336 OFFCURVE",
"1063 1476 OFFCURVE",
"802 1476 CURVE SMOOTH",
"671 1476 OFFCURVE",
"552 1443 OFFCURVE",
"445 1378 CURVE SMOOTH",
"230 1246 OFFCURVE",
"92 1010 OFFCURVE",
"92 729 CURVE SMOOTH"
);
},
{
closed = 1;
nodes = (
"207 848 OFFCURVE",
"234 954 OFFCURVE",
"287 1049 CURVE SMOOTH",
"394 1238 OFFCURVE",
"583 1357 OFFCURVE",
"802 1357 CURVE SMOOTH",
"911 1357 OFFCURVE",
"1011 1329 OFFCURVE",
"1101 1274 CURVE SMOOTH",
"1280 1163 OFFCURVE",
"1395 966 OFFCURVE",
"1395 729 CURVE SMOOTH",
"1395 610 OFFCURVE",
"1368 503 OFFCURVE",
"1315 408 CURVE SMOOTH",
"1208 217 OFFCURVE",
"1021 98 OFFCURVE",
"802 98 CURVE SMOOTH",
"693 98 OFFCURVE",
"593 126 OFFCURVE",
"503 182 CURVE SMOOTH",
"322 293 OFFCURVE",
"207 492 OFFCURVE",
"207 729 CURVE SMOOTH"
);
},
{
closed = 1;
nodes = (
"974 465 OFFCURVE",
"911 412 OFFCURVE",
"788 412 CURVE SMOOTH",
"656 412 OFFCURVE",
"586 519 OFFCURVE",
"586 671 CURVE SMOOTH",
"586 787 LINE SMOOTH",
"586 938 OFFCURVE",
"656 1045 OFFCURVE",
"788 1045 CURVE SMOOTH",
"913 1045 OFFCURVE",
"975 983 OFFCURVE",
"975 860 CURVE",
"1121 860 LINE",
"1121 1069 OFFCURVE",
"992 1173 OFFCURVE",
"788 1173 CURVE SMOOTH",
"576 1173 OFFCURVE",
"442 1015 OFFCURVE",
"442 786 CURVE SMOOTH",
"442 671 LINE SMOOTH",
"442 440 OFFCURVE",
"576 284 OFFCURVE",
"788 284 CURVE SMOOTH",
"992 284 OFFCURVE",
"1120 387 OFFCURVE",
"1120 598 CURVE",
"974 598 LINE"
);
}
);
width = 1609;
}
);
note = copyright;
unicode = 00A9;
},
{
glyphname = ordfeminine;
lastChange = "2017-04-17 15:00:40 +0000";
layers = (
{
layerId = "EFC0C7B3-D173-4BF6-BF18-C95D96D5B447";
paths = (
{
closed = 1;
nodes = (
"767 759 OFFCURVE",
"758 819 OFFCURVE",
"758 887 CURVE SMOOTH",
"758 1201 LINE SMOOTH",
"758 1384 OFFCURVE",
"643 1477 OFFCURVE",
"471 1477 CURVE SMOOTH",
"284 1477 OFFCURVE",
"162 1379 OFFCURVE",
"162 1244 CURVE",
"323 1231 LINE",
"323 1301 OFFCURVE",
"372 1336 OFFCURVE",
"471 1336 CURVE SMOOTH",
"554 1336 OFFCURVE",
"595 1291 OFFCURVE",
"595 1202 CURVE SMOOTH",
"595 1149 LINE",
"469 1149 LINE SMOOTH",
"254 1145 OFFCURVE",
"147 1068 OFFCURVE",
"147 918 CURVE SMOOTH",
"147 781 OFFCURVE",
"236 692 OFFCURVE",
"396 692 CURVE SMOOTH",
"479 692 OFFCURVE",
"548 721 OFFCURVE",
"602 778 CURVE",
"619 706 LINE",
"784 706 LINE"
);
},
{
closed = 1;
nodes = (
"352 829 OFFCURVE",
"310 860 OFFCURVE",
"310 922 CURVE SMOOTH",
"310 985 OFFCURVE",
"366 1038 OFFCURVE",
"487 1038 CURVE SMOOTH",
"595 1038 LINE",
"595 897 LINE",
"559 861 OFFCURVE",
"494 829 OFFCURVE",
"435 829 CURVE SMOOTH"
);
}
);
width = 916;
}
);
note = ordfeminine;
unicode = 00AA;
},
{
glyphname = guillemotleft;
lastChange = "2017-04-17 15:00:40 +0000";
layers = (
{
layerId = "EFC0C7B3-D173-4BF6-BF18-C95D96D5B447";
paths = (
{
closed = 1;
nodes = (
"280 548 LINE",
"538 946 LINE",
"396 946 LINE",
"101 558 LINE",
"101 539 LINE",
"396 150 LINE",
"538 150 LINE"
);
},
{
closed = 1;
nodes = (
"611 548 LINE",
"869 946 LINE",
"727 946 LINE",
"432 558 LINE",
"432 539 LINE",
"727 150 LINE",
"869 150 LINE"
);
}
);
width = 961;
}
);
note = guillemotleft;
unicode = 00AB;
},
{
glyphname = logicalnot;
lastChange = "2017-04-17 15:00:40 +0000";
layers = (
{
layerId = "EFC0C7B3-D173-4BF6-BF18-C95D96D5B447";
paths = (
{
closed = 1;
nodes = (
"773 639 LINE",
"773 376 LINE",
"958 376 LINE",
"958 801 LINE",
"127 801 LINE",
"127 639 LINE"
);
}
);
width = 1134;
}
);
note = logicalnot;
unicode = 00AC;
},
{
glyphname = registered;
lastChange = "2017-04-17 15:00:40 +0000";
layers = (
{
layerId = "EFC0C7B3-D173-4BF6-BF18-C95D96D5B447";
paths = (
{
closed = 1;
nodes = (
"91 588 OFFCURVE",
"123 461 OFFCURVE",
"187 348 CURVE SMOOTH",
"315 121 OFFCURVE",
"540 -21 OFFCURVE",
"801 -21 CURVE SMOOTH",
"931 -21 OFFCURVE",
"1050 12 OFFCURVE",
"1157 79 CURVE SMOOTH",
"1372 211 OFFCURVE",
"1510 448 OFFCURVE",
"1510 729 CURVE SMOOTH",
"1510 870 OFFCURVE",
"1478 997 OFFCURVE",
"1414 1110 CURVE SMOOTH",
"1286 1336 OFFCURVE",
"1061 1476 OFFCURVE",
"801 1476 CURVE SMOOTH",
"670 1476 OFFCURVE",
"551 1443 OFFCURVE",
"444 1378 CURVE SMOOTH",
"229 1246 OFFCURVE",
"91 1010 OFFCURVE",
"91 729 CURVE SMOOTH"
);
},
{
closed = 1;
nodes = (
"206 848 OFFCURVE",
"233 954 OFFCURVE",
"286 1049 CURVE SMOOTH",
"393 1238 OFFCURVE",
"581 1357 OFFCURVE",
"801 1357 CURVE SMOOTH",
"910 1357 OFFCURVE",
"1009 1329 OFFCURVE",
"1099 1274 CURVE SMOOTH",
"1279 1163 OFFCURVE",
"1394 966 OFFCURVE",
"1394 729 CURVE SMOOTH",
"1394 610 OFFCURVE",
"1367 503 OFFCURVE",
"1314 408 CURVE SMOOTH",
"1207 217 OFFCURVE",
"1018 98 OFFCURVE",
"801 98 CURVE SMOOTH",
"691 98 OFFCURVE",
"591 126 OFFCURVE",
"501 182 CURVE SMOOTH",
"321 293 OFFCURVE",
"206 492 OFFCURVE",
"206 729 CURVE SMOOTH"
);
},
{
closed = 1;
nodes = (
"916 655 OFFCURVE",
"964 608 OFFCURVE",
"964 512 CURVE SMOOTH",
"964 416 OFFCURVE",
"964 350 OFFCURVE",
"977 317 CURVE",
"1122 317 LINE",
"1122 333 LINE",
"1111 362 OFFCURVE",
"1105 404 OFFCURVE",
"1105 460 CURVE SMOOTH",
"1105 517 LINE",
"1104 621 OFFCURVE",
"1063 689 OFFCURVE",
"982 722 CURVE",
"1067 765 OFFCURVE",
"1110 828 OFFCURVE",
"1110 910 CURVE SMOOTH",
"1110 1081 OFFCURVE",
"986 1165 OFFCURVE",
"789 1165 CURVE SMOOTH",
"512 1165 LINE",
"512 317 LINE",
"653 317 LINE",
"653 655 LINE",
"816 655 LINE SMOOTH"
);
},
{
closed = 1;
nodes = (
"924 1038 OFFCURVE",
"970 1003 OFFCURVE",
"970 904 CURVE SMOOTH",
"970 827 OFFCURVE",
"894 784 OFFCURVE",
"810 783 CURVE SMOOTH",
"653 783 LINE",
"653 1038 LINE",
"789 1038 LINE SMOOTH"
);
}
);
width = 1610;
}
);
note = registered;
unicode = 00AE;
},
{
glyphname = macron;
lastChange = "2017-04-17 15:00:40 +0000";
layers = (
{
layerId = "EFC0C7B3-D173-4BF6-BF18-C95D96D5B447";
paths = (
{
closed = 1;
nodes = (
"143 1303 LINE",
"814 1303 LINE",
"814 1445 LINE",
"143 1445 LINE"
);
}
);
width = 939;
}
);
note = macron;
unicode = 00AF;
},
{
glyphname = degree;
lastChange = "2017-04-17 15:00:40 +0000";
layers = (
{
layerId = "EFC0C7B3-D173-4BF6-BF18-C95D96D5B447";
paths = (
{
closed = 1;
nodes = (
"131 1074 OFFCURVE",
"247 960 OFFCURVE",
"386 960 CURVE SMOOTH",
"525 960 OFFCURVE",
"637 1074 OFFCURVE",
"637 1217 CURVE SMOOTH",
"637 1360 OFFCURVE",
"525 1477 OFFCURVE",
"386 1477 CURVE SMOOTH",
"247 1477 OFFCURVE",
"131 1360 OFFCURVE",
"131 1217 CURVE SMOOTH"
);
},
{
closed = 1;
nodes = (
"255 1292 OFFCURVE",
"314 1349 OFFCURVE",
"386 1349 CURVE SMOOTH",
"458 1349 OFFCURVE",
"513 1292 OFFCURVE",
"513 1217 CURVE SMOOTH",
"513 1144 OFFCURVE",
"458 1088 OFFCURVE",
"386 1088 CURVE SMOOTH",
"314 1088 OFFCURVE",
"255 1144 OFFCURVE",
"255 1217 CURVE SMOOTH"
);
}
);
width = 765;
}
);
note = degree;
unicode = 00B0;
},
{
glyphname = plusminus;
lastChange = "2017-04-17 15:00:40 +0000";
layers = (
{
layerId = "EFC0C7B3-D173-4BF6-BF18-C95D96D5B447";
paths = (
{
closed = 1;
nodes = (
"650 855 LINE",
"650 1267 LINE",
"483 1267 LINE",
"483 855 LINE",
"97 855 LINE",
"97 703 LINE",
"483 703 LINE",
"483 289 LINE",
"650 289 LINE",
"650 703 LINE",
"1013 703 LINE",
"1013 855 LINE"
);
},
{
closed = 1;
nodes = (
"136 1 LINE",
"971 1 LINE",
"971 152 LINE",
"136 152 LINE"
);
}
);
width = 1095;
}
);
note = plusminus;
unicode = 00B1;
},
{
glyphname = twosuperior;
lastChange = "2017-04-17 15:00:40 +0000";
layers = (
{
layerId = "EFC0C7B3-D173-4BF6-BF18-C95D96D5B447";
paths = (
{
closed = 1;
nodes = (
"460 941 LINE",
"577 1046 OFFCURVE",
"652 1124 OFFCURVE",
"652 1231 CURVE SMOOTH",
"652 1376 OFFCURVE",
"545 1467 OFFCURVE",
"366 1467 CURVE SMOOTH",
"178 1467 OFFCURVE",
"66 1349 OFFCURVE",
"66 1206 CURVE",
"224 1206 LINE",
"224 1282 OFFCURVE",
"270 1339 OFFCURVE",
"370 1339 CURVE SMOOTH",
"449 1339 OFFCURVE",
"493 1293 OFFCURVE",
"493 1229 CURVE SMOOTH",
"493 1184 OFFCURVE",
"458 1128 OFFCURVE",
"389 1061 CURVE SMOOTH",
"85 775 LINE",
"85 667 LINE",
"683 667 LINE",
"683 795 LINE",
"285 795 LINE"
);
}
);
width = 751;
}
);
note = twosuperior;
unicode = 00B2;
},
{
glyphname = threesuperior;
lastChange = "2017-04-17 15:00:40 +0000";
layers = (
{
layerId = "EFC0C7B3-D173-4BF6-BF18-C95D96D5B447";
paths = (
{
closed = 1;
nodes = (
"459 1009 OFFCURVE",
"509 970 OFFCURVE",
"509 895 CURVE SMOOTH",
"509 821 OFFCURVE",
"461 784 OFFCURVE",
"366 784 CURVE SMOOTH",
"278 784 OFFCURVE",
"220 830 OFFCURVE",
"220 890 CURVE",
"63 890 LINE",
"63 727 OFFCURVE",
"210 656 OFFCURVE",
"361 656 CURVE SMOOTH",
"536 656 OFFCURVE",
"667 740 OFFCURVE",
"667 887 CURVE SMOOTH",
"667 982 OFFCURVE",
"618 1044 OFFCURVE",
"519 1072 CURVE",
"608 1107 OFFCURVE",
"653 1164 OFFCURVE",
"653 1243 CURVE SMOOTH",
"653 1388 OFFCURVE",
"533 1467 OFFCURVE",
"360 1467 CURVE SMOOTH",
"200 1467 OFFCURVE",
"74 1382 OFFCURVE",
"74 1246 CURVE",
"231 1246 LINE",
"231 1303 OFFCURVE",
"287 1339 OFFCURVE",
"363 1339 CURVE SMOOTH",
"455 1339 OFFCURVE",
"496 1294 OFFCURVE",
"496 1235 CURVE SMOOTH",
"496 1164 OFFCURVE",
"449 1127 OFFCURVE",
"355 1126 CURVE SMOOTH",
"266 1126 LINE",
"266 1011 LINE",
"358 1011 LINE SMOOTH"
);
}
);
width = 751;
}
);
note = threesuperior;
unicode = 00B3;
},
{
glyphname = acute;
lastChange = "2017-04-17 15:00:40 +0000";
layers = (
{
layerId = "EFC0C7B3-D173-4BF6-BF18-C95D96D5B447";
paths = (
{
closed = 1;
nodes = (
"540 1536 LINE",
"317 1536 LINE",
"123 1242 LINE",
"272 1242 LINE"
);
}
);
width = 642;
}
);
note = acute;
unicode = 00B4;
},
{
glyphname = mu;
lastChange = "2017-04-17 15:00:40 +0000";
layers = (
{
layerId = "EFC0C7B3-D173-4BF6-BF18-C95D96D5B447";
paths = (
{
closed = 1;
nodes = (
"682 -21 OFFCURVE",
"770 24 OFFCURVE",
"831 115 CURVE",
"839 0 LINE",
"1006 0 LINE",
"1006 1082 LINE",
"821 1082 LINE",
"821 284 LINE",
"780 182 OFFCURVE",
"693 131 OFFCURVE",
"560 131 CURVE SMOOTH",
"439 131 OFFCURVE",
"342 186 OFFCURVE",
"339 446 CURVE",
"339 1082 LINE",
"155 1082 LINE",
"155 -416 LINE",
"339 -416 LINE",
"339 53 LINE",
"393 4 OFFCURVE",
"469 -21 OFFCURVE",
"568 -21 CURVE SMOOTH"
);
}
);
width = 1161;
}
);
note = mu;
unicode = 00B5;
},
{
glyphname = paragraph;
lastChange = "2017-04-17 15:00:40 +0000";
layers = (
{
layerId = "EFC0C7B3-D173-4BF6-BF18-C95D96D5B447";
paths = (
{
closed = 1;
nodes = (
"560 1456 LINE SMOOTH",
"241 1456 OFFCURVE",
"68 1256 OFFCURVE",
"68 988 CURVE SMOOTH",
"68 720 OFFCURVE",
"240 523 OFFCURVE",
"553 520 CURVE SMOOTH",
"647 520 LINE",
"647 0 LINE",
"833 0 LINE",
"833 1456 LINE"
);
}
);
width = 1002;
}
);
note = paragraph;
unicode = 00B6;
},
{
glyphname = periodcentered;
lastChange = "2017-04-17 15:00:40 +0000";
layers = (
{
layerId = "EFC0C7B3-D173-4BF6-BF18-C95D96D5B447";
paths = (
{
closed = 1;
nodes = (
"148 668 OFFCURVE",
"187 620 OFFCURVE",
"262 620 CURVE SMOOTH",
"337 620 OFFCURVE",
"377 668 OFFCURVE",
"377 729 CURVE SMOOTH",
"377 792 OFFCURVE",
"337 841 OFFCURVE",
"262 841 CURVE SMOOTH",
"187 841 OFFCURVE",
"148 792 OFFCURVE",
"148 729 CURVE SMOOTH"
);
}
);
width = 535;
}
);
note = periodcentered;
unicode = 00B7;
},
{
glyphname = cedilla;
lastChange = "2017-04-17 15:00:40 +0000";
layers = (
{
layerId = "EFC0C7B3-D173-4BF6-BF18-C95D96D5B447";
paths = (
{
closed = 1;
nodes = (
"233 -144 OFFCURVE",
"282 -164 OFFCURVE",
"282 -229 CURVE SMOOTH",
"282 -300 OFFCURVE",
"208 -328 OFFCURVE",
"116 -328 CURVE",
"123 -435 LINE",
"322 -435 OFFCURVE",
"426 -351 OFFCURVE",
"426 -226 CURVE SMOOTH",
"426 -110 OFFCURVE",
"350 -66 OFFCURVE",
"273 -53 CURVE",
"285 0 LINE",
"152 0 LINE",
"121 -135 LINE"
);
}
);
width = 508;
}
);
note = cedilla;
unicode = 00B8;
},
{
glyphname = onesuperior;
lastChange = "2017-04-17 15:00:40 +0000";
layers = (
{
layerId = "EFC0C7B3-D173-4BF6-BF18-C95D96D5B447";
paths = (
{
closed = 1;
nodes = (
"123 1340 LINE",
"123 1211 LINE",
"339 1268 LINE",
"339 667 LINE",
"495 667 LINE",
"495 1456 LINE",
"477 1456 LINE"
);
}
);
width = 751;
}
);
note = onesuperior;
unicode = 00B9;
},
{
glyphname = ordmasculine;
lastChange = "2017-04-17 15:00:40 +0000";
layers = (
{
layerId = "EFC0C7B3-D173-4BF6-BF18-C95D96D5B447";
paths = (
{
closed = 1;
nodes = (
"123 836 OFFCURVE",
"255 691 OFFCURVE",
"467 691 CURVE SMOOTH",
"676 691 OFFCURVE",
"807 836 OFFCURVE",
"807 1043 CURVE SMOOTH",
"807 1124 LINE SMOOTH",
"807 1329 OFFCURVE",
"677 1477 OFFCURVE",
"465 1477 CURVE SMOOTH",
"256 1477 OFFCURVE",
"123 1329 OFFCURVE",
"123 1124 CURVE SMOOTH",
"123 1043 LINE SMOOTH"
);
},
{
closed = 1;
nodes = (
"286 1243 OFFCURVE",
"344 1336 OFFCURVE",
"465 1336 CURVE SMOOTH",
"586 1336 OFFCURVE",
"645 1243 OFFCURVE",
"645 1124 CURVE SMOOTH",
"645 1043 LINE SMOOTH",
"645 922 OFFCURVE",
"586 830 OFFCURVE",
"467 830 CURVE SMOOTH",
"344 830 OFFCURVE",
"286 922 OFFCURVE",
"286 1043 CURVE SMOOTH",
"286 1124 LINE SMOOTH"
);
}
);
width = 932;
}
);
note = ordmasculine;
unicode = 00BA;
},
{
glyphname = guillemotright;
lastChange = "2017-04-17 15:00:40 +0000";
layers = (
{
layerId = "EFC0C7B3-D173-4BF6-BF18-C95D96D5B447";
paths = (
{
closed = 1;
nodes = (
"361 551 LINE",
"103 153 LINE",
"245 153 LINE",
"540 541 LINE",
"540 560 LINE",
"245 949 LINE",
"103 949 LINE"
);
},
{
closed = 1;
nodes = (
"710 551 LINE",
"452 153 LINE",
"594 153 LINE",
"889 541 LINE",
"889 560 LINE",
"594 949 LINE",
"452 949 LINE"
);
}
);
width = 960;
}
);
note = guillemotright;
unicode = 00BB;
},
{
glyphname = onequarter;
lastChange = "2017-04-17 15:00:40 +0000";
layers = (
{
layerId = "EFC0C7B3-D173-4BF6-BF18-C95D96D5B447";
paths = (
{
closed = 1;
nodes = (
"85 1337 LINE",
"85 1208 LINE",
"301 1265 LINE",
"301 664 LINE",
"457 664 LINE",
"457 1453 LINE",
"439 1453 LINE"
);
},
{
closed = 1;
nodes = (
"340 185 LINE",
"444 119 LINE",
"1155 1257 LINE",
"1051 1323 LINE"
);
},
{
closed = 1;
nodes = (
"1161 170 LINE",
"1161 0 LINE",
"1318 0 LINE",
"1318 170 LINE",
"1426 170 LINE",
"1426 300 LINE",
"1318 300 LINE",
"1318 789 LINE",
"1158 789 LINE",
"780 272 LINE",
"787 170 LINE"
);
},
{
closed = 1;
nodes = (
"1161 587 LINE",
"1161 300 LINE",
"938 300 LINE",
"1145 560 LINE"
);
}
);
width = 1500;
}
);
note = onequarter;
unicode = 00BC;
},
{
glyphname = onehalf;
lastChange = "2017-04-17 15:00:40 +0000";
layers = (
{
layerId = "EFC0C7B3-D173-4BF6-BF18-C95D96D5B447";
paths = (
{
closed = 1;
nodes = (
"296 185 LINE",
"400 119 LINE",
"1111 1257 LINE",
"1007 1323 LINE"
);
},
{
closed = 1;
nodes = (
"80 1337 LINE",
"80 1208 LINE",
"296 1265 LINE",
"296 664 LINE",
"452 664 LINE",
"452 1453 LINE",
"434 1453 LINE"
);
},
{
closed = 1;
nodes = (
"1258 274 LINE",
"1375 381 OFFCURVE",
"1450 457 OFFCURVE",
"1450 564 CURVE SMOOTH",
"1450 709 OFFCURVE",
"1343 800 OFFCURVE",
"1164 800 CURVE SMOOTH",
"976 800 OFFCURVE",
"864 682 OFFCURVE",
"864 539 CURVE",
"1022 539 LINE",
"1022 615 OFFCURVE",
"1068 672 OFFCURVE",
"1168 672 CURVE SMOOTH",
"1247 672 OFFCURVE",
"1291 626 OFFCURVE",
"1291 562 CURVE SMOOTH",
"1291 517 OFFCURVE",
"1256 461 OFFCURVE",
"1187 394 CURVE SMOOTH",
"883 108 LINE",
"883 0 LINE",
"1481 0 LINE",
"1481 128 LINE",
"1083 128 LINE"
);
}
);
width = 1589;
}
);
note = onehalf;
unicode = 00BD;
},
{
glyphname = threequarters;
lastChange = "2017-04-17 15:00:40 +0000";
layers = (
{
layerId = "EFC0C7B3-D173-4BF6-BF18-C95D96D5B447";
paths = (
{
closed = 1;
nodes = (
"467 185 LINE",
"571 119 LINE",
"1282 1257 LINE",
"1178 1323 LINE"
);
},
{
closed = 1;
nodes = (
"1253 170 LINE",
"1253 0 LINE",
"1410 0 LINE",
"1410 170 LINE",
"1518 170 LINE",
"1518 300 LINE",
"1410 300 LINE",
"1410 789 LINE",
"1250 789 LINE",
"872 272 LINE",
"879 170 LINE"
);
},
{
closed = 1;
nodes = (
"1253 587 LINE",
"1253 300 LINE",
"1030 300 LINE",
"1237 560 LINE"
);
},
{
closed = 1;
nodes = (
"508 1009 OFFCURVE",
"558 970 OFFCURVE",
"558 895 CURVE SMOOTH",
"558 821 OFFCURVE",
"510 784 OFFCURVE",
"415 784 CURVE SMOOTH",
"327 784 OFFCURVE",
"269 830 OFFCURVE",
"269 890 CURVE",
"112 890 LINE",
"112 727 OFFCURVE",
"259 656 OFFCURVE",
"410 656 CURVE SMOOTH",
"585 656 OFFCURVE",
"716 740 OFFCURVE",
"716 887 CURVE SMOOTH",
"716 982 OFFCURVE",
"667 1044 OFFCURVE",
"568 1072 CURVE",
"657 1107 OFFCURVE",
"702 1164 OFFCURVE",
"702 1243 CURVE SMOOTH",
"702 1390 OFFCURVE",
"582 1467 OFFCURVE",
"409 1467 CURVE SMOOTH",
"249 1467 OFFCURVE",
"123 1382 OFFCURVE",
"123 1246 CURVE",
"280 1246 LINE",
"280 1303 OFFCURVE",
"336 1339 OFFCURVE",
"412 1339 CURVE SMOOTH",
"504 1339 OFFCURVE",
"545 1294 OFFCURVE",
"545 1235 CURVE SMOOTH",
"545 1164 OFFCURVE",
"498 1127 OFFCURVE",
"404 1126 CURVE SMOOTH",
"315 1126 LINE",
"315 1011 LINE",
"407 1011 LINE SMOOTH"
);
}
);
width = 1593;
}
);
note = threequarters;
unicode = 00BE;
},
{
glyphname = questiondown;
lastChange = "2017-04-17 15:00:40 +0000";
layers = (
{
layerId = "EFC0C7B3-D173-4BF6-BF18-C95D96D5B447";
paths = (
{
closed = 1;
nodes = (
"597 1056 OFFCURVE",
"559 1102 OFFCURVE",
"488 1102 CURVE SMOOTH",
"416 1102 OFFCURVE",
"378 1056 OFFCURVE",
"378 997 CURVE SMOOTH",
"378 938 OFFCURVE",
"416 891 OFFCURVE",
"488 891 CURVE SMOOTH",
"559 891 OFFCURVE",
"597 938 OFFCURVE",
"597 997 CURVE SMOOTH"
);
},
{
closed = 1;
nodes = (
"403 572 OFFCURVE",
"373 489 OFFCURVE",
"314 432 CURVE SMOOTH",
"195 317 OFFCURVE",
"68 175 OFFCURVE",
"68 -6 CURVE SMOOTH",
"68 -246 OFFCURVE",
"218 -386 OFFCURVE",
"478 -386 CURVE SMOOTH",
"709 -386 OFFCURVE",
"886 -247 OFFCURVE",
"889 -20 CURVE",
"704 -20 LINE",
"703 -159 OFFCURVE",
"595 -224 OFFCURVE",
"478 -224 CURVE SMOOTH",
"329 -224 OFFCURVE",
"254 -149 OFFCURVE",
"254 0 CURVE SMOOTH",
"254 129 OFFCURVE",
"298 167 OFFCURVE",
"421 300 CURVE SMOOTH",
"544 432 OFFCURVE",
"588 489 OFFCURVE",
"589 680 CURVE",
"403 680 LINE"
);
}
);
width = 970;
}
);
note = questiondown;
unicode = 00BF;
},
{
glyphname = AE;
lastChange = "2017-04-17 15:00:40 +0000";
layers = (
{
layerId = "EFC0C7B3-D173-4BF6-BF18-C95D96D5B447";
paths = (
{
closed = 1;
nodes = (
"1153 682 LINE",
"1737 682 LINE",
"1737 834 LINE",
"1147 834 LINE",
"1127 1304 LINE",
"1818 1304 LINE",
"1818 1456 LINE",
"866 1456 LINE",
"-15 0 LINE",
"212 0 LINE",
"417 353 LINE",
"981 353 LINE",
"996 0 LINE",
"1880 0 LINE",
"1880 152 LINE",
"1176 152 LINE"
);
},
{
closed = 1;
nodes = (
"974 528 LINE",
"518 528 LINE",
"943 1261 LINE"
);
}
);
width = 1914;
}
);
note = AE;
unicode = 00C6;
},
{
glyphname = multiply;
lastChange = "2017-04-17 15:00:40 +0000";
layers = (
{
layerId = "EFC0C7B3-D173-4BF6-BF18-C95D96D5B447";
paths = (
{
closed = 1;
nodes = (
"987 1000 LINE",
"868 1124 LINE",
"540 789 LINE",
"211 1124 LINE",
"92 1000 LINE",
"419 666 LINE",
"89 329 LINE",
"208 206 LINE",
"540 544 LINE",
"871 206 LINE",
"990 329 LINE",
"660 666 LINE"
);
}
);
width = 1093;
}
);
note = multiply;
unicode = 00D7;
},
{
glyphname = Oslash;
lastChange = "2017-04-17 15:00:40 +0000";
layers = (
{
layerId = "EFC0C7B3-D173-4BF6-BF18-C95D96D5B447";
paths = (
{
closed = 1;
nodes = (
"1061 -20 OFFCURVE",
"1290 245 OFFCURVE",
"1290 682 CURVE SMOOTH",
"1290 787 LINE",
"1288 982 OFFCURVE",
"1242 1140 OFFCURVE",
"1151 1262 CURVE",
"1309 1516 LINE",
"1169 1516 LINE",
"1066 1352 LINE",
"968 1435 OFFCURVE",
"847 1476 OFFCURVE",
"704 1476 CURVE SMOOTH",
"359 1476 OFFCURVE",
"119 1210 OFFCURVE",
"119 774 CURVE SMOOTH",
"119 692 LINE SMOOTH",
"119 451 OFFCURVE",
"182 267 OFFCURVE",
"309 139 CURVE",
"164 -93 LINE",
"307 -93 LINE",
"404 63 LINE",
"492 8 OFFCURVE",
"593 -20 OFFCURVE",
"706 -20 CURVE SMOOTH"
);
},
{
closed = 1;
nodes = (
"310 1123 OFFCURVE",
"465 1312 OFFCURVE",
"704 1312 CURVE SMOOTH",
"816 1312 OFFCURVE",
"905 1275 OFFCURVE",
"972 1201 CURVE",
"407 297 LINE",
"342 392 OFFCURVE",
"310 520 OFFCURVE",
"310 682 CURVE SMOOTH",
"310 776 LINE SMOOTH"
);
},
{
closed = 1;
nodes = (
"1099 333 OFFCURVE",
"957 143 OFFCURVE",
"706 143 CURVE SMOOTH",
"625 143 OFFCURVE",
"554 164 OFFCURVE",
"494 207 CURVE",
"1043 1089 LINE",
"1080 1005 OFFCURVE",
"1099 901 OFFCURVE",
"1099 776 CURVE SMOOTH",
"1099 682 LINE SMOOTH"
);
}
);
width = 1409;
}
);
leftKerningGroup = C;
note = Oslash;
unicode = 00D8;
},
{
glyphname = Thorn;
lastChange = "2017-04-17 15:00:40 +0000";
layers = (
{
layerId = "EFC0C7B3-D173-4BF6-BF18-C95D96D5B447";
paths = (
{
closed = 1;
nodes = (
"945 314 OFFCURVE",
"1117 494 OFFCURVE",
"1117 738 CURVE SMOOTH",
"1117 982 OFFCURVE",
"946 1162 OFFCURVE",
"634 1163 CURVE SMOOTH",
"352 1163 LINE",
"352 1456 LINE",
"167 1456 LINE",
"167 0 LINE",
"352 0 LINE",
"352 314 LINE",
"630 314 LINE SMOOTH"
);
},
{
closed = 1;
nodes = (
"845 1012 OFFCURVE",
"932 876 OFFCURVE",
"932 736 CURVE SMOOTH",
"932 600 OFFCURVE",
"845 465 OFFCURVE",
"630 465 CURVE SMOOTH",
"352 465 LINE",
"352 1012 LINE",
"630 1012 LINE SMOOTH"
);
}
);
width = 1210;
}
);
note = Thorn;
unicode = 00DE;
},
{
glyphname = germandbls;
lastChange = "2017-04-17 15:00:40 +0000";
layers = (
{
layerId = "EFC0C7B3-D173-4BF6-BF18-C95D96D5B447";
paths = (
{
closed = 1;
nodes = (
"326 1309 OFFCURVE",
"399 1403 OFFCURVE",
"543 1403 CURVE SMOOTH",
"652 1403 OFFCURVE",
"734 1334 OFFCURVE",
"734 1201 CURVE SMOOTH",
"734 1151 OFFCURVE",
"723 1108 OFFCURVE",
"701 1072 CURVE SMOOTH",
"630 958 LINE SMOOTH",
"607 921 OFFCURVE",
"596 875 OFFCURVE",
"596 822 CURVE SMOOTH",
"596 686 OFFCURVE",
"677 604 OFFCURVE",
"770 535 CURVE SMOOTH",
"863 466 OFFCURVE",
"945 403 OFFCURVE",
"945 308 CURVE SMOOTH",
"945 209 OFFCURVE",
"882 131 OFFCURVE",
"726 131 CURVE SMOOTH",
"633 131 OFFCURVE",
"533 178 OFFCURVE",
"488 207 CURVE",
"446 52 LINE",
"497 15 OFFCURVE",
"636 -20 OFFCURVE",
"745 -20 CURVE SMOOTH",
"969 -20 OFFCURVE",
"1130 89 OFFCURVE",
"1130 317 CURVE SMOOTH",
"1130 446 OFFCURVE",
"1048 528 OFFCURVE",
"956 597 CURVE SMOOTH",
"863 665 OFFCURVE",
"781 728 OFFCURVE",
"781 820 CURVE SMOOTH",
"781 865 OFFCURVE",
"792 904 OFFCURVE",
"813 937 CURVE SMOOTH",
"856 1002 OFFCURVE",
"909 1076 OFFCURVE",
"909 1217 CURVE SMOOTH",
"909 1448 OFFCURVE",
"750 1554 OFFCURVE",
"533 1554 CURVE SMOOTH",
"301 1554 OFFCURVE",
"141 1405 OFFCURVE",
"140 1116 CURVE SMOOTH",
"140 0 LINE",
"324 0 LINE",
"324 1120 LINE SMOOTH"
);
}
);
width = 1218;
}
);
note = germandbls;
unicode = 00DF;
},
{
glyphname = ae;
lastChange = "2017-04-17 15:00:40 +0000";
layers = (
{
layerId = "EFC0C7B3-D173-4BF6-BF18-C95D96D5B447";
paths = (
{
closed = 1;
nodes = (
"1511 193 OFFCURVE",
"1422 131 OFFCURVE",
"1263 131 CURVE SMOOTH",
"1040 131 OFFCURVE",
"940 293 OFFCURVE",
"933 498 CURVE",
"1661 498 LINE",
"1661 616 LINE SMOOTH",
"1661 915 OFFCURVE",
"1506 1102 OFFCURVE",
"1219 1102 CURVE SMOOTH",
"1078 1103 OFFCURVE",
"964 1048 OFFCURVE",
"876 936 CURVE",
"811 1047 OFFCURVE",
"697 1102 OFFCURVE",
"535 1102 CURVE SMOOTH",
"280 1102 OFFCURVE",
"107 965 OFFCURVE",
"107 778 CURVE",
"291 760 LINE",
"291 863 OFFCURVE",
"386 950 OFFCURVE",
"535 950 CURVE SMOOTH",
"672 950 OFFCURVE",
"749 863 OFFCURVE",
"749 720 CURVE SMOOTH",
"749 636 LINE",
"527 636 LINE SMOOTH",
"232 636 OFFCURVE",
"79 515 OFFCURVE",
"79 304 CURVE SMOOTH",
"79 107 OFFCURVE",
"205 -21 OFFCURVE",
"434 -21 CURVE SMOOTH",
"657 -21 OFFCURVE",
"797 71 OFFCURVE",
"865 160 CURVE",
"950 47 OFFCURVE",
"1084 -21 OFFCURVE",
"1263 -21 CURVE SMOOTH",
"1370 -21 OFFCURVE",
"1455 -5 OFFCURVE",
"1517 28 CURVE SMOOTH",
"1579 60 OFFCURVE",
"1621 85 OFFCURVE",
"1643 102 CURVE",
"1578 238 LINE"
);
},
{
closed = 1;
nodes = (
"1406 950 OFFCURVE",
"1475 822 OFFCURVE",
"1475 671 CURVE SMOOTH",
"1475 640 LINE",
"938 640 LINE",
"959 817 OFFCURVE",
"1058 950 OFFCURVE",
"1219 950 CURVE SMOOTH"
);
},
{
closed = 1;
nodes = (
"330 130 OFFCURVE",
"264 205 OFFCURVE",
"264 300 CURVE SMOOTH",
"264 404 OFFCURVE",
"354 496 OFFCURVE",
"529 496 CURVE SMOOTH",
"749 496 LINE",
"749 258 LINE",
"688 193 OFFCURVE",
"571 130 OFFCURVE",
"470 130 CURVE SMOOTH"
);
}
);
width = 1730;
}
);
note = ae;
unicode = 00E6;
},
{
glyphname = eth;
lastChange = "2017-04-17 15:00:40 +0000";
layers = (
{
layerId = "EFC0C7B3-D173-4BF6-BF18-C95D96D5B447";
paths = (
{
closed = 1;
nodes = (
"1070 909 OFFCURVE",
"977 1136 OFFCURVE",
"820 1303 CURVE",
"988 1417 LINE",
"915 1516 LINE",
"727 1388 LINE",
"610 1481 OFFCURVE",
"471 1545 OFFCURVE",
"312 1581 CURVE",
"255 1421 LINE",
"376 1390 OFFCURVE",
"481 1343 OFFCURVE",
"570 1281 CURVE",
"378 1151 LINE",
"451 1051 LINE",
"669 1200 LINE",
"763 1107 OFFCURVE",
"826 996 OFFCURVE",
"857 865 CURVE",
"786 933 OFFCURVE",
"686 978 OFFCURVE",
"574 978 CURVE SMOOTH",
"315 978 OFFCURVE",
"126 776 OFFCURVE",
"126 468 CURVE SMOOTH",
"126 196 OFFCURVE",
"321 -20 OFFCURVE",
"602 -20 CURVE SMOOTH",
"873 -20 OFFCURVE",
"1070 206 OFFCURVE",
"1070 535 CURVE SMOOTH",
"1070 633 LINE SMOOTH"
);
},
{
closed = 1;
nodes = (
"312 688 OFFCURVE",
"423 826 OFFCURVE",
"618 826 CURVE SMOOTH",
"757 826 OFFCURVE",
"845 762 OFFCURVE",
"882 694 CURVE",
"884 635 LINE",
"884 535 LINE SMOOTH",
"884 304 OFFCURVE",
"778 132 OFFCURVE",
"606 132 CURVE SMOOTH",
"417 132 OFFCURVE",
"312 303 OFFCURVE",
"312 468 CURVE SMOOTH"
);
}
);
width = 1201;
}
);
note = eth;
unicode = 00F0;
},
{
glyphname = divide;
lastChange = "2017-04-17 15:00:40 +0000";
layers = (
{
layerId = "EFC0C7B3-D173-4BF6-BF18-C95D96D5B447";
paths = (
{
closed = 1;
nodes = (
"462 1037 OFFCURVE",
"501 989 OFFCURVE",
"576 989 CURVE SMOOTH",
"651 989 OFFCURVE",
"691 1037 OFFCURVE",
"691 1098 CURVE SMOOTH",
"691 1162 OFFCURVE",
"651 1210 OFFCURVE",
"576 1210 CURVE SMOOTH",
"501 1210 OFFCURVE",
"462 1162 OFFCURVE",
"462 1098 CURVE SMOOTH"
);
},
{
closed = 1;
nodes = (
"71 600 LINE",
"1069 600 LINE",
"1069 784 LINE",
"71 784 LINE"
);
},
{
closed = 1;
nodes = (
"462 221 OFFCURVE",
"501 172 OFFCURVE",
"576 172 CURVE SMOOTH",
"651 172 OFFCURVE",
"691 221 OFFCURVE",
"691 282 CURVE SMOOTH",
"691 345 OFFCURVE",
"651 394 OFFCURVE",
"576 394 CURVE SMOOTH",
"501 394 OFFCURVE",
"462 345 OFFCURVE",
"462 282 CURVE SMOOTH"
);
}
);
width = 1170;
}
);
note = divide;
unicode = 00F7;
},
{
glyphname = oslash;
lastChange = "2017-04-17 15:00:40 +0000";
layers = (
{
layerId = "EFC0C7B3-D173-4BF6-BF18-C95D96D5B447";
paths = (
{
closed = 1;
nodes = (
"888 -20 OFFCURVE",
"1076 216 OFFCURVE",
"1076 529 CURVE SMOOTH",
"1076 564 LINE",
"1073 757 OFFCURVE",
"1009 904 OFFCURVE",
"882 1004 CURVE",
"983 1209 LINE",
"860 1209 LINE",
"787 1061 LINE",
"725 1088 OFFCURVE",
"657 1102 OFFCURVE",
"583 1102 CURVE SMOOTH",
"280 1102 OFFCURVE",
"92 865 OFFCURVE",
"92 552 CURVE SMOOTH",
"92 520 LINE SMOOTH",
"94 319 OFFCURVE",
"163 169 OFFCURVE",
"298 69 CURVE",
"197 -135 LINE",
"320 -135 LINE",
"394 16 LINE",
"453 -8 OFFCURVE",
"516 -20 OFFCURVE",
"585 -20 CURVE SMOOTH"
);
},
{
closed = 1;
nodes = (
"277 764 OFFCURVE",
"379 950 OFFCURVE",
"583 950 CURVE SMOOTH",
"632 950 OFFCURVE",
"677 939 OFFCURVE",
"717 918 CURVE",
"374 224 LINE",
"309 297 OFFCURVE",
"277 399 OFFCURVE",
"277 529 CURVE SMOOTH",
"277 552 LINE SMOOTH"
);
},
{
closed = 1;
nodes = (
"890 311 OFFCURVE",
"786 132 OFFCURVE",
"585 132 CURVE SMOOTH",
"541 132 OFFCURVE",
"501 140 OFFCURVE",
"464 157 CURVE",
"803 845 LINE",
"862 771 OFFCURVE",
"891 673 OFFCURVE",
"891 552 CURVE SMOOTH",
"891 526 LINE SMOOTH"
);
}
);
width = 1161;
}
);
note = oslash;
unicode = 00F8;
},
{
glyphname = thorn;
lastChange = "2017-04-17 15:00:40 +0000";
layers = (
{
layerId = "EFC0C7B3-D173-4BF6-BF18-C95D96D5B447";
paths = (
{
closed = 1;
nodes = (
"912 -20 OFFCURVE",
"1064 213 OFFCURVE",
"1064 529 CURVE SMOOTH",
"1064 550 LINE SMOOTH",
"1064 881 OFFCURVE",
"914 1102 OFFCURVE",
"641 1102 CURVE SMOOTH",
"512 1102 OFFCURVE",
"410 1058 OFFCURVE",
"335 971 CURVE",
"335 1536 LINE",
"149 1536 LINE",
"149 -416 LINE",
"335 -416 LINE",
"335 105 LINE",
"411 22 OFFCURVE",
"514 -20 OFFCURVE",
"644 -20 CURVE SMOOTH"
);
},
{
closed = 1;
nodes = (
"788 946 OFFCURVE",
"878 765 OFFCURVE",
"878 550 CURVE SMOOTH",
"878 529 LINE SMOOTH",
"878 314 OFFCURVE",
"789 132 OFFCURVE",
"589 132 CURVE SMOOTH",
"476 132 OFFCURVE",
"392 181 OFFCURVE",
"335 279 CURVE",
"335 797 LINE",
"391 896 OFFCURVE",
"475 946 OFFCURVE",
"587 946 CURVE SMOOTH"
);
}
);
width = 1180;
}
);
note = thorn;
rightKerningGroup = b;
unicode = 00FE;
},
{
glyphname = dcroat;
lastChange = "2017-04-17 15:00:40 +0000";
layers = (
{
layerId = "EFC0C7B3-D173-4BF6-BF18-C95D96D5B447";
paths = (
{
closed = 1;
nodes = (
"1009 1233 LINE",
"1197 1233 LINE",
"1197 1385 LINE",
"1009 1385 LINE",
"1009 1536 LINE",
"823 1536 LINE",
"823 1385 LINE",
"560 1385 LINE",
"560 1233 LINE",
"823 1233 LINE",
"823 974 LINE",
"750 1059 OFFCURVE",
"650 1102 OFFCURVE",
"523 1102 CURVE SMOOTH",
"266 1102 OFFCURVE",
"95 881 OFFCURVE",
"95 550 CURVE SMOOTH",
"95 521 LINE SMOOTH",
"98 210 OFFCURVE",
"268 -20 OFFCURVE",
"521 -20 CURVE SMOOTH",
"653 -20 OFFCURVE",
"756 25 OFFCURVE",
"830 116 CURVE",
"839 0 LINE",
"1009 0 LINE"
);
},
{
closed = 1;
nodes = (
"281 765 OFFCURVE",
"368 946 OFFCURVE",
"569 946 CURVE SMOOTH",
"683 946 OFFCURVE",
"768 895 OFFCURVE",
"823 792 CURVE",
"823 294 LINE",
"767 189 OFFCURVE",
"682 137 OFFCURVE",
"567 137 CURVE SMOOTH",
"367 137 OFFCURVE",
"281 314 OFFCURVE",
"281 529 CURVE SMOOTH",
"281 550 LINE SMOOTH"
);
}
);
width = 1224;
}
);
note = dcroat;
unicode = 0111;
},
{
glyphname = Hbar;
lastChange = "2017-04-17 15:00:40 +0000";
layers = (
{
layerId = "EFC0C7B3-D173-4BF6-BF18-C95D96D5B447";
paths = (
{
closed = 1;
nodes = (
"1283 1024 LINE",
"1417 1024 LINE",
"1417 1167 LINE",
"1283 1167 LINE",
"1283 1456 LINE",
"1090 1456 LINE",
"1090 1167 LINE",
"356 1167 LINE",
"356 1456 LINE",
"164 1456 LINE",
"164 1167 LINE",
"30 1167 LINE",
"30 1024 LINE",
"164 1024 LINE",
"164 0 LINE",
"356 0 LINE",
"356 673 LINE",
"1090 673 LINE",
"1090 0 LINE",
"1283 0 LINE"
);
},
{
closed = 1;
nodes = (
"1090 1024 LINE",
"1090 830 LINE",
"356 830 LINE",
"356 1024 LINE"
);
}
);
width = 1435;
}
);
note = Hbar;
unicode = 0126;
},
{
glyphname = dotlessi;
lastChange = "2017-04-17 15:00:40 +0000";
layers = (
{
layerId = "EFC0C7B3-D173-4BF6-BF18-C95D96D5B447";
paths = (
{
closed = 1;
nodes = (
"156 0 LINE",
"341 0 LINE",
"341 1082 LINE",
"156 1082 LINE"
);
}
);
width = 507;
}
);
note = dotlessi;
unicode = 0131;
},
{
glyphname = kgreenlandic;
lastChange = "2017-04-17 15:00:40 +0000";
layers = (
{
layerId = "EFC0C7B3-D173-4BF6-BF18-C95D96D5B447";
paths = (
{
closed = 1;
nodes = (
"600 558 LINE",
"1052 1082 LINE",
"828 1082 LINE",
"432 624 LINE",
"340 624 LINE",
"340 1082 LINE",
"155 1082 LINE",
"155 0 LINE",
"340 0 LINE",
"340 462 LINE",
"448 462 LINE",
"854 0 LINE",
"1088 0 LINE"
);
}
);
width = 1140;
}
);
note = kgreenlandic;
unicode = 0138;
},
{
glyphname = Lslash;
lastChange = "2017-04-17 15:00:40 +0000";
layers = (
{
layerId = "EFC0C7B3-D173-4BF6-BF18-C95D96D5B447";
paths = (
{
closed = 1;
nodes = (
"361 720 LINE",
"624 803 LINE",
"624 928 LINE",
"361 845 LINE",
"361 1456 LINE",
"169 1456 LINE",
"169 784 LINE",
"35 741 LINE",
"35 616 LINE",
"169 659 LINE",
"169 0 LINE",
"1052 0 LINE",
"1052 157 LINE",
"361 157 LINE"
);
}
);
width = 1103;
}
);
note = Lslash;
unicode = 0141;
},
{
glyphname = lslash;
lastChange = "2017-04-17 15:00:40 +0000";
layers = (
{
layerId = "EFC0C7B3-D173-4BF6-BF18-C95D96D5B447";
paths = (
{
closed = 1;
nodes = (
"364 869 LINE",
"364 1536 LINE",
"179 1536 LINE",
"179 798 LINE",
"35 743 LINE",
"35 621 LINE",
"179 676 LINE",
"179 0 LINE",
"364 0 LINE",
"364 747 LINE",
"523 808 LINE",
"523 930 LINE"
);
}
);
width = 554;
}
);
note = lslash;
unicode = 0142;
},
{
glyphname = Eng;
lastChange = "2017-04-17 15:00:40 +0000";
layers = (
{
layerId = "EFC0C7B3-D173-4BF6-BF18-C95D96D5B447";
paths = (
{
closed = 1;
nodes = (
"355 1129 LINE",
"1072 0 LINE",
"1072 -92 LINE SMOOTH",
"1070 -217 OFFCURVE",
"1024 -279 OFFCURVE",
"935 -279 CURVE SMOOTH",
"894 -279 OFFCURVE",
"862 -275 OFFCURVE",
"837 -266 CURVE",
"823 -420 LINE",
"858 -431 OFFCURVE",
"896 -437 OFFCURVE",
"938 -437 CURVE SMOOTH",
"1142 -437 OFFCURVE",
"1265 -312 OFFCURVE",
"1265 -84 CURVE SMOOTH",
"1265 1456 LINE",
"1072 1456 LINE",
"1072 327 LINE",
"355 1456 LINE",
"162 1456 LINE",
"162 0 LINE",
"355 0 LINE"
);
}
);
width = 1419;
}
);
note = Eng;
unicode = 014A;
},
{
glyphname = eng;
lastChange = "2017-04-17 15:00:40 +0000";
layers = (
{
layerId = "EFC0C7B3-D173-4BF6-BF18-C95D96D5B447";
paths = (
{
closed = 1;
nodes = (
"1008 980 OFFCURVE",
"867 1102 OFFCURVE",
"643 1102 CURVE SMOOTH",
"504 1102 OFFCURVE",
"396 1037 OFFCURVE",
"325 929 CURVE",
"312 1082 LINE",
"146 1082 LINE",
"146 0 LINE",
"331 0 LINE",
"331 812 LINE",
"384 901 OFFCURVE",
"470 946 OFFCURVE",
"588 946 CURVE SMOOTH",
"739 946 OFFCURVE",
"824 879 OFFCURVE",
"824 679 CURVE SMOOTH",
"824 -92 LINE SMOOTH",
"823 -214 OFFCURVE",
"777 -275 OFFCURVE",
"686 -275 CURVE SMOOTH",
"641 -275 OFFCURVE",
"607 -271 OFFCURVE",
"586 -263 CURVE",
"572 -420 LINE",
"607 -431 OFFCURVE",
"645 -437 OFFCURVE",
"686 -437 CURVE SMOOTH",
"889 -437 OFFCURVE",
"1009 -314 OFFCURVE",
"1009 -89 CURVE SMOOTH",
"1009 687 LINE"
);
}
);
width = 1161;
}
);
note = eng;
unicode = 014B;
},
{
glyphname = OE;
lastChange = "2017-04-17 15:00:40 +0000";
layers = (
{
layerId = "EFC0C7B3-D173-4BF6-BF18-C95D96D5B447";
paths = (
{
closed = 1;
nodes = (
"1069 673 LINE",
"1699 673 LINE",
"1699 830 LINE",
"1069 830 LINE",
"1069 1298 LINE",
"1791 1298 LINE",
"1791 1456 LINE",
"954 1456 LINE",
"835 1470 OFFCURVE",
"737 1477 OFFCURVE",
"660 1477 CURVE SMOOTH",
"329 1477 OFFCURVE",
"105 1233 OFFCURVE",
"105 880 CURVE SMOOTH",
"105 576 LINE SMOOTH",
"105 223 OFFCURVE",
"331 -21 OFFCURVE",
"662 -21 CURVE SMOOTH",
"738 -21 OFFCURVE",
"835 -14 OFFCURVE",
"954 0 CURVE",
"1801 0 LINE",
"1801 157 LINE",
"1069 157 LINE"
);
},
{
closed = 1;
nodes = (
"290 1173 OFFCURVE",
"433 1325 OFFCURVE",
"660 1325 CURVE SMOOTH",
"731 1325 OFFCURVE",
"803 1320 OFFCURVE",
"876 1310 CURVE",
"876 146 LINE",
"803 136 OFFCURVE",
"732 131 OFFCURVE",
"662 131 CURVE SMOOTH",
"435 131 OFFCURVE",
"290 285 OFFCURVE",
"290 576 CURVE SMOOTH",
"290 882 LINE SMOOTH"
);
}
);
width = 1953;
}
);
leftKerningGroup = C;
note = OE;
unicode = 0152;
},
{
glyphname = oe;
lastChange = "2017-04-17 15:00:40 +0000";
layers = (
{
layerId = "EFC0C7B3-D173-4BF6-BF18-C95D96D5B447";
paths = (
{
closed = 1;
nodes = (
"1608 167 OFFCURVE",
"1505 131 OFFCURVE",
"1379 131 CURVE SMOOTH",
"1184 131 OFFCURVE",
"1082 293 OFFCURVE",
"1075 498 CURVE",
"1792 498 LINE",
"1792 620 LINE SMOOTH",
"1792 903 OFFCURVE",
"1648 1102 OFFCURVE",
"1351 1102 CURVE SMOOTH",
"1203 1103 OFFCURVE",
"1065 1021 OFFCURVE",
"978 886 CURVE",
"897 1019 OFFCURVE",
"760 1102 OFFCURVE",
"579 1102 CURVE SMOOTH",
"278 1102 OFFCURVE",
"97 865 OFFCURVE",
"97 552 CURVE SMOOTH",
"97 519 LINE SMOOTH",
"101 211 OFFCURVE",
"281 -21 OFFCURVE",
"581 -21 CURVE SMOOTH",
"760 -21 OFFCURVE",
"895 61 OFFCURVE",
"976 192 CURVE",
"1060 60 OFFCURVE",
"1200 -21 OFFCURVE",
"1379 -21 CURVE SMOOTH",
"1575 -21 OFFCURVE",
"1696 49 OFFCURVE",
"1761 113 CURVE",
"1688 239 LINE"
);
},
{
closed = 1;
nodes = (
"1528 950 OFFCURVE",
"1607 820 OFFCURVE",
"1607 675 CURVE SMOOTH",
"1607 649 LINE",
"1081 649 LINE",
"1108 822 OFFCURVE",
"1211 950 OFFCURVE",
"1351 950 CURVE SMOOTH"
);
},
{
closed = 1;
nodes = (
"283 764 OFFCURVE",
"376 950 OFFCURVE",
"579 950 CURVE SMOOTH",
"786 950 OFFCURVE",
"879 764 OFFCURVE",
"879 552 CURVE SMOOTH",
"879 529 LINE SMOOTH",
"879 314 OFFCURVE",
"785 131 OFFCURVE",
"581 131 CURVE SMOOTH",
"376 131 OFFCURVE",
"283 314 OFFCURVE",
"283 529 CURVE SMOOTH",
"283 552 LINE SMOOTH"
);
}
);
width = 1860;
}
);
leftKerningGroup = c;
note = oe;
unicode = 0153;
},
{
glyphname = longs;
lastChange = "2017-04-17 15:00:40 +0000";
layers = (
{
layerId = "EFC0C7B3-D173-4BF6-BF18-C95D96D5B447";
paths = (
{
closed = 1;
nodes = (
"346 1335 OFFCURVE",
"407 1405 OFFCURVE",
"528 1405 CURVE SMOOTH",
"557 1405 OFFCURVE",
"588 1401 OFFCURVE",
"619 1394 CURVE",
"643 1536 LINE",
"586 1550 OFFCURVE",
"538 1557 OFFCURVE",
"499 1557 CURVE SMOOTH",
"290 1557 OFFCURVE",
"161 1429 OFFCURVE",
"161 1196 CURVE SMOOTH",
"161 0 LINE",
"346 0 LINE",
"346 1196 LINE SMOOTH"
);
}
);
width = 508;
}
);
note = longs;
unicode = 017F;
},
{
glyphname = uni0181;
lastChange = "2017-04-17 15:00:40 +0000";
layers = (
{
layerId = "EFC0C7B3-D173-4BF6-BF18-C95D96D5B447";
paths = (
{
closed = 1;
nodes = (
"29 1132 OFFCURVE",
"35 1093 OFFCURVE",
"46 1057 CURVE",
"196 1058 LINE",
"190 1076 OFFCURVE",
"187 1098 OFFCURVE",
"187 1125 CURVE SMOOTH",
"187 1239 OFFCURVE",
"249 1297 OFFCURVE",
"373 1298 CURVE",
"373 0 LINE",
"883 0 LINE SMOOTH",
"1174 0 OFFCURVE",
"1364 148 OFFCURVE",
"1364 420 CURVE SMOOTH",
"1364 584 OFFCURVE",
"1274 722 OFFCURVE",
"1110 767 CURVE",
"1243 824 OFFCURVE",
"1325 933 OFFCURVE",
"1325 1068 CURVE SMOOTH",
"1325 1339 OFFCURVE",
"1149 1456 OFFCURVE",
"850 1456 CURVE SMOOTH",
"373 1456 LINE",
"373 1456 LINE SMOOTH",
"144 1456 OFFCURVE",
"29 1362 OFFCURVE",
"29 1173 CURVE SMOOTH"
);
},
{
closed = 1;
nodes = (
"1042 1295 OFFCURVE",
"1132 1219 OFFCURVE",
"1132 1070 CURVE SMOOTH",
"1132 923 OFFCURVE",
"1021 836 OFFCURVE",
"856 836 CURVE SMOOTH",
"566 836 LINE",
"566 1298 LINE",
"862 1298 LINE SMOOTH"
);
},
{
closed = 1;
nodes = (
"1172 258 OFFCURVE",
"1066 157 OFFCURVE",
"883 157 CURVE SMOOTH",
"566 157 LINE",
"566 681 LINE",
"892 681 LINE SMOOTH",
"1088 681 OFFCURVE",
"1172 581 OFFCURVE",
"1172 418 CURVE SMOOTH"
);
}
);
width = 1480;
}
);
note = uni0181;
unicode = 0181;
},
{
glyphname = uni0183;
lastChange = "2017-04-17 15:00:40 +0000";
layers = (
{
layerId = "EFC0C7B3-D173-4BF6-BF18-C95D96D5B447";
paths = (
{
closed = 1;
nodes = (
"320 125 LINE",
"394 28 OFFCURVE",
"499 -20 OFFCURVE",
"636 -20 CURVE SMOOTH",
"904 -20 OFFCURVE",
"1057 213 OFFCURVE",
"1057 529 CURVE SMOOTH",
"1057 550 LINE SMOOTH",
"1057 881 OFFCURVE",
"906 1102 OFFCURVE",
"634 1102 CURVE SMOOTH",
"502 1102 OFFCURVE",
"399 1056 OFFCURVE",
"326 965 CURVE",
"326 1384 LINE",
"840 1384 LINE",
"840 1536 LINE",
"140 1536 LINE",
"140 0 LINE",
"310 0 LINE"
);
},
{
closed = 1;
nodes = (
"799 946 OFFCURVE",
"871 765 OFFCURVE",
"871 550 CURVE SMOOTH",
"871 529 LINE SMOOTH",
"871 314 OFFCURVE",
"790 137 OFFCURVE",
"590 137 CURVE SMOOTH",
"457 137 OFFCURVE",
"374 211 OFFCURVE",
"326 307 CURVE",
"326 778 LINE",
"373 873 OFFCURVE",
"453 946 OFFCURVE",
"588 946 CURVE SMOOTH"
);
}
);
width = 1150;
}
);
note = uni0183;
rightKerningGroup = b;
unicode = 0183;
},
{
glyphname = uni0184;
lastChange = "2017-04-17 15:00:40 +0000";
layers = (
{
layerId = "EFC0C7B3-D173-4BF6-BF18-C95D96D5B447";
paths = (
{
closed = 1;
nodes = (
"1294 691 OFFCURVE",
"1120 862 OFFCURVE",
"804 863 CURVE SMOOTH",
"449 863 LINE",
"449 1456 LINE",
"256 1456 LINE",
"98 1249 LINE",
"98 1173 LINE",
"256 967 LINE",
"256 0 LINE",
"800 0 LINE SMOOTH",
"1119 0 OFFCURVE",
"1294 179 OFFCURVE",
"1294 435 CURVE SMOOTH"
);
},
{
closed = 1;
nodes = (
"800 705 LINE SMOOTH",
"1013 705 OFFCURVE",
"1101 582 OFFCURVE",
"1101 437 CURVE SMOOTH",
"1101 290 OFFCURVE",
"1013 157 OFFCURVE",
"800 157 CURVE SMOOTH",
"449 157 LINE",
"449 705 LINE"
);
}
);
width = 1375;
}
);
note = uni0184;
unicode = 0184;
},
{
glyphname = uni0185;
lastChange = "2017-04-17 15:00:40 +0000";
layers = (
{
layerId = "EFC0C7B3-D173-4BF6-BF18-C95D96D5B447";
paths = (
{
closed = 1;
nodes = (
"1171 881 OFFCURVE",
"1020 1102 OFFCURVE",
"749 1102 CURVE SMOOTH",
"616 1102 OFFCURVE",
"513 1056 OFFCURVE",
"440 963 CURVE",
"440 1536 LINE",
"255 1536 LINE",
"97 1329 LINE",
"97 1253 LINE",
"255 1047 LINE",
"255 0 LINE",
"425 0 LINE",
"434 125 LINE",
"508 28 OFFCURVE",
"614 -20 OFFCURVE",
"751 -20 CURVE SMOOTH",
"1019 -20 OFFCURVE",
"1171 213 OFFCURVE",
"1171 529 CURVE SMOOTH",
"1171 550 LINE SMOOTH"
);
},
{
closed = 1;
nodes = (
"912 946 OFFCURVE",
"986 765 OFFCURVE",
"986 550 CURVE SMOOTH",
"986 529 LINE SMOOTH",
"986 314 OFFCURVE",
"904 137 OFFCURVE",
"705 137 CURVE SMOOTH",
"570 137 OFFCURVE",
"487 212 OFFCURVE",
"440 307 CURVE",
"440 776 LINE",
"487 872 OFFCURVE",
"568 946 OFFCURVE",
"703 946 CURVE SMOOTH"
);
}
);
width = 1262;
}
);
note = uni0185;
rightKerningGroup = b;
unicode = 0185;
},
{
glyphname = uni0186;
lastChange = "2017-04-17 15:00:40 +0000";
layers = (
{
layerId = "EFC0C7B3-D173-4BF6-BF18-C95D96D5B447";
paths = (
{
closed = 1;
nodes = (
"124 180 OFFCURVE",
"297 -20 OFFCURVE",
"628 -20 CURVE SMOOTH",
"989 -20 OFFCURVE",
"1214 248 OFFCURVE",
"1214 656 CURVE SMOOTH",
"1214 801 LINE SMOOTH",
"1214 1209 OFFCURVE",
"988 1476 OFFCURVE",
"645 1476 CURVE SMOOTH",
"296 1476 OFFCURVE",
"124 1269 OFFCURVE",
"93 993 CURVE",
"286 993 LINE",
"318 1198 OFFCURVE",
"400 1319 OFFCURVE",
"645 1319 CURVE SMOOTH",
"904 1319 OFFCURVE",
"1021 1088 OFFCURVE",
"1021 801 CURVE SMOOTH",
"1021 654 LINE SMOOTH",
"1021 345 OFFCURVE",
"887 138 OFFCURVE",
"628 138 CURVE SMOOTH",
"403 138 OFFCURVE",
"315 264 OFFCURVE",
"286 467 CURVE",
"93 467 LINE"
);
}
);
width = 1333;
}
);
note = uni0186;
rightKerningGroup = D;
unicode = 0186;
},
{
glyphname = uni0187;
lastChange = "2017-04-17 15:00:40 +0000";
layers = (
{
layerId = "EFC0C7B3-D173-4BF6-BF18-C95D96D5B447";
paths = (
{
closed = 1;
nodes = (
"1444 1345 OFFCURVE",
"1466 1342 OFFCURVE",
"1485 1337 CURVE",
"1486 1492 LINE",
"1450 1503 OFFCURVE",
"1411 1509 OFFCURVE",
"1370 1509 CURVE SMOOTH",
"1231 1509 OFFCURVE",
"1143 1446 OFFCURVE",
"1105 1319 CURVE",
"1010 1424 OFFCURVE",
"877 1476 OFFCURVE",
"705 1476 CURVE SMOOTH",
"345 1476 OFFCURVE",
"120 1208 OFFCURVE",
"120 800 CURVE SMOOTH",
"120 644 LINE SMOOTH",
"124 243 OFFCURVE",
"349 -20 OFFCURVE",
"688 -20 CURVE SMOOTH",
"1037 -20 OFFCURVE",
"1211 187 OFFCURVE",
"1240 463 CURVE",
"1048 463 LINE",
"1015 258 OFFCURVE",
"933 137 OFFCURVE",
"688 137 CURVE SMOOTH",
"429 137 OFFCURVE",
"312 368 OFFCURVE",
"312 655 CURVE SMOOTH",
"312 802 LINE SMOOTH",
"312 1111 OFFCURVE",
"448 1318 OFFCURVE",
"705 1318 CURVE SMOOTH",
"930 1318 OFFCURVE",
"1019 1192 OFFCURVE",
"1048 989 CURVE",
"1240 989 LINE",
"1240 1161 LINE SMOOTH",
"1240 1301 OFFCURVE",
"1306 1345 OFFCURVE",
"1417 1345 CURVE SMOOTH"
);
}
);
width = 1448;
}
);
leftKerningGroup = C;
note = uni0187;
unicode = 0187;
},
{
glyphname = uni0188;
lastChange = "2017-04-17 15:00:40 +0000";
layers = (
{
layerId = "EFC0C7B3-D173-4BF6-BF18-C95D96D5B447";
paths = (
{
closed = 1;
nodes = (
"1182 1017 OFFCURVE",
"1202 1015 OFFCURVE",
"1218 1010 CURVE",
"1220 1137 LINE",
"1188 1147 OFFCURVE",
"1154 1152 OFFCURVE",
"1119 1152 CURVE SMOOTH",
"997 1152 OFFCURVE",
"921 1095 OFFCURVE",
"891 980 CURVE",
"810 1061 OFFCURVE",
"705 1102 OFFCURVE",
"574 1102 CURVE SMOOTH",
"249 1102 OFFCURVE",
"93 853 OFFCURVE",
"93 562 CURVE SMOOTH",
"93 520 LINE SMOOTH",
"93 229 OFFCURVE",
"249 -20 OFFCURVE",
"574 -20 CURVE SMOOTH",
"803 -20 OFFCURVE",
"996 149 OFFCURVE",
"1005 342 CURVE",
"829 342 LINE",
"820 219 OFFCURVE",
"706 132 OFFCURVE",
"574 132 CURVE SMOOTH",
"497 132 OFFCURVE",
"438 151 OFFCURVE",
"395 190 CURVE SMOOTH",
"309 266 OFFCURVE",
"278 393 OFFCURVE",
"278 520 CURVE SMOOTH",
"278 562 LINE SMOOTH",
"278 625 OFFCURVE",
"287 686 OFFCURVE",
"305 745 CURVE SMOOTH",
"340 864 OFFCURVE",
"422 950 OFFCURVE",
"574 950 CURVE SMOOTH",
"722 950 OFFCURVE",
"820 843 OFFCURVE",
"829 710 CURVE",
"1005 710 LINE",
"1005 861 LINE SMOOTH",
"1008 965 OFFCURVE",
"1059 1017 OFFCURVE",
"1159 1017 CURVE SMOOTH"
);
}
);
width = 1242;
}
);
leftKerningGroup = c;
note = uni0188;
unicode = 0188;
},
{
glyphname = uni018A;
lastChange = "2017-04-17 15:00:40 +0000";
layers = (
{
layerId = "EFC0C7B3-D173-4BF6-BF18-C95D96D5B447";
paths = (
{
closed = 1;
nodes = (
"29 1132 OFFCURVE",
"35 1093 OFFCURVE",
"46 1057 CURVE",
"196 1058 LINE",
"190 1076 OFFCURVE",
"187 1098 OFFCURVE",
"187 1125 CURVE SMOOTH",
"187 1239 OFFCURVE",
"249 1297 OFFCURVE",
"373 1298 CURVE",
"373 0 LINE",
"767 0 LINE SMOOTH",
"1171 0 OFFCURVE",
"1427 263 OFFCURVE",
"1427 684 CURVE SMOOTH",
"1427 771 LINE SMOOTH",
"1427 1192 OFFCURVE",
"1168 1456 OFFCURVE",
"785 1456 CURVE SMOOTH",
"373 1456 LINE",
"373 1456 LINE SMOOTH",
"144 1456 OFFCURVE",
"29 1362 OFFCURVE",
"29 1173 CURVE SMOOTH"
);
},
{
closed = 1;
nodes = (
"1072 1298 OFFCURVE",
"1236 1108 OFFCURVE",
"1236 773 CURVE SMOOTH",
"1236 684 LINE SMOOTH",
"1236 365 OFFCURVE",
"1078 157 OFFCURVE",
"767 157 CURVE SMOOTH",
"566 157 LINE",
"566 1298 LINE",
"785 1298 LINE SMOOTH"
);
}
);
width = 1548;
}
);
note = uni018A;
rightKerningGroup = D;
unicode = 018A;
},
{
glyphname = uni018B;
lastChange = "2017-04-17 15:00:40 +0000";
layers = (
{
layerId = "EFC0C7B3-D173-4BF6-BF18-C95D96D5B447";
paths = (
{
closed = 1;
nodes = (
"225 1456 LINE",
"225 1298 LINE",
"927 1298 LINE",
"927 863 LINE",
"576 863 LINE SMOOTH",
"257 863 OFFCURVE",
"82 692 OFFCURVE",
"82 435 CURVE SMOOTH",
"82 180 OFFCURVE",
"256 1 OFFCURVE",
"572 0 CURVE SMOOTH",
"1120 0 LINE",
"1120 1456 LINE"
);
},
{
closed = 1;
nodes = (
"363 157 OFFCURVE",
"274 290 OFFCURVE",
"274 437 CURVE SMOOTH",
"274 582 OFFCURVE",
"363 705 OFFCURVE",
"576 705 CURVE SMOOTH",
"927 705 LINE",
"927 157 LINE",
"576 157 LINE SMOOTH"
);
}
);
width = 1283;
}
);
note = uni018B;
rightKerningGroup = H;
unicode = 018B;
},
{
glyphname = uni018C;
lastChange = "2017-04-17 15:00:40 +0000";
layers = (
{
layerId = "EFC0C7B3-D173-4BF6-BF18-C95D96D5B447";
paths = (
{
closed = 1;
nodes = (
"823 974 LINE",
"750 1059 OFFCURVE",
"650 1102 OFFCURVE",
"523 1102 CURVE SMOOTH",
"266 1102 OFFCURVE",
"95 881 OFFCURVE",
"95 550 CURVE SMOOTH",
"95 521 LINE SMOOTH",
"98 210 OFFCURVE",
"268 -20 OFFCURVE",
"521 -20 CURVE SMOOTH",
"653 -20 OFFCURVE",
"756 25 OFFCURVE",
"830 116 CURVE",
"839 0 LINE",
"1009 0 LINE",
"1009 1536 LINE",
"310 1536 LINE",
"310 1384 LINE",
"823 1384 LINE"
);
},
{
closed = 1;
nodes = (
"281 765 OFFCURVE",
"368 946 OFFCURVE",
"569 946 CURVE SMOOTH",
"683 946 OFFCURVE",
"768 895 OFFCURVE",
"823 792 CURVE",
"823 294 LINE",
"767 189 OFFCURVE",
"682 137 OFFCURVE",
"567 137 CURVE SMOOTH",
"367 137 OFFCURVE",
"281 314 OFFCURVE",
"281 529 CURVE SMOOTH",
"281 550 LINE SMOOTH"
);
}
);
width = 1155;
}
);
note = uni018C;
unicode = 018C;
},
{
glyphname = uni018D;
lastChange = "2017-04-17 15:00:40 +0000";
layers = (
{
layerId = "EFC0C7B3-D173-4BF6-BF18-C95D96D5B447";
paths = (
{
closed = 1;
nodes = (
"873 -208 OFFCURVE",
"816 -153 OFFCURVE",
"750 -97 CURVE SMOOTH",
"683 -41 OFFCURVE",
"619 15 OFFCURVE",
"558 71 CURVE",
"602 71 LINE",
"893 103 OFFCURVE",
"1063 303 OFFCURVE",
"1063 548 CURVE SMOOTH",
"1063 584 LINE",
"1058 880 OFFCURVE",
"878 1101 OFFCURVE",
"579 1101 CURVE SMOOTH",
"275 1101 OFFCURVE",
"96 874 OFFCURVE",
"96 571 CURVE SMOOTH",
"96 548 LINE SMOOTH",
"96 323 OFFCURVE",
"244 149 OFFCURVE",
"452 -34 CURVE SMOOTH",
"562 -125 OFFCURVE",
"635 -190 OFFCURVE",
"671 -228 CURVE",
"212 -228 LINE",
"212 -376 LINE",
"921 -376 LINE",
"921 -261 LINE"
);
},
{
closed = 1;
nodes = (
"877 359 OFFCURVE",
"777 189 OFFCURVE",
"558 189 CURVE SMOOTH",
"523 189 OFFCURVE",
"490 193 OFFCURVE",
"459 200 CURVE",
"371 261 OFFCURVE",
"281 385 OFFCURVE",
"281 548 CURVE SMOOTH",
"281 571 LINE SMOOTH",
"281 775 OFFCURVE",
"375 950 OFFCURVE",
"579 950 CURVE SMOOTH",
"786 950 OFFCURVE",
"877 775 OFFCURVE",
"877 571 CURVE SMOOTH",
"877 548 LINE SMOOTH"
);
}
);
width = 1161;
}
);
note = uni018D;
unicode = 018D;
},
{
glyphname = uni018E;
lastChange = "2017-04-17 15:00:40 +0000";
layers = (
{
layerId = "EFC0C7B3-D173-4BF6-BF18-C95D96D5B447";
paths = (
{
closed = 1;
nodes = (
"802 787 LINE",
"172 787 LINE",
"172 630 LINE",
"802 630 LINE",
"802 158 LINE",
"80 158 LINE",
"80 0 LINE",
"995 0 LINE",
"995 1456 LINE",
"70 1456 LINE",
"70 1299 LINE",
"802 1299 LINE"
);
}
);
width = 1164;
}
);
note = uni018E;
rightKerningGroup = H;
unicode = 018E;
},
{
glyphname = uni018F;
lastChange = "2017-04-17 15:00:40 +0000";
layers = (
{
layerId = "EFC0C7B3-D173-4BF6-BF18-C95D96D5B447";
paths = (
{
closed = 1;
nodes = (
"1298 1186 OFFCURVE",
"1065 1476 OFFCURVE",
"641 1476 CURVE SMOOTH",
"526 1476 OFFCURVE",
"434 1463 OFFCURVE",
"367 1438 CURVE SMOOTH",
"299 1412 OFFCURVE",
"253 1391 OFFCURVE",
"229 1375 CURVE",
"276 1232 LINE",
"353 1269 OFFCURVE",
"466 1316 OFFCURVE",
"641 1316 CURVE SMOOTH",
"970 1316 OFFCURVE",
"1106 1074 OFFCURVE",
"1106 774 CURVE SMOOTH",
"1106 767 LINE",
"94 767 LINE",
"94 643 LINE SMOOTH",
"94 236 OFFCURVE",
"301 -20 OFFCURVE",
"697 -20 CURVE SMOOTH",
"808 -20 OFFCURVE",
"910 10 OFFCURVE",
"1001 69 CURVE SMOOTH",
"1183 188 OFFCURVE",
"1298 404 OFFCURVE",
"1298 680 CURVE SMOOTH",
"1298 774 LINE SMOOTH"
);
},
{
closed = 1;
nodes = (
"394 139 OFFCURVE",
"287 336 OFFCURVE",
"287 584 CURVE SMOOTH",
"287 618 LINE",
"1104 618 LINE",
"1084 349 OFFCURVE",
"940 139 OFFCURVE",
"697 139 CURVE SMOOTH"
);
}
);
width = 1415;
}
);
note = uni018F;
rightKerningGroup = D;
unicode = 018F;
},
{
glyphname = uni0190;
lastChange = "2017-04-17 15:00:40 +0000";
layers = (
{
layerId = "EFC0C7B3-D173-4BF6-BF18-C95D96D5B447";
paths = (
{
closed = 1;
nodes = (
"386 822 OFFCURVE",
"299 922 OFFCURVE",
"299 1067 CURVE SMOOTH",
"299 1208 OFFCURVE",
"396 1319 OFFCURVE",
"623 1319 CURVE SMOOTH",
"794 1319 OFFCURVE",
"922 1219 OFFCURVE",
"922 1075 CURVE",
"1114 1075 LINE",
"1114 1323 OFFCURVE",
"890 1477 OFFCURVE",
"623 1477 CURVE SMOOTH",
"312 1477 OFFCURVE",
"107 1334 OFFCURVE",
"107 1063 CURVE SMOOTH",
"107 912 OFFCURVE",
"195 802 OFFCURVE",
"338 745 CURVE",
"169 687 OFFCURVE",
"85 574 OFFCURVE",
"85 406 CURVE SMOOTH",
"85 101 OFFCURVE",
"318 -21 OFFCURVE",
"623 -21 CURVE SMOOTH",
"706 -21 OFFCURVE",
"787 -6 OFFCURVE",
"866 23 CURVE SMOOTH",
"1022 82 OFFCURVE",
"1135 205 OFFCURVE",
"1135 404 CURVE",
"943 404 LINE",
"943 255 OFFCURVE",
"819 136 OFFCURVE",
"623 136 CURVE SMOOTH",
"411 136 OFFCURVE",
"277 223 OFFCURVE",
"277 402 CURVE SMOOTH",
"277 571 OFFCURVE",
"382 658 OFFCURVE",
"592 663 CURVE SMOOTH",
"774 663 LINE",
"774 822 LINE",
"609 822 LINE SMOOTH"
);
}
);
width = 1226;
}
);
note = uni0190;
unicode = 0190;
},
{
glyphname = uni0191;
lastChange = "2017-04-17 15:00:40 +0000";
layers = (
{
layerId = "EFC0C7B3-D173-4BF6-BF18-C95D96D5B447";
paths = (
{
closed = 1;
nodes = (
"231 1456 LINE",
"231 -92 LINE SMOOTH",
"230 -213 OFFCURVE",
"186 -274 OFFCURVE",
"98 -274 CURVE SMOOTH",
"63 -274 OFFCURVE",
"31 -269 OFFCURVE",
"0 -260 CURVE",
"-14 -420 LINE",
"19 -431 OFFCURVE",
"57 -437 OFFCURVE",
"98 -437 CURVE SMOOTH",
"299 -437 OFFCURVE",
"423 -314 OFFCURVE",
"423 -89 CURVE SMOOTH",
"423 643 LINE",
"1033 643 LINE",
"1033 801 LINE",
"423 801 LINE",
"423 1298 LINE",
"1133 1298 LINE",
"1133 1456 LINE"
);
}
);
width = 1194;
}
);
note = uni0191;
unicode = 0191;
},
{
glyphname = florin;
lastChange = "2017-04-17 15:00:40 +0000";
layers = (
{
layerId = "EFC0C7B3-D173-4BF6-BF18-C95D96D5B447";
paths = (
{
closed = 1;
nodes = (
"405 1205 LINE SMOOTH",
"408 1335 OFFCURVE",
"466 1400 OFFCURVE",
"580 1400 CURVE SMOOTH",
"618 1400 OFFCURVE",
"651 1397 OFFCURVE",
"679 1390 CURVE",
"701 1536 LINE",
"645 1550 OFFCURVE",
"597 1557 OFFCURVE",
"558 1557 CURVE SMOOTH",
"349 1557 OFFCURVE",
"221 1431 OFFCURVE",
"220 1200 CURVE SMOOTH",
"220 1082 LINE",
"49 1082 LINE",
"49 940 LINE",
"220 940 LINE",
"220 -92 LINE SMOOTH",
"219 -221 OFFCURVE",
"174 -285 OFFCURVE",
"83 -285 CURVE SMOOTH",
"40 -285 OFFCURVE",
"7 -281 OFFCURVE",
"-15 -272 CURVE",
"-29 -420 LINE",
"4 -431 OFFCURVE",
"42 -437 OFFCURVE",
"83 -437 CURVE SMOOTH",
"284 -437 OFFCURVE",
"405 -314 OFFCURVE",
"405 -89 CURVE SMOOTH",
"405 940 LINE",
"608 940 LINE",
"608 1082 LINE",
"405 1082 LINE"
);
}
);
width = 698;
}
);
note = florin;
unicode = 0192;
},
{
glyphname = uni0193;
lastChange = "2017-04-17 15:00:40 +0000";
layers = (
{
layerId = "EFC0C7B3-D173-4BF6-BF18-C95D96D5B447";
paths = (
{
closed = 1;
nodes = (
"1446 1352 OFFCURVE",
"1469 1349 OFFCURVE",
"1489 1343 CURVE",
"1490 1492 LINE",
"1454 1503 OFFCURVE",
"1416 1509 OFFCURVE",
"1375 1509 CURVE SMOOTH",
"1239 1509 OFFCURVE",
"1152 1447 OFFCURVE",
"1114 1324 CURVE",
"1020 1425 OFFCURVE",
"885 1476 OFFCURVE",
"708 1476 CURVE SMOOTH",
"332 1476 OFFCURVE",
"122 1218 OFFCURVE",
"122 785 CURVE SMOOTH",
"122 672 LINE SMOOTH",
"122 236 OFFCURVE",
"375 -20 OFFCURVE",
"730 -20 CURVE SMOOTH",
"893 -20 OFFCURVE",
"1012 5 OFFCURVE",
"1089 56 CURVE SMOOTH",
"1166 107 OFFCURVE",
"1218 152 OFFCURVE",
"1245 192 CURVE",
"1245 725 LINE",
"716 725 LINE",
"716 569 LINE",
"1053 569 LINE",
"1053 243 LINE",
"1034 221 OFFCURVE",
"1001 198 OFFCURVE",
"955 174 CURVE SMOOTH",
"909 149 OFFCURVE",
"834 137 OFFCURVE",
"731 137 CURVE SMOOTH",
"482 137 OFFCURVE",
"316 336 OFFCURVE",
"316 672 CURVE SMOOTH",
"316 792 LINE SMOOTH",
"317 1116 OFFCURVE",
"440 1318 OFFCURVE",
"708 1318 CURVE SMOOTH",
"931 1318 OFFCURVE",
"1025 1187 OFFCURVE",
"1052 1030 CURVE",
"1245 1030 LINE",
"1246 1193 LINE",
"1254 1299 OFFCURVE",
"1312 1352 OFFCURVE",
"1421 1352 CURVE SMOOTH"
);
}
);
width = 1451;
}
);
leftKerningGroup = C;
note = uni0193;
unicode = 0193;
},
{
glyphname = uni0194;
lastChange = "2017-04-17 15:00:40 +0000";
layers = (
{
layerId = "EFC0C7B3-D173-4BF6-BF18-C95D96D5B447";
paths = (
{
closed = 1;
nodes = (
"899 -148 OFFCURVE",
"883 -92 OFFCURVE",
"852 -27 CURVE SMOOTH",
"820 38 OFFCURVE",
"781 128 OFFCURVE",
"734 244 CURVE",
"1265 1456 LINE",
"1052 1456 LINE",
"641 470 LINE",
"235 1456 LINE",
"21 1456 LINE",
"549 250 LINE",
"499 129 OFFCURVE",
"460 36 OFFCURVE",
"431 -28 CURVE SMOOTH",
"402 -92 OFFCURVE",
"387 -147 OFFCURVE",
"387 -194 CURVE SMOOTH",
"387 -343 OFFCURVE",
"482 -429 OFFCURVE",
"643 -429 CURVE SMOOTH",
"804 -429 OFFCURVE",
"899 -343 OFFCURVE",
"899 -194 CURVE SMOOTH"
);
},
{
closed = 1;
nodes = (
"572 -153 OFFCURVE",
"596 -77 OFFCURVE",
"643 35 CURVE",
"690 -76 OFFCURVE",
"714 -152 OFFCURVE",
"714 -194 CURVE SMOOTH",
"714 -246 OFFCURVE",
"690 -272 OFFCURVE",
"643 -272 CURVE SMOOTH",
"596 -272 OFFCURVE",
"572 -246 OFFCURVE",
"572 -194 CURVE SMOOTH"
);
}
);
width = 1286;
}
);
note = uni0194;
unicode = 0194;
},
{
glyphname = uni0195;
lastChange = "2017-04-17 15:00:40 +0000";
layers = (
{
layerId = "EFC0C7B3-D173-4BF6-BF18-C95D96D5B447";
paths = (
{
closed = 1;
nodes = (
"514 1102 OFFCURVE",
"408 1052 OFFCURVE",
"326 953 CURVE",
"326 1536 LINE",
"141 1536 LINE",
"141 0 LINE",
"326 0 LINE",
"326 773 LINE",
"378 876 OFFCURVE",
"471 946 OFFCURVE",
"590 946 CURVE SMOOTH",
"759 946 OFFCURVE",
"806 849 OFFCURVE",
"806 705 CURVE SMOOTH",
"806 440 LINE SMOOTH",
"807 115 OFFCURVE",
"950 -20 OFFCURVE",
"1191 -20 CURVE SMOOTH",
"1436 -20 OFFCURVE",
"1576 117 OFFCURVE",
"1576 445 CURVE SMOOTH",
"1576 1082 LINE",
"1390 1082 LINE",
"1390 443 LINE SMOOTH",
"1390 200 OFFCURVE",
"1292 137 OFFCURVE",
"1191 137 CURVE SMOOTH",
"1186 137 LINE SMOOTH",
"1089 140 OFFCURVE",
"995 201 OFFCURVE",
"992 432 CURVE",
"992 705 LINE SMOOTH",
"992 930 OFFCURVE",
"912 1102 OFFCURVE",
"645 1102 CURVE SMOOTH"
);
}
);
width = 1715;
}
);
note = uni0195;
unicode = 0195;
},
{
glyphname = uni0198;
lastChange = "2017-04-17 15:00:40 +0000";
layers = (
{
layerId = "EFC0C7B3-D173-4BF6-BF18-C95D96D5B447";
paths = (
{
closed = 1;
nodes = (
"667 816 LINE",
"969 1194 LINE SMOOTH",
"1022 1261 OFFCURVE",
"1053 1301 OFFCURVE",
"1112 1301 CURVE SMOOTH",
"1154 1301 OFFCURVE",
"1192 1289 OFFCURVE",
"1225 1265 CURVE",
"1293 1397 LINE",
"1231 1450 OFFCURVE",
"1164 1476 OFFCURVE",
"1093 1476 CURVE SMOOTH",
"1006 1476 OFFCURVE",
"960 1456 OFFCURVE",
"837 1308 CURVE SMOOTH",
"362 716 LINE",
"362 1456 LINE",
"169 1456 LINE",
"169 0 LINE",
"362 0 LINE",
"362 464 LINE",
"545 672 LINE",
"1055 0 LINE",
"1285 0 LINE"
);
}
);
width = 1285;
}
);
note = uni0198;
rightKerningGroup = K;
unicode = 0198;
},
{
glyphname = uni0199;
lastChange = "2017-04-17 15:00:40 +0000";
layers = (
{
layerId = "EFC0C7B3-D173-4BF6-BF18-C95D96D5B447";
paths = (
{
closed = 1;
nodes = (
"502 1422 OFFCURVE",
"522 1419 OFFCURVE",
"540 1414 CURVE",
"542 1542 LINE",
"510 1552 OFFCURVE",
"476 1557 OFFCURVE",
"441 1557 CURVE SMOOTH",
"276 1557 OFFCURVE",
"141 1450 OFFCURVE",
"141 1255 CURVE SMOOTH",
"141 0 LINE",
"327 0 LINE",
"327 381 LINE",
"444 502 LINE",
"819 0 LINE",
"1037 0 LINE",
"566 631 LINE",
"988 1082 LINE",
"762 1082 LINE",
"426 726 LINE",
"327 608 LINE",
"327 1266 LINE SMOOTH",
"330 1370 OFFCURVE",
"381 1422 OFFCURVE",
"481 1422 CURVE SMOOTH"
);
}
);
width = 1038;
}
);
note = uni0199;
unicode = 0199;
},
{
glyphname = uni019B;
lastChange = "2017-04-17 15:00:40 +0000";
layers = (
{
layerId = "EFC0C7B3-D173-4BF6-BF18-C95D96D5B447";
paths = (
{
closed = 1;
nodes = (
"1040 145 LINE",
"996 145 OFFCURVE",
"962 176 OFFCURVE",
"938 239 CURVE SMOOTH",
"567 1205 LINE",
"692 1253 LINE",
"692 1415 LINE",
"512 1346 LINE",
"475 1450 OFFCURVE",
"411 1518 OFFCURVE",
"262 1518 CURVE SMOOTH",
"225 1518 OFFCURVE",
"193 1514 OFFCURVE",
"166 1506 CURVE",
"167 1364 LINE",
"214 1366 LINE",
"266 1366 OFFCURVE",
"305 1336 OFFCURVE",
"330 1276 CURVE",
"204 1228 LINE",
"204 1066 LINE",
"388 1136 LINE",
"432 1030 LINE",
"38 0 LINE",
"243 0 LINE",
"529 781 LINE",
"761 181 LINE SMOOTH",
"826 10 OFFCURVE",
"886 -17 OFFCURVE",
"1006 -17 CURVE SMOOTH",
"1035 -17 OFFCURVE",
"1061 -13 OFFCURVE",
"1083 -5 CURVE",
"1077 147 LINE"
);
}
);
width = 1135;
}
);
note = uni019B;
unicode = 019B;
},
{
glyphname = uni019C;
lastChange = "2017-04-17 15:00:40 +0000";
layers = (
{
layerId = "EFC0C7B3-D173-4BF6-BF18-C95D96D5B447";
paths = (
{
closed = 1;
nodes = (
"1692 1456 LINE",
"1507 1456 LINE",
"1507 355 LINE",
"1475 226 OFFCURVE",
"1390 137 OFFCURVE",
"1225 137 CURVE SMOOTH",
"1124 137 OFFCURVE",
"1026 201 OFFCURVE",
"1025 436 CURVE",
"1025 1456 LINE",
"840 1456 LINE",
"840 422 LINE",
"843 366 LINE",
"812 231 OFFCURVE",
"727 137 OFFCURVE",
"558 137 CURVE SMOOTH",
"457 137 OFFCURVE",
"359 201 OFFCURVE",
"358 436 CURVE",
"358 1456 LINE",
"173 1456 LINE",
"173 439 LINE SMOOTH",
"174 96 OFFCURVE",
"315 -20 OFFCURVE",
"528 -20 CURVE SMOOTH",
"695 -20 OFFCURVE",
"812 47 OFFCURVE",
"880 181 CURVE",
"937 34 OFFCURVE",
"1050 -20 OFFCURVE",
"1195 -20 CURVE SMOOTH",
"1334 -20 OFFCURVE",
"1440 28 OFFCURVE",
"1511 123 CURVE",
"1517 0 LINE",
"1692 0 LINE"
);
}
);
width = 1865;
}
);
note = uni019C;
rightKerningGroup = H;
unicode = 019C;
},
{
glyphname = uni019D;
lastChange = "2017-04-17 15:00:40 +0000";
layers = (
{
layerId = "EFC0C7B3-D173-4BF6-BF18-C95D96D5B447";
paths = (
{
closed = 1;
nodes = (
"1350 1456 LINE",
"1159 1456 LINE",
"1159 330 LINE",
"423 1456 LINE",
"231 1456 LINE",
"231 -92 LINE SMOOTH",
"230 -213 OFFCURVE",
"186 -274 OFFCURVE",
"98 -274 CURVE SMOOTH",
"63 -274 OFFCURVE",
"31 -269 OFFCURVE",
"0 -260 CURVE",
"-14 -420 LINE",
"19 -431 OFFCURVE",
"57 -437 OFFCURVE",
"98 -437 CURVE SMOOTH",
"299 -437 OFFCURVE",
"423 -314 OFFCURVE",
"423 -89 CURVE SMOOTH",
"423 1123 LINE",
"1156 0 LINE",
"1350 0 LINE"
);
}
);
width = 1522;
}
);
note = uni019D;
rightKerningGroup = H;
unicode = 019D;
},
{
glyphname = Ohorn;
lastChange = "2017-04-17 15:00:40 +0000";
layers = (
{
layerId = "EFC0C7B3-D173-4BF6-BF18-C95D96D5B447";
paths = (
{
closed = 1;
nodes = (
"1272 944 OFFCURVE",
"1240 1084 OFFCURVE",
"1175 1199 CURVE",
"1350 1239 OFFCURVE",
"1437 1370 OFFCURVE",
"1437 1592 CURVE",
"1270 1592 LINE",
"1270 1431 OFFCURVE",
"1221 1333 OFFCURVE",
"1082 1322 CURVE",
"979 1425 OFFCURVE",
"848 1476 OFFCURVE",
"687 1476 CURVE SMOOTH",
"342 1476 OFFCURVE",
"102 1210 OFFCURVE",
"102 774 CURVE SMOOTH",
"102 682 LINE SMOOTH",
"102 245 OFFCURVE",
"344 -20 OFFCURVE",
"689 -20 CURVE SMOOTH",
"1044 -20 OFFCURVE",
"1273 245 OFFCURVE",
"1273 682 CURVE SMOOTH",
"1273 779 LINE"
);
},
{
closed = 1;
nodes = (
"1082 333 OFFCURVE",
"940 143 OFFCURVE",
"689 143 CURVE SMOOTH",
"450 143 OFFCURVE",
"293 333 OFFCURVE",
"293 682 CURVE SMOOTH",
"293 776 LINE SMOOTH",
"293 1123 OFFCURVE",
"448 1312 OFFCURVE",
"687 1312 CURVE SMOOTH",
"936 1312 OFFCURVE",
"1082 1123 OFFCURVE",
"1082 776 CURVE SMOOTH",
"1082 682 LINE SMOOTH"
);
}
);
width = 1407;
}
);
leftKerningGroup = C;
note = Ohorn;
unicode = 01A0;
},
{
glyphname = ohorn;
lastChange = "2017-04-17 15:00:40 +0000";
layers = (
{
layerId = "EFC0C7B3-D173-4BF6-BF18-C95D96D5B447";
paths = (
{
closed = 1;
nodes = (
"1076 668 OFFCURVE",
"1052 770 OFFCURVE",
"1003 859 CURVE",
"1155 896 OFFCURVE",
"1210 1020 OFFCURVE",
"1210 1201 CURVE",
"1061 1201 LINE",
"1061 1070 OFFCURVE",
"1042 979 OFFCURVE",
"926 964 CURVE",
"837 1056 OFFCURVE",
"722 1102 OFFCURVE",
"583 1102 CURVE SMOOTH",
"280 1102 OFFCURVE",
"92 865 OFFCURVE",
"92 552 CURVE SMOOTH",
"92 529 LINE SMOOTH",
"92 216 OFFCURVE",
"281 -20 OFFCURVE",
"585 -20 CURVE SMOOTH",
"888 -20 OFFCURVE",
"1076 216 OFFCURVE",
"1076 529 CURVE SMOOTH",
"1076 552 LINE SMOOTH"
);
},
{
closed = 1;
nodes = (
"277 764 OFFCURVE",
"379 950 OFFCURVE",
"583 950 CURVE SMOOTH",
"788 950 OFFCURVE",
"891 764 OFFCURVE",
"891 552 CURVE SMOOTH",
"891 526 LINE SMOOTH",
"890 311 OFFCURVE",
"786 132 OFFCURVE",
"585 132 CURVE SMOOTH",
"378 132 OFFCURVE",
"277 314 OFFCURVE",
"277 529 CURVE SMOOTH",
"277 552 LINE SMOOTH"
);
}
);
width = 1171;
}
);
leftKerningGroup = c;
note = ohorn;
unicode = 01A1;
},
{
glyphname = uni01A2;
lastChange = "2017-04-17 15:00:40 +0000";
layers = (
{
layerId = "EFC0C7B3-D173-4BF6-BF18-C95D96D5B447";
paths = (
{
closed = 1;
nodes = (
"835 -20 OFFCURVE",
"924 -8 OFFCURVE",
"993 17 CURVE SMOOTH",
"1129 66 OFFCURVE",
"1201 141 OFFCURVE",
"1237 193 CURVE",
"1237 1214 LINE",
"1380 1270 LINE",
"1380 -416 LINE",
"1566 -416 LINE",
"1566 1456 LINE",
"1421 1456 LINE",
"1162 1346 LINE",
"1085 1411 OFFCURVE",
"953 1476 OFFCURVE",
"726 1476 CURVE SMOOTH",
"373 1476 OFFCURVE",
"120 1219 OFFCURVE",
"120 784 CURVE SMOOTH",
"120 672 LINE SMOOTH",
"120 224 OFFCURVE",
"375 -20 OFFCURVE",
"726 -20 CURVE SMOOTH"
);
},
{
closed = 1;
nodes = (
"831 1319 OFFCURVE",
"907 1307 OFFCURVE",
"954 1282 CURVE SMOOTH",
"1001 1257 OFFCURVE",
"1034 1233 OFFCURVE",
"1054 1211 CURVE",
"1054 245 LINE",
"1034 223 OFFCURVE",
"1001 200 OFFCURVE",
"955 175 CURVE SMOOTH",
"909 150 OFFCURVE",
"835 137 OFFCURVE",
"734 137 CURVE SMOOTH",
"457 137 OFFCURVE",
"310 352 OFFCURVE",
"310 672 CURVE SMOOTH",
"310 784 LINE SMOOTH",
"310 1123 OFFCURVE",
"475 1319 OFFCURVE",
"726 1319 CURVE SMOOTH"
);
}
);
width = 1738;
}
);
leftKerningGroup = C;
note = uni01A2;
rightKerningGroup = H;
unicode = 01A2;
},
{
glyphname = uni01A3;
lastChange = "2017-04-17 15:00:40 +0000";
layers = (
{
layerId = "EFC0C7B3-D173-4BF6-BF18-C95D96D5B447";
paths = (
{
closed = 1;
nodes = (
"1222 -416 LINE",
"1222 1082 LINE",
"1074 1082 LINE",
"889 982 LINE",
"808 1062 OFFCURVE",
"703 1102 OFFCURVE",
"574 1102 CURVE SMOOTH",
"249 1102 OFFCURVE",
"93 853 OFFCURVE",
"93 562 CURVE SMOOTH",
"93 520 LINE SMOOTH",
"93 229 OFFCURVE",
"249 -20 OFFCURVE",
"574 -20 CURVE SMOOTH",
"713 -20 OFFCURVE",
"837 42 OFFCURVE",
"916 133 CURVE",
"916 766 LINE",
"1036 837 LINE",
"1036 -416 LINE"
);
},
{
closed = 1;
nodes = (
"385 131 OFFCURVE",
"278 277 OFFCURVE",
"278 520 CURVE SMOOTH",
"278 562 LINE SMOOTH",
"278 625 OFFCURVE",
"287 686 OFFCURVE",
"305 745 CURVE SMOOTH",
"340 864 OFFCURVE",
"422 950 OFFCURVE",
"574 950 CURVE SMOOTH",
"635 950 OFFCURVE",
"687 934 OFFCURVE",
"731 901 CURVE",
"731 178 LINE",
"685 147 OFFCURVE",
"633 131 OFFCURVE",
"574 131 CURVE SMOOTH"
);
}
);
width = 1368;
}
);
note = uni01A3;
unicode = 01A3;
},
{
glyphname = uni01A4;
lastChange = "2017-04-17 15:00:40 +0000";
layers = (
{
layerId = "EFC0C7B3-D173-4BF6-BF18-C95D96D5B447";
paths = (
{
closed = 1;
nodes = (
"29 1132 OFFCURVE",
"35 1093 OFFCURVE",
"46 1057 CURVE",
"196 1058 LINE",
"190 1076 OFFCURVE",
"187 1098 OFFCURVE",
"187 1125 CURVE SMOOTH",
"187 1239 OFFCURVE",
"249 1297 OFFCURVE",
"373 1298 CURVE",
"373 0 LINE",
"566 0 LINE",
"566 571 LINE",
"910 571 LINE SMOOTH",
"1241 571 OFFCURVE",
"1421 731 OFFCURVE",
"1421 1012 CURVE SMOOTH",
"1421 1271 OFFCURVE",
"1241 1456 OFFCURVE",
"910 1456 CURVE SMOOTH",
"373 1456 LINE",
"373 1456 LINE SMOOTH",
"144 1456 OFFCURVE",
"29 1362 OFFCURVE",
"29 1173 CURVE SMOOTH"
);
},
{
closed = 1;
nodes = (
"1137 1298 OFFCURVE",
"1228 1159 OFFCURVE",
"1228 1010 CURVE SMOOTH",
"1228 845 OFFCURVE",
"1137 728 OFFCURVE",
"910 728 CURVE SMOOTH",
"566 728 LINE",
"566 1298 LINE",
"910 1298 LINE SMOOTH"
);
}
);
width = 1496;
}
);
note = uni01A4;
rightKerningGroup = P;
unicode = 01A4;
},
{
glyphname = uni01A5;
lastChange = "2017-04-17 15:00:40 +0000";
layers = (
{
layerId = "EFC0C7B3-D173-4BF6-BF18-C95D96D5B447";
paths = (
{
closed = 1;
nodes = (
"903 -20 OFFCURVE",
"1055 213 OFFCURVE",
"1055 529 CURVE SMOOTH",
"1055 550 LINE SMOOTH",
"1055 881 OFFCURVE",
"905 1102 OFFCURVE",
"632 1102 CURVE SMOOTH",
"503 1102 OFFCURVE",
"401 1058 OFFCURVE",
"326 971 CURVE",
"326 1085 LINE SMOOTH",
"329 1189 OFFCURVE",
"380 1241 OFFCURVE",
"480 1241 CURVE SMOOTH",
"501 1241 OFFCURVE",
"521 1238 OFFCURVE",
"539 1233 CURVE",
"541 1360 LINE",
"506 1371 OFFCURVE",
"473 1376 OFFCURVE",
"440 1376 CURVE SMOOTH",
"277 1376 OFFCURVE",
"144 1271 OFFCURVE",
"140 1082 CURVE",
"140 1082 LINE",
"140 -416 LINE",
"326 -416 LINE",
"326 105 LINE",
"402 22 OFFCURVE",
"505 -20 OFFCURVE",
"635 -20 CURVE SMOOTH"
);
},
{
closed = 1;
nodes = (
"781 946 OFFCURVE",
"869 765 OFFCURVE",
"869 550 CURVE SMOOTH",
"869 529 LINE SMOOTH",
"869 314 OFFCURVE",
"780 132 OFFCURVE",
"580 132 CURVE SMOOTH",
"467 132 OFFCURVE",
"383 181 OFFCURVE",
"326 279 CURVE",
"326 797 LINE",
"382 896 OFFCURVE",
"466 946 OFFCURVE",
"578 946 CURVE SMOOTH"
);
}
);
width = 1150;
}
);
note = uni01A5;
unicode = 01A5;
},
{
glyphname = uni01A6;
lastChange = "2017-04-17 15:00:40 +0000";
layers = (
{
layerId = "EFC0C7B3-D173-4BF6-BF18-C95D96D5B447";
paths = (
{
closed = 1;
nodes = (
"704 590 LINE",
"1217 -359 LINE",
"1423 -359 LINE",
"1423 -347 LINE",
"884 630 LINE",
"1057 697 OFFCURVE",
"1161 838 OFFCURVE",
"1161 1019 CURVE SMOOTH",
"1161 1300 OFFCURVE",
"981 1452 OFFCURVE",
"664 1456 CURVE SMOOTH",
"362 1456 LINE",
"362 1558 LINE",
"169 1558 LINE",
"169 0 LINE",
"362 0 LINE",
"362 590 LINE"
);
},
{
closed = 1;
nodes = (
"874 1298 OFFCURVE",
"969 1187 OFFCURVE",
"969 1019 CURVE SMOOTH",
"969 868 OFFCURVE",
"864 747 OFFCURVE",
"657 747 CURVE SMOOTH",
"362 747 LINE",
"362 1298 LINE",
"651 1298 LINE SMOOTH"
);
}
);
width = 1404;
}
);
note = uni01A6;
unicode = 01A6;
},
{
glyphname = uni01A7;
lastChange = "2017-04-17 15:00:40 +0000";
layers = (
{
layerId = "EFC0C7B3-D173-4BF6-BF18-C95D96D5B447";
paths = (
{
closed = 1;
nodes = (
"270 435 OFFCURVE",
"293 489 OFFCURVE",
"339 529 CURVE SMOOTH",
"384 568 OFFCURVE",
"479 609 OFFCURVE",
"622 652 CURVE SMOOTH",
"909 736 OFFCURVE",
"1089 855 OFFCURVE",
"1089 1080 CURVE SMOOTH",
"1089 1307 OFFCURVE",
"893 1476 OFFCURVE",
"594 1476 CURVE SMOOTH",
"265 1476 OFFCURVE",
"80 1263 OFFCURVE",
"80 1036 CURVE",
"273 1036 LINE",
"273 1199 OFFCURVE",
"375 1318 OFFCURVE",
"594 1318 CURVE SMOOTH",
"799 1318 OFFCURVE",
"895 1217 OFFCURVE",
"895 1082 CURVE SMOOTH",
"895 961 OFFCURVE",
"798 887 OFFCURVE",
"562 820 CURVE SMOOTH",
"225 725 OFFCURVE",
"77 597 OFFCURVE",
"77 370 CURVE SMOOTH",
"77 133 OFFCURVE",
"277 -20 OFFCURVE",
"584 -20 CURVE SMOOTH",
"673 -20 OFFCURVE",
"760 -3 OFFCURVE",
"845 30 CURVE SMOOTH",
"1014 97 OFFCURVE",
"1135 229 OFFCURVE",
"1135 422 CURVE",
"942 422 LINE",
"942 223 OFFCURVE",
"772 137 OFFCURVE",
"584 137 CURVE SMOOTH",
"383 137 OFFCURVE",
"270 227 OFFCURVE",
"270 368 CURVE SMOOTH"
);
}
);
width = 1216;
}
);
note = uni01A7;
unicode = 01A7;
},
{
glyphname = uni01A8;
lastChange = "2017-04-17 15:00:40 +0000";
layers = (
{
layerId = "EFC0C7B3-D173-4BF6-BF18-C95D96D5B447";
paths = (
{
closed = 1;
nodes = (
"286 326 OFFCURVE",
"301 362 OFFCURVE",
"330 394 CURVE SMOOTH",
"359 425 OFFCURVE",
"425 452 OFFCURVE",
"530 473 CURVE SMOOTH",
"771 522 OFFCURVE",
"925 606 OFFCURVE",
"925 786 CURVE SMOOTH",
"925 957 OFFCURVE",
"767 1102 OFFCURVE",
"524 1102 CURVE SMOOTH",
"265 1102 OFFCURVE",
"112 951 OFFCURVE",
"112 764 CURVE",
"297 764 LINE",
"297 853 OFFCURVE",
"379 950 OFFCURVE",
"524 950 CURVE SMOOTH",
"679 950 OFFCURVE",
"739 870 OFFCURVE",
"739 791 CURVE SMOOTH",
"739 752 OFFCURVE",
"724 720 OFFCURVE",
"693 696 CURVE SMOOTH",
"662 671 OFFCURVE",
"596 648 OFFCURVE",
"495 625 CURVE SMOOTH",
"230 565 OFFCURVE",
"101 478 OFFCURVE",
"101 301 CURVE SMOOTH",
"101 110 OFFCURVE",
"267 -20 OFFCURVE",
"519 -20 CURVE SMOOTH",
"806 -20 OFFCURVE",
"962 155 OFFCURVE",
"962 334 CURVE",
"776 334 LINE",
"768 181 OFFCURVE",
"634 132 OFFCURVE",
"519 132 CURVE SMOOTH",
"368 132 OFFCURVE",
"286 198 OFFCURVE",
"286 287 CURVE SMOOTH"
);
}
);
width = 1057;
}
);
note = uni01A8;
unicode = 01A8;
},
{
glyphname = uni01AA;
lastChange = "2017-04-17 15:00:40 +0000";
layers = (
{
layerId = "EFC0C7B3-D173-4BF6-BF18-C95D96D5B447";
paths = (
{
closed = 1;
nodes = (
"895 -249 OFFCURVE",
"873 -252 OFFCURVE",
"846 -252 CURVE SMOOTH",
"753 -252 OFFCURVE",
"701 -201 OFFCURVE",
"701 -61 CURVE SMOOTH",
"701 1221 LINE SMOOTH",
"701 1410 OFFCURVE",
"549 1562 OFFCURVE",
"361 1562 CURVE SMOOTH",
"176 1562 OFFCURVE",
"22 1412 OFFCURVE",
"22 1221 CURVE SMOOTH",
"22 1032 OFFCURVE",
"174 882 OFFCURVE",
"361 882 CURVE SMOOTH",
"416 882 OFFCURVE",
"467 894 OFFCURVE",
"516 919 CURVE",
"516 -73 LINE SMOOTH",
"519 -297 OFFCURVE",
"614 -409 OFFCURVE",
"799 -409 CURVE SMOOTH",
"840 -409 OFFCURVE",
"879 -403 OFFCURVE",
"914 -392 CURVE",
"913 -244 LINE"
);
},
{
closed = 1;
nodes = (
"270 1053 OFFCURVE",
"196 1113 OFFCURVE",
"196 1222 CURVE SMOOTH",
"196 1334 OFFCURVE",
"270 1394 OFFCURVE",
"362 1394 CURVE SMOOTH",
"453 1394 OFFCURVE",
"526 1334 OFFCURVE",
"526 1223 CURVE SMOOTH",
"526 1112 OFFCURVE",
"453 1053 OFFCURVE",
"362 1053 CURVE SMOOTH"
);
}
);
width = 955;
}
);
note = uni01AA;
unicode = 01AA;
},
{
glyphname = uni01AB;
lastChange = "2017-04-17 15:00:40 +0000";
layers = (
{
layerId = "EFC0C7B3-D173-4BF6-BF18-C95D96D5B447";
paths = (
{
closed = 1;
nodes = (
"599 1 LINE",
"598 151 LINE",
"563 143 OFFCURVE",
"534 139 OFFCURVE",
"511 139 CURVE SMOOTH",
"448 139 OFFCURVE",
"392 157 OFFCURVE",
"392 268 CURVE SMOOTH",
"392 940 LINE",
"594 940 LINE",
"594 1082 LINE",
"392 1082 LINE",
"392 1345 LINE",
"207 1345 LINE",
"207 1082 LINE",
"9 1082 LINE",
"9 940 LINE",
"207 940 LINE",
"207 252 LINE SMOOTH",
"212 51 OFFCURVE",
"315 -20 OFFCURVE",
"470 -20 CURVE",
"469 -94 LINE",
"462 -185 OFFCURVE",
"411 -231 OFFCURVE",
"316 -231 CURVE SMOOTH",
"295 -231 OFFCURVE",
"275 -228 OFFCURVE",
"257 -223 CURVE",
"256 -351 LINE",
"287 -361 OFFCURVE",
"321 -366 OFFCURVE",
"356 -366 CURVE SMOOTH",
"518 -366 OFFCURVE",
"599 -265 OFFCURVE",
"599 -64 CURVE SMOOTH",
"599 1 LINE"
);
}
);
width = 670;
}
);
note = uni01AB;
unicode = 01AB;
},
{
glyphname = uni01AC;
lastChange = "2017-04-17 15:00:40 +0000";
layers = (
{
layerId = "EFC0C7B3-D173-4BF6-BF18-C95D96D5B447";
paths = (
{
closed = 1;
nodes = (
"29 1132 OFFCURVE",
"35 1093 OFFCURVE",
"46 1057 CURVE",
"196 1058 LINE",
"190 1076 OFFCURVE",
"187 1098 OFFCURVE",
"187 1125 CURVE SMOOTH",
"187 1238 OFFCURVE",
"241 1298 OFFCURVE",
"377 1298 CURVE SMOOTH",
"576 1298 LINE",
"576 0 LINE",
"767 0 LINE",
"767 1298 LINE",
"1235 1298 LINE",
"1235 1456 LINE",
"363 1456 LINE SMOOTH",
"140 1452 OFFCURVE",
"29 1358 OFFCURVE",
"29 1173 CURVE SMOOTH"
);
}
);
width = 1282;
}
);
note = uni01AC;
unicode = 01AC;
},
{
glyphname = uni01AD;
lastChange = "2017-04-17 15:00:40 +0000";
layers = (
{
layerId = "EFC0C7B3-D173-4BF6-BF18-C95D96D5B447";
paths = (
{
closed = 1;
nodes = (
"582 1427 OFFCURVE",
"602 1424 OFFCURVE",
"620 1419 CURVE",
"621 1546 LINE",
"591 1557 OFFCURVE",
"558 1562 OFFCURVE",
"521 1562 CURVE SMOOTH",
"354 1562 OFFCURVE",
"221 1455 OFFCURVE",
"221 1260 CURVE SMOOTH",
"221 1082 LINE",
"24 1082 LINE",
"24 940 LINE",
"221 940 LINE",
"221 297 LINE SMOOTH",
"221 66 OFFCURVE",
"334 -20 OFFCURVE",
"471 -20 CURVE SMOOTH",
"524 -20 OFFCURVE",
"571 -13 OFFCURVE",
"613 0 CURVE",
"613 151 LINE",
"578 143 OFFCURVE",
"549 139 OFFCURVE",
"525 139 CURVE SMOOTH",
"464 139 OFFCURVE",
"406 171 OFFCURVE",
"406 296 CURVE SMOOTH",
"406 940 LINE",
"608 940 LINE",
"608 1082 LINE",
"406 1082 LINE",
"406 1271 LINE SMOOTH",
"409 1375 OFFCURVE",
"460 1427 OFFCURVE",
"561 1427 CURVE SMOOTH"
);
}
);
width = 680;
}
);
note = uni01AD;
unicode = 01AD;
},
{
glyphname = uni01AE;
lastChange = "2017-04-17 15:00:40 +0000";
layers = (
{
layerId = "EFC0C7B3-D173-4BF6-BF18-C95D96D5B447";
paths = (
{
closed = 1;
nodes = (
"517 -89 LINE SMOOTH",
"517 -314 OFFCURVE",
"638 -437 OFFCURVE",
"839 -437 CURVE SMOOTH",
"880 -437 OFFCURVE",
"918 -431 OFFCURVE",
"951 -420 CURVE",
"938 -265 LINE",
"903 -274 OFFCURVE",
"870 -278 OFFCURVE",
"839 -278 CURVE SMOOTH",
"751 -278 OFFCURVE",
"707 -215 OFFCURVE",
"707 -89 CURVE SMOOTH",
"707 1298 LINE",
"1175 1298 LINE",
"1175 1456 LINE",
"50 1456 LINE",
"50 1298 LINE",
"517 1298 LINE"
);
}
);
width = 1222;
}
);
leftKerningGroup = T;
note = uni01AE;
rightKerningGroup = T;
unicode = 01AE;
},
{
glyphname = Uhorn;
lastChange = "2017-04-17 15:00:40 +0000";
layers = (
{
layerId = "EFC0C7B3-D173-4BF6-BF18-C95D96D5B447";
paths = (
{
closed = 1;
nodes = (
"949 -20 OFFCURVE",
"1194 143 OFFCURVE",
"1194 471 CURVE SMOOTH",
"1194 1108 LINE",
"1462 1123 OFFCURVE",
"1565 1271 OFFCURVE",
"1565 1538 CURVE",
"1407 1538 LINE",
"1407 1359 OFFCURVE",
"1361 1259 OFFCURVE",
"1194 1244 CURVE",
"1194 1456 LINE",
"1002 1456 LINE",
"1002 471 LINE SMOOTH",
"1002 243 OFFCURVE",
"869 137 OFFCURVE",
"666 137 CURVE SMOOTH",
"466 137 OFFCURVE",
"331 243 OFFCURVE",
"331 471 CURVE SMOOTH",
"331 1456 LINE",
"140 1456 LINE",
"140 471 LINE SMOOTH",
"140 143 OFFCURVE",
"369 -20 OFFCURVE",
"666 -20 CURVE SMOOTH"
);
}
);
width = 1424;
}
);
note = Uhorn;
unicode = 01AF;
},
{
glyphname = uhorn;
lastChange = "2017-04-17 15:00:40 +0000";
layers = (
{
layerId = "EFC0C7B3-D173-4BF6-BF18-C95D96D5B447";
paths = (
{
closed = 1;
nodes = (
"989 838 LINE",
"1229 845 OFFCURVE",
"1296 956 OFFCURVE",
"1296 1169 CURVE",
"1154 1169 LINE",
"1154 1024 OFFCURVE",
"1149 957 OFFCURVE",
"989 952 CURVE",
"989 1082 LINE",
"803 1082 LINE",
"803 294 LINE",
"754 189 OFFCURVE",
"660 137 OFFCURVE",
"521 137 CURVE SMOOTH",
"420 137 OFFCURVE",
"322 187 OFFCURVE",
"322 382 CURVE SMOOTH",
"322 1082 LINE",
"137 1082 LINE",
"137 384 LINE SMOOTH",
"137 96 OFFCURVE",
"280 -20 OFFCURVE",
"492 -20 CURVE SMOOTH",
"632 -20 OFFCURVE",
"737 22 OFFCURVE",
"808 107 CURVE",
"812 0 LINE",
"989 0 LINE"
);
}
);
width = 1267;
}
);
leftKerningGroup = u;
note = uhorn;
unicode = 01B0;
},
{
glyphname = uni01B1;
lastChange = "2017-04-17 15:00:40 +0000";
layers = (
{
layerId = "EFC0C7B3-D173-4BF6-BF18-C95D96D5B447";
paths = (
{
closed = 1;
nodes = (
"1041 302 OFFCURVE",
"902 136 OFFCURVE",
"681 136 CURVE SMOOTH",
"457 136 OFFCURVE",
"317 302 OFFCURVE",
"317 613 CURVE SMOOTH",
"317 742 LINE SMOOTH",
"320 1071 OFFCURVE",
"437 1256 OFFCURVE",
"613 1292 CURVE",
"613 1456 LINE",
"130 1456 LINE",
"130 1298 LINE",
"348 1298 LINE",
"209 1163 OFFCURVE",
"122 948 OFFCURVE",
"122 729 CURVE SMOOTH",
"122 615 LINE SMOOTH",
"122 238 OFFCURVE",
"349 -21 OFFCURVE",
"681 -21 CURVE SMOOTH",
"1012 -21 OFFCURVE",
"1236 238 OFFCURVE",
"1236 615 CURVE SMOOTH",
"1236 729 LINE SMOOTH",
"1236 948 OFFCURVE",
"1149 1163 OFFCURVE",
"1010 1298 CURVE",
"1232 1298 LINE",
"1232 1456 LINE",
"741 1456 LINE",
"741 1292 LINE",
"920 1257 OFFCURVE",
"1041 1072 OFFCURVE",
"1041 729 CURVE SMOOTH",
"1041 613 LINE SMOOTH"
);
}
);
width = 1361;
}
);
note = uni01B1;
unicode = 01B1;
},
{
glyphname = uni01B2;
lastChange = "2017-04-17 15:00:40 +0000";
layers = (
{
layerId = "EFC0C7B3-D173-4BF6-BF18-C95D96D5B447";
paths = (
{
closed = 1;
nodes = (
"950 -20 OFFCURVE",
"1196 143 OFFCURVE",
"1196 471 CURVE SMOOTH",
"1196 1128 LINE SMOOTH",
"1196 1353 OFFCURVE",
"1072 1476 OFFCURVE",
"881 1476 CURVE SMOOTH",
"840 1476 OFFCURVE",
"801 1470 OFFCURVE",
"765 1459 CURVE",
"766 1307 LINE",
"785 1313 OFFCURVE",
"808 1316 OFFCURVE",
"834 1316 CURVE SMOOTH",
"949 1316 OFFCURVE",
"1003 1263 OFFCURVE",
"1003 1128 CURVE SMOOTH",
"1003 471 LINE SMOOTH",
"1003 243 OFFCURVE",
"868 137 OFFCURVE",
"667 137 CURVE SMOOTH",
"468 137 OFFCURVE",
"332 243 OFFCURVE",
"332 471 CURVE SMOOTH",
"332 1456 LINE",
"142 1456 LINE",
"142 471 LINE SMOOTH",
"142 143 OFFCURVE",
"371 -20 OFFCURVE",
"667 -20 CURVE SMOOTH"
);
}
);
width = 1337;
}
);
note = uni01B2;
unicode = 01B2;
},
{
glyphname = uni01B3;
lastChange = "2017-04-17 15:00:40 +0000";
layers = (
{
layerId = "EFC0C7B3-D173-4BF6-BF18-C95D96D5B447";
paths = (
{
closed = 1;
nodes = (
"1119 1280 OFFCURVE",
"1154 1301 OFFCURVE",
"1200 1301 CURVE SMOOTH",
"1242 1301 OFFCURVE",
"1280 1289 OFFCURVE",
"1313 1265 CURVE",
"1381 1397 LINE",
"1319 1450 OFFCURVE",
"1248 1476 OFFCURVE",
"1169 1476 CURVE SMOOTH",
"1110 1476 OFFCURVE",
"1060 1460 OFFCURVE",
"1019 1428 CURVE SMOOTH",
"978 1395 OFFCURVE",
"924 1316 OFFCURVE",
"858 1191 CURVE SMOOTH",
"614 718 LINE",
"236 1456 LINE",
"15 1456 LINE",
"517 543 LINE",
"517 0 LINE",
"710 0 LINE",
"710 540 LINE",
"1094 1238 LINE SMOOTH"
);
}
);
width = 1328;
}
);
note = uni01B3;
unicode = 01B3;
},
{
glyphname = uni01B4;
lastChange = "2017-04-17 15:00:40 +0000";
layers = (
{
layerId = "EFC0C7B3-D173-4BF6-BF18-C95D96D5B447";
paths = (
{
closed = 1;
nodes = (
"342 -437 OFFCURVE",
"451 -342 OFFCURVE",
"515 -152 CURVE SMOOTH",
"899 986 LINE SMOOTH",
"955 1153 OFFCURVE",
"994 1228 OFFCURVE",
"1082 1228 CURVE SMOOTH",
"1119 1228 OFFCURVE",
"1161 1214 OFFCURVE",
"1209 1187 CURVE",
"1253 1303 LINE",
"1196 1350 OFFCURVE",
"1130 1373 OFFCURVE",
"1057 1373 CURVE SMOOTH",
"957 1373 OFFCURVE",
"895 1344 OFFCURVE",
"834 1260 CURVE SMOOTH",
"803 1217 OFFCURVE",
"771 1141 OFFCURVE",
"736 1031 CURVE SMOOTH",
"492 260 LINE",
"464 363 LINE",
"224 1082 LINE",
"22 1082 LINE",
"408 12 LINE",
"365 -105 LINE SMOOTH",
"316 -236 OFFCURVE",
"253 -275 OFFCURVE",
"134 -275 CURVE",
"84 -271 LINE",
"85 -421 LINE",
"122 -432 OFFCURVE",
"157 -437 OFFCURVE",
"188 -437 CURVE SMOOTH"
);
}
);
width = 1216;
}
);
note = uni01B4;
unicode = 01B4;
},
{
glyphname = uni01B5;
lastChange = "2017-04-17 15:00:40 +0000";
layers = (
{
layerId = "EFC0C7B3-D173-4BF6-BF18-C95D96D5B447";
paths = (
{
closed = 1;
nodes = (
"549 812 LINE",
"124 812 LINE",
"124 661 LINE",
"444 661 LINE",
"87 144 LINE",
"87 0 LINE",
"1146 0 LINE",
"1146 157 LINE",
"314 157 LINE",
"662 661 LINE",
"1073 661 LINE",
"1073 812 LINE",
"766 812 LINE",
"1114 1316 LINE",
"1114 1456 LINE",
"100 1456 LINE",
"100 1298 LINE",
"885 1298 LINE"
);
}
);
width = 1227;
}
);
note = uni01B5;
unicode = 01B5;
},
{
glyphname = uni01B6;
lastChange = "2017-04-17 15:00:40 +0000";
layers = (
{
layerId = "EFC0C7B3-D173-4BF6-BF18-C95D96D5B447";
paths = (
{
closed = 1;
nodes = (
"464 622 LINE",
"151 622 LINE",
"151 470 LINE",
"350 470 LINE",
"99 136 LINE",
"99 0 LINE",
"957 0 LINE",
"957 152 LINE",
"326 152 LINE",
"566 470 LINE",
"873 470 LINE",
"873 622 LINE",
"680 622 LINE",
"928 951 LINE",
"928 1082 LINE",
"107 1082 LINE",
"107 929 LINE",
"695 929 LINE"
);
}
);
width = 1034;
}
);
leftKerningGroup = z;
note = uni01B6;
rightKerningGroup = z;
unicode = 01B6;
},
{
glyphname = uni01B7;
lastChange = "2017-04-17 15:00:40 +0000";
layers = (
{
layerId = "EFC0C7B3-D173-4BF6-BF18-C95D96D5B447";
paths = (
{
closed = 1;
nodes = (
"390 732 LINE",
"390 589 LINE",
"620 589 LINE SMOOTH",
"880 586 OFFCURVE",
"1008 468 OFFCURVE",
"1008 161 CURVE SMOOTH",
"1008 -124 OFFCURVE",
"894 -261 OFFCURVE",
"631 -261 CURVE SMOOTH",
"382 -261 OFFCURVE",
"307 -144 OFFCURVE",
"274 64 CURVE",
"81 64 LINE",
"113 -209 OFFCURVE",
"282 -418 OFFCURVE",
"631 -418 CURVE SMOOTH",
"971 -418 OFFCURVE",
"1201 -246 OFFCURVE",
"1201 161 CURVE SMOOTH",
"1201 566 OFFCURVE",
"976 740 OFFCURVE",
"609 740 CURVE",
"1123 1319 LINE",
"1123 1456 LINE",
"114 1456 LINE",
"114 1298 LINE",
"895 1298 LINE"
);
}
);
width = 1319;
}
);
note = uni01B7;
unicode = 01B7;
},
{
glyphname = uni01B8;
lastChange = "2017-04-17 15:00:40 +0000";
layers = (
{
layerId = "EFC0C7B3-D173-4BF6-BF18-C95D96D5B447";
paths = (
{
closed = 1;
nodes = (
"1205 1298 LINE",
"1205 1456 LINE",
"196 1456 LINE",
"196 1319 LINE",
"710 740 LINE",
"343 740 OFFCURVE",
"118 566 OFFCURVE",
"118 161 CURVE SMOOTH",
"118 -246 OFFCURVE",
"348 -418 OFFCURVE",
"688 -418 CURVE SMOOTH",
"1037 -418 OFFCURVE",
"1206 -209 OFFCURVE",
"1238 64 CURVE",
"1045 64 LINE",
"1012 -144 OFFCURVE",
"939 -261 OFFCURVE",
"688 -261 CURVE SMOOTH",
"427 -261 OFFCURVE",
"311 -124 OFFCURVE",
"311 161 CURVE SMOOTH",
"311 470 OFFCURVE",
"443 588 OFFCURVE",
"702 589 CURVE SMOOTH",
"929 589 LINE",
"929 732 LINE",
"424 1298 LINE"
);
}
);
width = 1319;
}
);
note = uni01B8;
unicode = 01B8;
},
{
glyphname = uni01B9;
lastChange = "2017-04-17 15:00:40 +0000";
layers = (
{
layerId = "EFC0C7B3-D173-4BF6-BF18-C95D96D5B447";
paths = (
{
closed = 1;
nodes = (
"1025 1082 LINE",
"156 1082 LINE",
"155 964 LINE",
"553 470 LINE",
"272 449 OFFCURVE",
"109 295 OFFCURVE",
"109 31 CURVE SMOOTH",
"109 -240 OFFCURVE",
"314 -395 OFFCURVE",
"598 -395 CURVE SMOOTH",
"675 -395 OFFCURVE",
"749 -380 OFFCURVE",
"821 -351 CURVE SMOOTH",
"964 -292 OFFCURVE",
"1067 -170 OFFCURVE",
"1067 29 CURVE",
"882 29 LINE",
"882 -120 OFFCURVE",
"769 -243 OFFCURVE",
"598 -243 CURVE SMOOTH",
"405 -243 OFFCURVE",
"294 -130 OFFCURVE",
"294 27 CURVE SMOOTH",
"294 236 OFFCURVE",
"407 323 OFFCURVE",
"615 326 CURVE SMOOTH",
"765 326 LINE",
"765 477 LINE",
"393 929 LINE",
"1025 929 LINE"
);
}
);
width = 1156;
}
);
note = uni01B9;
unicode = 01B9;
},
{
glyphname = uni01BA;
lastChange = "2017-04-17 15:00:40 +0000";
layers = (
{
layerId = "EFC0C7B3-D173-4BF6-BF18-C95D96D5B447";
paths = (
{
closed = 1;
nodes = (
"715 283 OFFCURVE",
"666 245 OFFCURVE",
"483 206 CURVE SMOOTH",
"214 149 OFFCURVE",
"77 57 OFFCURVE",
"77 -116 CURVE SMOOTH",
"77 -305 OFFCURVE",
"243 -437 OFFCURVE",
"494 -437 CURVE SMOOTH",
"782 -437 OFFCURVE",
"937 -262 OFFCURVE",
"937 -83 CURVE",
"752 -83 LINE",
"743 -236 OFFCURVE",
"610 -285 OFFCURVE",
"494 -285 CURVE SMOOTH",
"345 -285 OFFCURVE",
"262 -219 OFFCURVE",
"262 -130 CURVE SMOOTH",
"262 -89 OFFCURVE",
"278 -53 OFFCURVE",
"309 -24 CURVE SMOOTH",
"340 5 OFFCURVE",
"406 30 OFFCURVE",
"507 52 CURVE SMOOTH",
"743 104 OFFCURVE",
"900 178 OFFCURVE",
"900 369 CURVE SMOOTH",
"900 508 OFFCURVE",
"797 610 OFFCURVE",
"628 645 CURVE",
"983 966 LINE",
"982 1082 LINE",
"125 1082 LINE",
"125 930 LINE",
"718 930 LINE",
"329 624 LINE",
"329 506 LINE",
"509 506 LINE SMOOTH",
"646 504 OFFCURVE",
"715 460 OFFCURVE",
"715 375 CURVE SMOOTH"
);
}
);
width = 1092;
}
);
note = uni01BA;
unicode = 01BA;
},
{
glyphname = uni01BB;
lastChange = "2017-04-17 15:00:40 +0000";
layers = (
{
layerId = "EFC0C7B3-D173-4BF6-BF18-C95D96D5B447";
paths = (
{
closed = 1;
nodes = (
"758 600 LINE",
"799 648 LINE",
"1074 648 LINE",
"1074 799 LINE",
"910 799 LINE",
"975 904 OFFCURVE",
"1008 1000 OFFCURVE",
"1008 1087 CURVE SMOOTH",
"1008 1320 OFFCURVE",
"844 1476 OFFCURVE",
"569 1476 CURVE SMOOTH",
"258 1476 OFFCURVE",
"94 1273 OFFCURVE",
"94 1028 CURVE",
"279 1028 LINE",
"279 1201 OFFCURVE",
"374 1324 OFFCURVE",
"569 1324 CURVE SMOOTH",
"730 1324 OFFCURVE",
"823 1208 OFFCURVE",
"823 1065 CURVE SMOOTH",
"823 981 OFFCURVE",
"797 910 OFFCURVE",
"713 799 CURVE",
"298 799 LINE",
"298 648 LINE",
"585 648 LINE",
"122 133 LINE",
"122 0 LINE",
"1075 0 LINE",
"1075 152 LINE",
"345 152 LINE"
);
}
);
width = 1157;
}
);
note = uni01BB;
unicode = 01BB;
},
{
glyphname = uni01BC;
lastChange = "2017-04-17 15:00:40 +0000";
layers = (
{
layerId = "EFC0C7B3-D173-4BF6-BF18-C95D96D5B447";
paths = (
{
closed = 1;
nodes = (
"207 731 LINE",
"355 693 LINE",
"420 750 OFFCURVE",
"469 786 OFFCURVE",
"593 786 CURVE SMOOTH",
"780 786 OFFCURVE",
"884 645 OFFCURVE",
"884 462 CURVE SMOOTH",
"884 259 OFFCURVE",
"784 132 OFFCURVE",
"609 132 CURVE SMOOTH",
"446 132 OFFCURVE",
"353 216 OFFCURVE",
"330 383 CURVE",
"154 383 LINE",
"181 111 OFFCURVE",
"373 -20 OFFCURVE",
"609 -20 CURVE SMOOTH",
"920 -20 OFFCURVE",
"1070 185 OFFCURVE",
"1070 464 CURVE SMOOTH",
"1070 761 OFFCURVE",
"904 952 OFFCURVE",
"636 952 CURVE SMOOTH",
"547 952 OFFCURVE",
"466 931 OFFCURVE",
"393 889 CURVE",
"437 1285 LINE",
"1027 1285 LINE",
"1027 1456 LINE",
"64 1456 LINE",
"64 1285 LINE",
"263 1285 LINE"
);
}
);
width = 1151;
}
);
note = uni01BC;
unicode = 01BC;
},
{
glyphname = uni01BD;
lastChange = "2017-04-17 15:00:40 +0000";
layers = (
{
layerId = "EFC0C7B3-D173-4BF6-BF18-C95D96D5B447";
paths = (
{
closed = 1;
nodes = (
"159 487 LINE",
"316 474 LINE",
"353 533 OFFCURVE",
"418 585 OFFCURVE",
"539 585 CURVE SMOOTH",
"691 585 OFFCURVE",
"770 493 OFFCURVE",
"770 360 CURVE SMOOTH",
"770 228 OFFCURVE",
"699 135 OFFCURVE",
"530 135 CURVE SMOOTH",
"394 135 OFFCURVE",
"298 209 OFFCURVE",
"298 321 CURVE",
"120 306 LINE",
"120 233 OFFCURVE",
"141 172 OFFCURVE",
"184 125 CURVE SMOOTH",
"269 29 OFFCURVE",
"407 -16 OFFCURVE",
"530 -16 CURVE SMOOTH",
"833 -16 OFFCURVE",
"955 149 OFFCURVE",
"955 362 CURVE SMOOTH",
"955 601 OFFCURVE",
"811 740 OFFCURVE",
"572 736 CURVE SMOOTH",
"485 733 OFFCURVE",
"399 703 OFFCURVE",
"351 671 CURVE",
"384 920 LINE",
"900 920 LINE",
"900 1082 LINE",
"41 1082 LINE",
"41 920 LINE",
"208 920 LINE"
);
}
);
width = 1027;
}
);
note = uni01BD;
unicode = 01BD;
},
{
glyphname = uni01BE;
lastChange = "2017-04-17 15:00:40 +0000";
layers = (
{
layerId = "EFC0C7B3-D173-4BF6-BF18-C95D96D5B447";
paths = (
{
closed = 1;
nodes = (
"952 452 OFFCURVE",
"865 515 OFFCURVE",
"769 563 CURVE SMOOTH",
"673 610 OFFCURVE",
"586 662 OFFCURVE",
"586 791 CURVE SMOOTH",
"586 940 LINE",
"788 940 LINE",
"788 1082 LINE",
"586 1082 LINE",
"586 1345 LINE",
"400 1345 LINE",
"400 1082 LINE",
"203 1082 LINE",
"203 940 LINE",
"400 940 LINE",
"400 781 LINE SMOOTH",
"401 618 OFFCURVE",
"486 541 OFFCURVE",
"583 487 CURVE SMOOTH",
"680 433 OFFCURVE",
"767 387 OFFCURVE",
"767 287 CURVE SMOOTH",
"767 198 OFFCURVE",
"685 132 OFFCURVE",
"534 132 CURVE SMOOTH",
"419 132 OFFCURVE",
"286 181 OFFCURVE",
"277 334 CURVE",
"92 334 LINE",
"92 155 OFFCURVE",
"247 -20 OFFCURVE",
"534 -20 CURVE SMOOTH",
"786 -20 OFFCURVE",
"952 110 OFFCURVE",
"952 301 CURVE SMOOTH"
);
}
);
width = 1047;
}
);
note = uni01BE;
unicode = 01BE;
},
{
glyphname = uni01BF;
lastChange = "2017-04-17 15:00:40 +0000";
layers = (
{
layerId = "EFC0C7B3-D173-4BF6-BF18-C95D96D5B447";
paths = (
{
closed = 1;
nodes = (
"1055 883 OFFCURVE",
"905 1102 OFFCURVE",
"632 1102 CURVE SMOOTH",
"499 1102 OFFCURVE",
"395 1056 OFFCURVE",
"319 963 CURVE",
"309 1082 LINE",
"140 1082 LINE",
"140 -416 LINE",
"326 -416 LINE",
"326 -153 LINE",
"476 -110 OFFCURVE",
"606 -61 OFFCURVE",
"715 -5 CURVE SMOOTH",
"933 107 OFFCURVE",
"1055 270 OFFCURVE",
"1055 534 CURVE SMOOTH",
"1055 555 LINE SMOOTH"
);
},
{
closed = 1;
nodes = (
"781 946 OFFCURVE",
"869 768 OFFCURVE",
"869 555 CURVE SMOOTH",
"869 534 LINE SMOOTH",
"869 229 OFFCURVE",
"642 80 OFFCURVE",
"326 -3 CURVE",
"326 797 LINE",
"382 896 OFFCURVE",
"466 946 OFFCURVE",
"578 946 CURVE SMOOTH"
);
}
);
width = 1150;
}
);
note = uni01BF;
unicode = 01BF;
},
{
glyphname = uni01C0;
lastChange = "2017-04-17 15:00:40 +0000";
layers = (
{
layerId = "EFC0C7B3-D173-4BF6-BF18-C95D96D5B447";
paths = (
{
closed = 1;
nodes = (
"186 0 LINE",
"335 0 LINE",
"335 1456 LINE",
"186 1456 LINE"
);
}
);
width = 521;
}
);
note = uni01C0;
unicode = 01C0;
},
{
glyphname = uni01C5;
lastChange = "2017-04-17 15:00:40 +0000";
layers = (
{
layerId = "EFC0C7B3-D173-4BF6-BF18-C95D96D5B447";
paths = (
{
closed = 1;
nodes = (
"1417 1494 LINE",
"1667 1252 LINE",
"1783 1252 LINE",
"2036 1497 LINE",
"2036 1515 LINE",
"1875 1515 LINE",
"1725 1365 LINE",
"1575 1515 LINE",
"1417 1515 LINE"
);
},
{
closed = 1;
nodes = (
"967 0 OFFCURVE",
"1223 263 OFFCURVE",
"1223 684 CURVE SMOOTH",
"1223 771 LINE SMOOTH",
"1223 1192 OFFCURVE",
"964 1456 OFFCURVE",
"581 1456 CURVE SMOOTH",
"169 1456 LINE",
"169 0 LINE",
"563 0 LINE SMOOTH"
);
},
{
closed = 1;
nodes = (
"868 1298 OFFCURVE",
"1032 1108 OFFCURVE",
"1032 773 CURVE SMOOTH",
"1032 684 LINE SMOOTH",
"1032 365 OFFCURVE",
"874 157 OFFCURVE",
"563 157 CURVE SMOOTH",
"362 157 LINE",
"362 1298 LINE",
"581 1298 LINE SMOOTH"
);
},
{
closed = 1;
nodes = (
"1300 136 LINE",
"1300 0 LINE",
"2158 0 LINE",
"2158 152 LINE",
"1527 152 LINE",
"2129 951 LINE",
"2129 1082 LINE",
"1309 1082 LINE",
"1309 929 LINE",
"1896 929 LINE"
);
}
);
width = 2227;
}
);
note = uni01C5;
rightKerningGroup = z;
unicode = 01C5;
},
{
glyphname = uni01C6;
lastChange = "2017-04-17 15:00:40 +0000";
layers = (
{
layerId = "EFC0C7B3-D173-4BF6-BF18-C95D96D5B447";
paths = (
{
closed = 1;
nodes = (
"1009 1560 LINE",
"823 1560 LINE",
"823 974 LINE",
"750 1059 OFFCURVE",
"650 1102 OFFCURVE",
"523 1102 CURVE SMOOTH",
"266 1102 OFFCURVE",
"95 881 OFFCURVE",
"95 550 CURVE SMOOTH",
"95 521 LINE SMOOTH",
"98 210 OFFCURVE",
"268 -20 OFFCURVE",
"521 -20 CURVE SMOOTH",
"655 -20 OFFCURVE",
"759 27 OFFCURVE",
"834 121 CURVE",
"848 0 LINE",
"1009 0 LINE"
);
},
{
closed = 1;
nodes = (
"1224 1494 LINE",
"1474 1252 LINE",
"1590 1252 LINE",
"1843 1497 LINE",
"1843 1515 LINE",
"1682 1515 LINE",
"1532 1365 LINE",
"1382 1515 LINE",
"1224 1515 LINE"
);
},
{
closed = 1;
nodes = (
"1107 136 LINE",
"1107 0 LINE",
"1965 0 LINE",
"1965 152 LINE",
"1334 152 LINE",
"1936 951 LINE",
"1936 1082 LINE",
"1116 1082 LINE",
"1116 929 LINE",
"1703 929 LINE"
);
},
{
closed = 1;
nodes = (
"281 765 OFFCURVE",
"368 946 OFFCURVE",
"569 946 CURVE SMOOTH",
"683 946 OFFCURVE",
"768 895 OFFCURVE",
"823 792 CURVE",
"823 294 LINE",
"767 189 OFFCURVE",
"682 137 OFFCURVE",
"567 137 CURVE SMOOTH",
"367 137 OFFCURVE",
"281 314 OFFCURVE",
"281 529 CURVE SMOOTH",
"281 550 LINE SMOOTH"
);
}
);
width = 2034;
}
);
leftKerningGroup = c;
note = uni01C6;
rightKerningGroup = z;
unicode = 01C6;
},
{
glyphname = uni01E4;
lastChange = "2017-04-17 15:00:40 +0000";
layers = (
{
layerId = "EFC0C7B3-D173-4BF6-BF18-C95D96D5B447";
paths = (
{
closed = 1;
nodes = (
"1393 329 LINE",
"1393 481 LINE",
"1245 481 LINE",
"1245 725 LINE",
"716 725 LINE",
"716 569 LINE",
"1053 569 LINE",
"1053 481 LINE",
"756 481 LINE",
"756 329 LINE",
"1053 329 LINE",
"1053 243 LINE",
"1034 221 OFFCURVE",
"1001 198 OFFCURVE",
"955 174 CURVE SMOOTH",
"909 149 OFFCURVE",
"834 137 OFFCURVE",
"731 137 CURVE SMOOTH",
"482 137 OFFCURVE",
"316 336 OFFCURVE",
"316 672 CURVE SMOOTH",
"316 792 LINE SMOOTH",
"317 1116 OFFCURVE",
"440 1318 OFFCURVE",
"708 1318 CURVE SMOOTH",
"931 1318 OFFCURVE",
"1025 1187 OFFCURVE",
"1052 1030 CURVE",
"1245 1030 LINE",
"1208 1289 OFFCURVE",
"1041 1476 OFFCURVE",
"708 1476 CURVE SMOOTH",
"332 1476 OFFCURVE",
"122 1218 OFFCURVE",
"122 785 CURVE SMOOTH",
"122 672 LINE SMOOTH",
"122 236 OFFCURVE",
"375 -20 OFFCURVE",
"730 -20 CURVE SMOOTH",
"893 -20 OFFCURVE",
"1012 5 OFFCURVE",
"1089 56 CURVE SMOOTH",
"1166 107 OFFCURVE",
"1218 152 OFFCURVE",
"1245 192 CURVE",
"1245 329 LINE"
);
}
);
width = 1395;
}
);
note = uni01E4;
unicode = 01E4;
},
{
glyphname = uni01E5;
lastChange = "2017-04-17 15:00:40 +0000";
layers = (
{
layerId = "EFC0C7B3-D173-4BF6-BF18-C95D96D5B447";
paths = (
{
closed = 1;
nodes = (
"1023 -54 LINE",
"1023 1082 LINE",
"855 1082 LINE",
"846 962 LINE",
"772 1055 OFFCURVE",
"669 1102 OFFCURVE",
"536 1102 CURVE SMOOTH",
"273 1102 OFFCURVE",
"109 881 OFFCURVE",
"109 550 CURVE SMOOTH",
"109 529 LINE SMOOTH",
"109 213 OFFCURVE",
"275 -20 OFFCURVE",
"534 -20 CURVE SMOOTH",
"663 -20 OFFCURVE",
"764 23 OFFCURVE",
"837 108 CURVE",
"837 -54 LINE",
"31 -54 LINE",
"31 -169 LINE",
"819 -169 LINE",
"780 -283 OFFCURVE",
"691 -340 OFFCURVE",
"551 -340 CURVE SMOOTH",
"437 -340 OFFCURVE",
"340 -291 OFFCURVE",
"260 -193 CURVE",
"164 -304 LINE",
"261 -445 OFFCURVE",
"452 -491 OFFCURVE",
"564 -491 CURVE SMOOTH",
"792 -491 OFFCURVE",
"961 -376 OFFCURVE",
"1009 -169 CURVE",
"1138 -169 LINE",
"1138 -54 LINE"
);
},
{
closed = 1;
nodes = (
"295 765 OFFCURVE",
"379 946 OFFCURVE",
"582 946 CURVE SMOOTH",
"698 946 OFFCURVE",
"783 894 OFFCURVE",
"837 791 CURVE",
"837 296 LINE",
"782 190 OFFCURVE",
"697 137 OFFCURVE",
"580 137 CURVE SMOOTH",
"380 137 OFFCURVE",
"295 314 OFFCURVE",
"295 529 CURVE SMOOTH",
"295 550 LINE SMOOTH"
);
}
);
width = 1150;
}
);
leftKerningGroup = c;
note = uni01E5;
unicode = 01E5;
},
{
glyphname = uni01EF;
lastChange = "2017-04-17 15:00:40 +0000";
layers = (
{
layerId = "EFC0C7B3-D173-4BF6-BF18-C95D96D5B447";
paths = (
{
closed = 1;
nodes = (
"252 1494 LINE",
"502 1252 LINE",
"618 1252 LINE",
"872 1497 LINE",
"872 1515 LINE",
"710 1515 LINE",
"560 1365 LINE",
"411 1515 LINE",
"252 1515 LINE"
);
},
{
closed = 1;
nodes = (
"762 326 OFFCURVE",
"879 239 OFFCURVE",
"879 27 CURVE SMOOTH",
"879 -130 OFFCURVE",
"768 -243 OFFCURVE",
"575 -243 CURVE SMOOTH",
"404 -243 OFFCURVE",
"291 -120 OFFCURVE",
"291 29 CURVE",
"106 29 LINE",
"106 -70 OFFCURVE",
"129 -151 OFFCURVE",
"176 -213 CURVE SMOOTH",
"268 -338 OFFCURVE",
"422 -395 OFFCURVE",
"575 -395 CURVE SMOOTH",
"859 -395 OFFCURVE",
"1065 -240 OFFCURVE",
"1065 31 CURVE SMOOTH",
"1065 295 OFFCURVE",
"902 449 OFFCURVE",
"621 470 CURVE",
"1019 964 LINE",
"1017 1082 LINE",
"148 1082 LINE",
"148 929 LINE",
"780 929 LINE",
"409 477 LINE",
"409 326 LINE",
"550 326 LINE SMOOTH"
);
}
);
width = 1192;
}
);
note = uni01EF;
unicode = 01EF;
},
{
glyphname = uni01F6;
lastChange = "2017-04-17 15:00:40 +0000";
layers = (
{
layerId = "EFC0C7B3-D173-4BF6-BF18-C95D96D5B447";
paths = (
{
closed = 1;
nodes = (
"362 830 LINE",
"362 1456 LINE",
"169 1456 LINE",
"169 0 LINE",
"362 0 LINE",
"362 673 LINE",
"1096 673 LINE",
"1096 465 LINE SMOOTH",
"1096 142 OFFCURVE",
"1301 -20 OFFCURVE",
"1596 -20 CURVE SMOOTH",
"1876 -20 OFFCURVE",
"2097 142 OFFCURVE",
"2098 461 CURVE SMOOTH",
"2098 1081 LINE",
"1906 1081 LINE",
"1906 451 LINE SMOOTH",
"1901 242 OFFCURVE",
"1798 137 OFFCURVE",
"1596 137 CURVE SMOOTH",
"1394 137 OFFCURVE",
"1291 243 OFFCURVE",
"1288 455 CURVE",
"1288 1456 LINE",
"1096 1456 LINE",
"1096 830 LINE"
);
}
);
width = 2234;
}
);
note = uni01F6;
unicode = 01F6;
},
{
glyphname = uni01F7;
lastChange = "2017-04-17 15:00:40 +0000";
layers = (
{
layerId = "EFC0C7B3-D173-4BF6-BF18-C95D96D5B447";
paths = (
{
closed = 1;
nodes = (
"1232 1278 OFFCURVE",
"1007 1476 OFFCURVE",
"646 1476 CURVE SMOOTH",
"532 1476 OFFCURVE",
"437 1452 OFFCURVE",
"362 1403 CURVE",
"362 1456 LINE",
"169 1456 LINE",
"169 -418 LINE",
"362 -418 LINE",
"362 -153 LINE",
"529 -118 OFFCURVE",
"678 -55 OFFCURVE",
"809 38 CURVE SMOOTH",
"1071 223 OFFCURVE",
"1232 501 OFFCURVE",
"1232 818 CURVE SMOOTH",
"1232 871 LINE SMOOTH"
);
},
{
closed = 1;
nodes = (
"909 1318 OFFCURVE",
"1041 1182 OFFCURVE",
"1041 873 CURVE SMOOTH",
"1041 818 LINE SMOOTH",
"1041 709 OFFCURVE",
"1016 600 OFFCURVE",
"967 490 CURVE SMOOTH",
"867 270 OFFCURVE",
"666 85 OFFCURVE",
"362 9 CURVE",
"362 1179 LINE",
"418 1272 OFFCURVE",
"513 1318 OFFCURVE",
"646 1318 CURVE SMOOTH"
);
}
);
width = 1353;
}
);
note = uni01F7;
unicode = 01F7;
},
{
glyphname = uni021C;
lastChange = "2017-04-17 15:00:40 +0000";
layers = (
{
layerId = "EFC0C7B3-D173-4BF6-BF18-C95D96D5B447";
paths = (
{
closed = 1;
nodes = (
"1123 506 OFFCURVE",
"1063 632 OFFCURVE",
"944 704 CURVE",
"1049 812 OFFCURVE",
"1101 931 OFFCURVE",
"1101 1061 CURVE SMOOTH",
"1101 1334 OFFCURVE",
"900 1476 OFFCURVE",
"584 1476 CURVE SMOOTH",
"317 1476 OFFCURVE",
"93 1321 OFFCURVE",
"93 1073 CURVE",
"286 1073 LINE",
"286 1220 OFFCURVE",
"421 1319 OFFCURVE",
"584 1319 CURVE SMOOTH",
"812 1319 OFFCURVE",
"908 1202 OFFCURVE",
"908 1065 CURVE SMOOTH",
"908 753 OFFCURVE",
"649 615 OFFCURVE",
"186 474 CURVE",
"187 329 LINE",
"456 398 OFFCURVE",
"670 489 OFFCURVE",
"828 604 CURVE",
"896 555 OFFCURVE",
"930 464 OFFCURVE",
"930 329 CURVE SMOOTH",
"930 -27 OFFCURVE",
"652 -179 OFFCURVE",
"187 -280 CURVE",
"187 -437 LINE",
"368 -398 OFFCURVE",
"529 -350 OFFCURVE",
"670 -291 CURVE SMOOTH",
"952 -174 OFFCURVE",
"1123 14 OFFCURVE",
"1123 327 CURVE SMOOTH"
);
}
);
width = 1229;
}
);
note = uni021C;
unicode = 021C;
},
{
glyphname = uni021D;
lastChange = "2017-04-17 15:00:40 +0000";
layers = (
{
layerId = "EFC0C7B3-D173-4BF6-BF18-C95D96D5B447";
paths = (
{
closed = 1;
nodes = (
"920 331 OFFCURVE",
"873 436 OFFCURVE",
"778 506 CURVE",
"859 591 OFFCURVE",
"900 685 OFFCURVE",
"900 787 CURVE SMOOTH",
"900 991 OFFCURVE",
"749 1101 OFFCURVE",
"498 1101 CURVE SMOOTH",
"273 1101 OFFCURVE",
"85 978 OFFCURVE",
"85 781 CURVE",
"269 781 LINE",
"269 876 OFFCURVE",
"371 951 OFFCURVE",
"498 951 CURVE SMOOTH",
"655 951 OFFCURVE",
"715 871 OFFCURVE",
"715 786 CURVE SMOOTH",
"715 701 OFFCURVE",
"687 630 OFFCURVE",
"631 575 CURVE SMOOTH",
"519 464 OFFCURVE",
"337 399 OFFCURVE",
"166 354 CURVE",
"167 214 LINE",
"366 255 OFFCURVE",
"532 321 OFFCURVE",
"663 410 CURVE",
"710 361 OFFCURVE",
"734 288 OFFCURVE",
"734 191 CURVE SMOOTH",
"734 -94 OFFCURVE",
"511 -211 OFFCURVE",
"167 -288 CURVE",
"167 -437 LINE",
"654 -366 OFFCURVE",
"920 -180 OFFCURVE",
"920 192 CURVE SMOOTH"
);
}
);
width = 1030;
}
);
note = uni021D;
unicode = 021D;
},
{
glyphname = uni0220;
lastChange = "2017-04-17 15:00:40 +0000";
layers = (
{
layerId = "EFC0C7B3-D173-4BF6-BF18-C95D96D5B447";
paths = (
{
closed = 1;
nodes = (
"1213 1314 OFFCURVE",
"967 1476 OFFCURVE",
"690 1476 CURVE SMOOTH",
"569 1476 OFFCURVE",
"458 1448 OFFCURVE",
"355 1393 CURVE",
"355 1456 LINE",
"169 1456 LINE",
"169 0 LINE",
"355 0 LINE",
"355 1240 LINE",
"449 1293 OFFCURVE",
"561 1320 OFFCURVE",
"690 1320 CURVE SMOOTH",
"893 1320 OFFCURVE",
"1027 1218 OFFCURVE",
"1027 993 CURVE SMOOTH",
"1027 -418 LINE",
"1213 -418 LINE",
"1213 993 LINE SMOOTH"
);
}
);
width = 1353;
}
);
note = uni0220;
unicode = 0220;
},
{
glyphname = uni0221;
lastChange = "2017-04-17 15:00:40 +0000";
layers = (
{
layerId = "EFC0C7B3-D173-4BF6-BF18-C95D96D5B447";
paths = (
{
closed = 1;
nodes = (
"750 1059 OFFCURVE",
"650 1102 OFFCURVE",
"523 1102 CURVE SMOOTH",
"266 1102 OFFCURVE",
"95 881 OFFCURVE",
"95 550 CURVE SMOOTH",
"95 521 LINE SMOOTH",
"98 210 OFFCURVE",
"268 -20 OFFCURVE",
"521 -20 CURVE SMOOTH",
"649 -20 OFFCURVE",
"750 23 OFFCURVE",
"823 108 CURVE",
"823 -55 LINE",
"604 -284 LINE",
"714 -395 LINE",
"843 -253 LINE",
"879 -358 OFFCURVE",
"968 -437 OFFCURVE",
"1135 -437 CURVE SMOOTH",
"1312 -437 OFFCURVE",
"1430 -326 OFFCURVE",
"1430 -174 CURVE SMOOTH",
"1430 -3 OFFCURVE",
"1307 89 OFFCURVE",
"1150 89 CURVE SMOOTH",
"1103 89 OFFCURVE",
"1056 80 OFFCURVE",
"1009 62 CURVE",
"1009 1536 LINE",
"823 1536 LINE",
"823 974 LINE"
);
},
{
closed = 1;
nodes = (
"281 765 OFFCURVE",
"368 946 OFFCURVE",
"569 946 CURVE SMOOTH",
"683 946 OFFCURVE",
"768 895 OFFCURVE",
"823 792 CURVE",
"823 294 LINE",
"767 189 OFFCURVE",
"682 137 OFFCURVE",
"567 137 CURVE SMOOTH",
"367 137 OFFCURVE",
"281 314 OFFCURVE",
"281 529 CURVE SMOOTH",
"281 550 LINE SMOOTH"
);
},
{
closed = 1;
nodes = (
"1051 -76 OFFCURVE",
"1091 -63 OFFCURVE",
"1128 -63 CURVE SMOOTH",
"1201 -63 OFFCURVE",
"1245 -111 OFFCURVE",
"1245 -174 CURVE SMOOTH",
"1245 -237 OFFCURVE",
"1203 -285 OFFCURVE",
"1136 -285 CURVE SMOOTH",
"1048 -285 OFFCURVE",
"1009 -233 OFFCURVE",
"1009 -164 CURVE SMOOTH",
"1009 -103 LINE"
);
}
);
width = 1460;
}
);
leftKerningGroup = c;
note = uni0221;
unicode = 0221;
},
{
glyphname = uni0222;
lastChange = "2017-04-17 15:00:40 +0000";
layers = (
{
layerId = "EFC0C7B3-D173-4BF6-BF18-C95D96D5B447";
paths = (
{
closed = 1;
nodes = (
"1247 605 OFFCURVE",
"1165 728 OFFCURVE",
"1034 801 CURVE",
"1162 856 OFFCURVE",
"1247 956 OFFCURVE",
"1247 1117 CURVE SMOOTH",
"1247 1356 OFFCURVE",
"1075 1465 OFFCURVE",
"856 1476 CURVE",
"856 1327 LINE",
"988 1299 OFFCURVE",
"1057 1245 OFFCURVE",
"1057 1117 CURVE SMOOTH",
"1057 938 OFFCURVE",
"896 892 OFFCURVE",
"705 892 CURVE SMOOTH",
"663 892 LINE SMOOTH",
"472 892 OFFCURVE",
"311 938 OFFCURVE",
"311 1117 CURVE SMOOTH",
"311 1245 OFFCURVE",
"379 1299 OFFCURVE",
"511 1327 CURVE",
"511 1476 LINE",
"294 1465 OFFCURVE",
"120 1356 OFFCURVE",
"120 1117 CURVE SMOOTH",
"120 956 OFFCURVE",
"205 856 OFFCURVE",
"333 801 CURVE",
"202 728 OFFCURVE",
"120 604 OFFCURVE",
"120 431 CURVE SMOOTH",
"120 128 OFFCURVE",
"357 -21 OFFCURVE",
"672 -21 CURVE SMOOTH",
"694 -21 LINE SMOOTH",
"1009 -21 OFFCURVE",
"1247 128 OFFCURVE",
"1247 433 CURVE SMOOTH"
);
},
{
closed = 1;
nodes = (
"910 729 OFFCURVE",
"1057 636 OFFCURVE",
"1057 433 CURVE SMOOTH",
"1057 229 OFFCURVE",
"910 143 OFFCURVE",
"695 143 CURVE SMOOTH",
"672 143 LINE SMOOTH",
"456 143 OFFCURVE",
"311 230 OFFCURVE",
"311 431 CURVE SMOOTH",
"311 636 OFFCURVE",
"456 729 OFFCURVE",
"672 729 CURVE SMOOTH",
"695 729 LINE SMOOTH"
);
}
);
width = 1367;
}
);
note = uni0222;
unicode = 0222;
},
{
glyphname = uni0223;
lastChange = "2017-04-17 15:00:40 +0000";
layers = (
{
layerId = "EFC0C7B3-D173-4BF6-BF18-C95D96D5B447";
paths = (
{
closed = 1;
nodes = (
"1226 608 OFFCURVE",
"1142 731 OFFCURVE",
"1006 802 CURVE",
"1138 862 OFFCURVE",
"1226 972 OFFCURVE",
"1226 1148 CURVE SMOOTH",
"1226 1401 OFFCURVE",
"1057 1548 OFFCURVE",
"837 1557 CURVE",
"837 1416 LINE",
"970 1369 OFFCURVE",
"1040 1295 OFFCURVE",
"1040 1148 CURVE SMOOTH",
"1040 939 OFFCURVE",
"874 884 OFFCURVE",
"685 884 CURVE SMOOTH",
"644 884 LINE SMOOTH",
"453 884 OFFCURVE",
"289 939 OFFCURVE",
"289 1148 CURVE SMOOTH",
"289 1295 OFFCURVE",
"360 1369 OFFCURVE",
"495 1416 CURVE",
"495 1557 LINE",
"272 1548 OFFCURVE",
"103 1401 OFFCURVE",
"103 1148 CURVE SMOOTH",
"103 972 OFFCURVE",
"191 862 OFFCURVE",
"322 802 CURVE",
"187 731 OFFCURVE",
"103 607 OFFCURVE",
"103 431 CURVE SMOOTH",
"103 128 OFFCURVE",
"339 -21 OFFCURVE",
"652 -21 CURVE SMOOTH",
"676 -21 LINE SMOOTH",
"989 -21 OFFCURVE",
"1226 128 OFFCURVE",
"1226 433 CURVE SMOOTH"
);
},
{
closed = 1;
nodes = (
"891 733 OFFCURVE",
"1040 634 OFFCURVE",
"1040 433 CURVE SMOOTH",
"1040 229 OFFCURVE",
"891 131 OFFCURVE",
"676 131 CURVE SMOOTH",
"652 131 LINE SMOOTH",
"437 131 OFFCURVE",
"289 230 OFFCURVE",
"289 431 CURVE SMOOTH",
"289 635 OFFCURVE",
"437 733 OFFCURVE",
"652 733 CURVE SMOOTH",
"676 733 LINE SMOOTH"
);
}
);
width = 1331;
}
);
note = uni0223;
unicode = 0223;
},
{
glyphname = uni0224;
lastChange = "2017-04-17 15:00:40 +0000";
layers = (
{
layerId = "EFC0C7B3-D173-4BF6-BF18-C95D96D5B447";
paths = (
{
closed = 1;
nodes = (
"87 144 LINE",
"87 0 LINE",
"866 0 LINE SMOOTH",
"1007 0 OFFCURVE",
"1053 -68 OFFCURVE",
"1053 -179 CURVE SMOOTH",
"1053 -204 OFFCURVE",
"1050 -226 OFFCURVE",
"1044 -246 CURVE",
"1197 -247 LINE",
"1208 -212 OFFCURVE",
"1214 -173 OFFCURVE",
"1214 -132 CURVE SMOOTH",
"1214 56 OFFCURVE",
"1103 152 OFFCURVE",
"882 157 CURVE SMOOTH",
"314 157 LINE",
"1114 1316 LINE",
"1114 1456 LINE",
"100 1456 LINE",
"100 1298 LINE",
"885 1298 LINE"
);
}
);
width = 1251;
}
);
note = uni0224;
unicode = 0224;
},
{
glyphname = uni0225;
lastChange = "2017-04-17 15:00:40 +0000";
layers = (
{
layerId = "EFC0C7B3-D173-4BF6-BF18-C95D96D5B447";
paths = (
{
closed = 1;
nodes = (
"97 1082 LINE",
"97 929 LINE",
"685 929 LINE",
"89 136 LINE",
"89 0 LINE",
"658 0 LINE SMOOTH",
"799 0 OFFCURVE",
"851 -51 OFFCURVE",
"851 -152 CURVE SMOOTH",
"851 -177 OFFCURVE",
"848 -199 OFFCURVE",
"842 -219 CURVE",
"988 -220 LINE",
"1000 -185 OFFCURVE",
"1006 -147 OFFCURVE",
"1006 -104 CURVE SMOOTH",
"1006 77 OFFCURVE",
"883 152 OFFCURVE",
"658 152 CURVE SMOOTH",
"316 152 LINE",
"918 951 LINE",
"918 1082 LINE"
);
}
);
width = 1051;
}
);
note = uni0225;
unicode = 0225;
},
{
glyphname = uni0234;
lastChange = "2017-04-17 15:00:40 +0000";
layers = (
{
layerId = "EFC0C7B3-D173-4BF6-BF18-C95D96D5B447";
paths = (
{
closed = 1;
nodes = (
"20 -284 LINE",
"130 -395 LINE",
"259 -253 LINE",
"295 -358 OFFCURVE",
"384 -437 OFFCURVE",
"551 -437 CURVE SMOOTH",
"728 -437 OFFCURVE",
"846 -326 OFFCURVE",
"846 -174 CURVE SMOOTH",
"846 -3 OFFCURVE",
"723 89 OFFCURVE",
"566 89 CURVE SMOOTH",
"519 89 OFFCURVE",
"472 80 OFFCURVE",
"425 62 CURVE",
"425 1536 LINE",
"239 1536 LINE",
"239 -55 LINE"
);
},
{
closed = 1;
nodes = (
"466 -76 OFFCURVE",
"506 -63 OFFCURVE",
"544 -63 CURVE SMOOTH",
"617 -63 OFFCURVE",
"661 -111 OFFCURVE",
"661 -174 CURVE SMOOTH",
"661 -237 OFFCURVE",
"619 -285 OFFCURVE",
"552 -285 CURVE SMOOTH",
"463 -285 OFFCURVE",
"425 -233 OFFCURVE",
"425 -164 CURVE SMOOTH",
"425 -102 LINE"
);
}
);
width = 876;
}
);
note = uni0234;
unicode = 0234;
},
{
glyphname = uni0235;
lastChange = "2017-04-17 15:00:40 +0000";
layers = (
{
layerId = "EFC0C7B3-D173-4BF6-BF18-C95D96D5B447";
paths = (
{
closed = 1;
nodes = (
"512 1102 OFFCURVE",
"404 1050 OFFCURVE",
"322 947 CURVE",
"316 1082 LINE",
"141 1082 LINE",
"141 0 LINE",
"326 0 LINE",
"326 773 LINE",
"378 876 OFFCURVE",
"471 946 OFFCURVE",
"590 946 CURVE SMOOTH",
"730 946 OFFCURVE",
"806 880 OFFCURVE",
"806 711 CURVE SMOOTH",
"806 -55 LINE",
"587 -284 LINE",
"697 -395 LINE",
"826 -253 LINE",
"862 -358 OFFCURVE",
"951 -437 OFFCURVE",
"1118 -437 CURVE SMOOTH",
"1295 -437 OFFCURVE",
"1413 -326 OFFCURVE",
"1413 -174 CURVE SMOOTH",
"1413 -3 OFFCURVE",
"1291 89 OFFCURVE",
"1134 89 CURVE SMOOTH",
"1086 89 OFFCURVE",
"1039 80 OFFCURVE",
"992 62 CURVE",
"992 714 LINE",
"991 994 OFFCURVE",
"857 1102 OFFCURVE",
"645 1102 CURVE SMOOTH"
);
},
{
closed = 1;
nodes = (
"1034 -76 OFFCURVE",
"1074 -63 OFFCURVE",
"1111 -63 CURVE SMOOTH",
"1184 -63 OFFCURVE",
"1228 -111 OFFCURVE",
"1228 -174 CURVE SMOOTH",
"1228 -237 OFFCURVE",
"1187 -285 OFFCURVE",
"1120 -285 CURVE SMOOTH",
"1031 -285 OFFCURVE",
"992 -233 OFFCURVE",
"992 -164 CURVE SMOOTH",
"992 -103 LINE"
);
}
);
width = 1443;
}
);
leftKerningGroup = m;
note = uni0235;
unicode = 0235;
},
{
glyphname = uni0236;
lastChange = "2017-04-17 15:00:40 +0000";
layers = (
{
layerId = "EFC0C7B3-D173-4BF6-BF18-C95D96D5B447";
paths = (
{
closed = 1;
nodes = (
"852 412 OFFCURVE",
"729 506 OFFCURVE",
"572 506 CURVE SMOOTH",
"527 506 OFFCURVE",
"480 497 OFFCURVE",
"431 478 CURVE",
"431 940 LINE",
"633 940 LINE",
"633 1082 LINE",
"431 1082 LINE",
"431 1345 LINE",
"245 1345 LINE",
"245 1082 LINE",
"48 1082 LINE",
"48 940 LINE",
"245 940 LINE",
"245 362 LINE",
"26 133 LINE",
"136 22 LINE",
"265 164 LINE",
"302 59 OFFCURVE",
"390 -20 OFFCURVE",
"557 -20 CURVE SMOOTH",
"734 -20 OFFCURVE",
"852 91 OFFCURVE",
"852 243 CURVE SMOOTH"
);
},
{
closed = 1;
nodes = (
"472 341 OFFCURVE",
"512 354 OFFCURVE",
"550 354 CURVE SMOOTH",
"623 354 OFFCURVE",
"667 306 OFFCURVE",
"667 243 CURVE SMOOTH",
"667 180 OFFCURVE",
"625 132 OFFCURVE",
"558 132 CURVE SMOOTH",
"470 132 OFFCURVE",
"431 184 OFFCURVE",
"431 253 CURVE SMOOTH",
"431 314 LINE"
);
}
);
width = 882;
}
);
note = uni0236;
unicode = 0236;
},
{
glyphname = uni0237;
lastChange = "2017-04-17 15:00:40 +0000";
layers = (
{
layerId = "EFC0C7B3-D173-4BF6-BF18-C95D96D5B447";
paths = (
{
closed = 1;
nodes = (
"172 -221 OFFCURVE",
"127 -285 OFFCURVE",
"36 -285 CURVE SMOOTH",
"-7 -285 OFFCURVE",
"-40 -281 OFFCURVE",
"-62 -272 CURVE",
"-76 -420 LINE",
"-43 -431 OFFCURVE",
"-5 -437 OFFCURVE",
"36 -437 CURVE SMOOTH",
"239 -437 OFFCURVE",
"358 -314 OFFCURVE",
"358 -89 CURVE SMOOTH",
"358 1082 LINE",
"173 1082 LINE",
"173 -92 LINE SMOOTH"
);
}
);
width = 516;
}
);
note = uni0237;
unicode = 0237;
},
{
glyphname = uni0238;
lastChange = "2017-04-17 15:00:40 +0000";
layers = (
{
layerId = "EFC0C7B3-D173-4BF6-BF18-C95D96D5B447";
paths = (
{
closed = 1;
nodes = (
"1740 881 OFFCURVE",
"1589 1102 OFFCURVE",
"1317 1102 CURVE SMOOTH",
"1185 1102 OFFCURVE",
"1082 1056 OFFCURVE",
"1009 965 CURVE",
"1009 1536 LINE",
"823 1536 LINE",
"823 974 LINE",
"750 1059 OFFCURVE",
"650 1102 OFFCURVE",
"523 1102 CURVE SMOOTH",
"266 1102 OFFCURVE",
"95 881 OFFCURVE",
"95 550 CURVE SMOOTH",
"95 521 LINE SMOOTH",
"98 210 OFFCURVE",
"268 -20 OFFCURVE",
"521 -20 CURVE SMOOTH",
"653 -20 OFFCURVE",
"756 25 OFFCURVE",
"830 116 CURVE",
"839 0 LINE",
"1009 0 LINE",
"1009 117 LINE",
"1083 26 OFFCURVE",
"1186 -20 OFFCURVE",
"1319 -20 CURVE SMOOTH",
"1587 -20 OFFCURVE",
"1740 213 OFFCURVE",
"1740 529 CURVE SMOOTH",
"1740 550 LINE SMOOTH"
);
},
{
closed = 1;
nodes = (
"1480 946 OFFCURVE",
"1554 765 OFFCURVE",
"1554 550 CURVE SMOOTH",
"1554 529 LINE SMOOTH",
"1554 314 OFFCURVE",
"1472 137 OFFCURVE",
"1273 137 CURVE SMOOTH",
"1140 137 OFFCURVE",
"1057 211 OFFCURVE",
"1009 307 CURVE",
"1009 778 LINE",
"1056 873 OFFCURVE",
"1136 946 OFFCURVE",
"1271 946 CURVE SMOOTH"
);
},
{
closed = 1;
nodes = (
"281 765 OFFCURVE",
"368 946 OFFCURVE",
"569 946 CURVE SMOOTH",
"683 946 OFFCURVE",
"768 895 OFFCURVE",
"823 792 CURVE",
"823 294 LINE",
"767 189 OFFCURVE",
"682 137 OFFCURVE",
"567 137 CURVE SMOOTH",
"367 137 OFFCURVE",
"281 314 OFFCURVE",
"281 529 CURVE SMOOTH",
"281 550 LINE SMOOTH"
);
}
);
width = 1835;
}
);
note = uni0238;
rightKerningGroup = b;
unicode = 0238;
},
{
glyphname = uni0239;
lastChange = "2017-04-17 15:00:40 +0000";
layers = (
{
layerId = "EFC0C7B3-D173-4BF6-BF18-C95D96D5B447";
paths = (
{
closed = 1;
nodes = (
"1586 -20 OFFCURVE",
"1738 213 OFFCURVE",
"1738 529 CURVE SMOOTH",
"1738 550 LINE SMOOTH",
"1738 881 OFFCURVE",
"1588 1102 OFFCURVE",
"1315 1102 CURVE SMOOTH",
"1182 1102 OFFCURVE",
"1077 1055 OFFCURVE",
"1001 962 CURVE",
"992 1082 LINE",
"838 1082 LINE",
"830 973 LINE",
"755 1059 OFFCURVE",
"654 1102 OFFCURVE",
"526 1102 CURVE SMOOTH",
"255 1102 OFFCURVE",
"95 881 OFFCURVE",
"95 550 CURVE SMOOTH",
"95 529 LINE SMOOTH",
"95 213 OFFCURVE",
"257 -20 OFFCURVE",
"524 -20 CURVE SMOOTH",
"649 -20 OFFCURVE",
"748 20 OFFCURVE",
"822 100 CURVE",
"822 -416 LINE",
"1008 -416 LINE",
"1008 106 LINE",
"1084 22 OFFCURVE",
"1187 -20 OFFCURVE",
"1318 -20 CURVE SMOOTH"
);
},
{
closed = 1;
nodes = (
"281 765 OFFCURVE",
"369 950 OFFCURVE",
"572 950 CURVE SMOOTH",
"681 950 OFFCURVE",
"764 903 OFFCURVE",
"822 808 CURVE",
"822 277 LINE",
"764 180 OFFCURVE",
"680 132 OFFCURVE",
"570 132 CURVE SMOOTH",
"370 132 OFFCURVE",
"281 314 OFFCURVE",
"281 529 CURVE SMOOTH",
"281 549 LINE SMOOTH"
);
},
{
closed = 1;
nodes = (
"1462 946 OFFCURVE",
"1552 765 OFFCURVE",
"1552 550 CURVE SMOOTH",
"1552 529 LINE SMOOTH",
"1552 314 OFFCURVE",
"1463 132 OFFCURVE",
"1263 132 CURVE SMOOTH",
"1150 132 OFFCURVE",
"1065 182 OFFCURVE",
"1008 281 CURVE",
"1008 795 LINE",
"1064 896 OFFCURVE",
"1148 946 OFFCURVE",
"1261 946 CURVE SMOOTH"
);
}
);
width = 1833;
}
);
note = uni0239;
rightKerningGroup = b;
unicode = 0239;
},
{
glyphname = uni023A;
lastChange = "2017-04-17 15:00:40 +0000";
layers = (
{
layerId = "EFC0C7B3-D173-4BF6-BF18-C95D96D5B447";
paths = (
{
closed = 1;
nodes = (
"92 0 LINE",
"226 0 LINE",
"337 307 LINE",
"397 381 LINE",
"973 381 LINE",
"1112 0 LINE",
"1310 0 LINE",
"916 1030 LINE",
"1342 1562 LINE",
"1183 1562 LINE",
"865 1164 LINE",
"753 1456 LINE",
"584 1456 LINE",
"116 229 LINE",
"-167 -125 LINE",
"-8 -125 LINE"
);
},
{
closed = 1;
nodes = (
"470 670 LINE",
"669 1218 LINE",
"743 1013 LINE"
);
},
{
closed = 1;
nodes = (
"916 539 LINE",
"523 539 LINE",
"793 876 LINE"
);
}
);
width = 1336;
}
);
note = uni023A;
unicode = 023A;
},
{
glyphname = uni023B;
lastChange = "2017-04-17 15:00:40 +0000";
layers = (
{
layerId = "EFC0C7B3-D173-4BF6-BF18-C95D96D5B447";
paths = (
{
closed = 1;
nodes = (
"1037 -20 OFFCURVE",
"1211 187 OFFCURVE",
"1240 463 CURVE",
"1048 463 LINE",
"1015 258 OFFCURVE",
"933 137 OFFCURVE",
"688 137 CURVE SMOOTH",
"640 137 OFFCURVE",
"596 145 OFFCURVE",
"556 161 CURVE",
"962 1216 LINE",
"1005 1164 OFFCURVE",
"1034 1088 OFFCURVE",
"1048 989 CURVE",
"1240 989 LINE",
"1223 1161 OFFCURVE",
"1152 1302 OFFCURVE",
"1028 1387 CURVE",
"1095 1562 LINE",
"964 1562 LINE",
"918 1442 LINE",
"855 1465 OFFCURVE",
"784 1476 OFFCURVE",
"705 1476 CURVE SMOOTH",
"345 1476 OFFCURVE",
"120 1208 OFFCURVE",
"120 800 CURVE SMOOTH",
"120 655 LINE SMOOTH",
"120 384 OFFCURVE",
"220 174 OFFCURVE",
"387 65 CURVE",
"314 -125 LINE",
"446 -125 LINE",
"498 11 LINE",
"557 -10 OFFCURVE",
"621 -20 OFFCURVE",
"688 -20 CURVE SMOOTH"
);
},
{
closed = 1;
nodes = (
"312 1111 OFFCURVE",
"448 1318 OFFCURVE",
"705 1318 CURVE SMOOTH",
"765 1318 OFFCURVE",
"817 1309 OFFCURVE",
"860 1291 CURVE",
"451 230 LINE",
"356 323 OFFCURVE",
"312 479 OFFCURVE",
"312 655 CURVE SMOOTH",
"312 802 LINE SMOOTH"
);
}
);
width = 1333;
}
);
note = uni023B;
unicode = 023B;
},
{
glyphname = uni023C;
lastChange = "2017-04-17 15:00:40 +0000";
layers = (
{
layerId = "EFC0C7B3-D173-4BF6-BF18-C95D96D5B447";
paths = (
{
closed = 1;
nodes = (
"803 -20 OFFCURVE",
"996 149 OFFCURVE",
"1005 342 CURVE",
"829 342 LINE",
"820 219 OFFCURVE",
"706 132 OFFCURVE",
"574 132 CURVE SMOOTH",
"526 132 OFFCURVE",
"484 141 OFFCURVE",
"447 158 CURVE",
"743 889 LINE",
"795 844 OFFCURVE",
"824 784 OFFCURVE",
"829 710 CURVE",
"1005 710 LINE",
"998 861 OFFCURVE",
"932 973 OFFCURVE",
"806 1044 CURVE",
"973 1456 LINE",
"842 1456 LINE",
"693 1088 LINE",
"655 1097 OFFCURVE",
"615 1102 OFFCURVE",
"574 1102 CURVE SMOOTH",
"249 1102 OFFCURVE",
"93 853 OFFCURVE",
"93 562 CURVE SMOOTH",
"93 539 LINE SMOOTH",
"93 325 OFFCURVE",
"156 169 OFFCURVE",
"281 72 CURVE",
"83 -416 LINE",
"215 -416 LINE",
"388 12 LINE",
"444 -9 OFFCURVE",
"506 -20 OFFCURVE",
"574 -20 CURVE SMOOTH"
);
},
{
closed = 1;
nodes = (
"278 625 OFFCURVE",
"287 686 OFFCURVE",
"305 745 CURVE SMOOTH",
"340 864 OFFCURVE",
"422 950 OFFCURVE",
"574 950 CURVE SMOOTH",
"595 950 OFFCURVE",
"615 948 OFFCURVE",
"634 944 CURVE",
"349 240 LINE",
"302 308 OFFCURVE",
"278 401 OFFCURVE",
"278 520 CURVE SMOOTH",
"278 562 LINE SMOOTH"
);
}
);
width = 1072;
}
);
note = uni023C;
unicode = 023C;
},
{
glyphname = uni023E;
lastChange = "2017-04-17 15:00:40 +0000";
layers = (
{
layerId = "EFC0C7B3-D173-4BF6-BF18-C95D96D5B447";
paths = (
{
closed = 1;
nodes = (
"517 621 LINE",
"138 -125 LINE",
"277 -125 LINE",
"517 348 LINE",
"517 0 LINE",
"707 0 LINE",
"707 722 LINE",
"999 1298 LINE",
"1175 1298 LINE",
"1175 1456 LINE",
"1079 1456 LINE",
"1133 1562 LINE",
"995 1562 LINE",
"941 1456 LINE",
"50 1456 LINE",
"50 1298 LINE",
"517 1298 LINE"
);
},
{
closed = 1;
nodes = (
"707 995 LINE",
"707 1298 LINE",
"861 1298 LINE"
);
}
);
width = 1222;
}
);
note = uni023E;
unicode = 023E;
},
{
glyphname = uni023F;
lastChange = "2017-04-17 15:00:40 +0000";
layers = (
{
layerId = "EFC0C7B3-D173-4BF6-BF18-C95D96D5B447";
paths = (
{
closed = 1;
nodes = (
"772 198 OFFCURVE",
"691 131 OFFCURVE",
"540 131 CURVE SMOOTH",
"424 131 OFFCURVE",
"295 179 OFFCURVE",
"220 315 CURVE",
"90 240 LINE",
"337 -203 LINE SMOOTH",
"426 -356 OFFCURVE",
"507 -437 OFFCURVE",
"630 -437 CURVE SMOOTH",
"710 -437 OFFCURVE",
"791 -381 OFFCURVE",
"834 -336 CURVE",
"770 -226 LINE",
"725 -269 OFFCURVE",
"680 -290 OFFCURVE",
"633 -290 CURVE SMOOTH",
"592 -290 OFFCURVE",
"557 -268 OFFCURVE",
"526 -224 CURVE SMOOTH",
"495 -180 OFFCURVE",
"453 -108 OFFCURVE",
"402 -7 CURVE",
"445 -16 OFFCURVE",
"491 -20 OFFCURVE",
"540 -20 CURVE SMOOTH",
"792 -20 OFFCURVE",
"957 110 OFFCURVE",
"957 301 CURVE SMOOTH",
"957 477 OFFCURVE",
"817 565 OFFCURVE",
"582 621 CURVE SMOOTH",
"465 648 OFFCURVE",
"392 673 OFFCURVE",
"363 695 CURVE SMOOTH",
"334 716 OFFCURVE",
"319 748 OFFCURVE",
"319 791 CURVE SMOOTH",
"319 870 OFFCURVE",
"379 950 OFFCURVE",
"534 950 CURVE SMOOTH",
"681 950 OFFCURVE",
"761 853 OFFCURVE",
"761 764 CURVE",
"947 764 LINE",
"947 951 OFFCURVE",
"793 1102 OFFCURVE",
"534 1102 CURVE SMOOTH",
"291 1102 OFFCURVE",
"134 957 OFFCURVE",
"134 786 CURVE SMOOTH",
"134 603 OFFCURVE",
"285 526 OFFCURVE",
"528 473 CURVE SMOOTH",
"723 430 OFFCURVE",
"772 376 OFFCURVE",
"772 287 CURVE SMOOTH"
);
}
);
width = 1057;
}
);
leftKerningGroup = s;
note = uni023F;
unicode = 023F;
},
{
glyphname = uni0240;
lastChange = "2017-04-17 15:00:40 +0000";
layers = (
{
layerId = "EFC0C7B3-D173-4BF6-BF18-C95D96D5B447";
paths = (
{
closed = 1;
nodes = (
"89 136 LINE",
"89 0 LINE",
"348 0 LINE SMOOTH",
"408 -1 OFFCURVE",
"457 -16 OFFCURVE",
"496 -45 CURVE SMOOTH",
"572 -103 OFFCURVE",
"620 -191 OFFCURVE",
"674 -281 CURVE SMOOTH",
"728 -371 OFFCURVE",
"794 -437 OFFCURVE",
"911 -437 CURVE SMOOTH",
"985 -437 OFFCURVE",
"1055 -404 OFFCURVE",
"1122 -337 CURVE",
"1058 -227 LINE",
"1011 -269 OFFCURVE",
"965 -290 OFFCURVE",
"920 -290 CURVE SMOOTH",
"841 -290 OFFCURVE",
"794 -187 OFFCURVE",
"730 -70 CURVE SMOOTH",
"665 47 OFFCURVE",
"572 152 OFFCURVE",
"403 152 CURVE SMOOTH",
"316 152 LINE",
"918 951 LINE",
"918 1082 LINE",
"97 1082 LINE",
"97 929 LINE",
"685 929 LINE"
);
}
);
width = 1018;
}
);
leftKerningGroup = z;
note = uni0240;
unicode = 0240;
},
{
glyphname = uni0241;
lastChange = "2017-04-17 15:00:40 +0000";
layers = (
{
layerId = "EFC0C7B3-D173-4BF6-BF18-C95D96D5B447";
paths = (
{
closed = 1;
nodes = (
"602 295 LINE",
"859 342 OFFCURVE",
"986 569 OFFCURVE",
"986 826 CURVE SMOOTH",
"986 936 LINE SMOOTH",
"986 1227 OFFCURVE",
"824 1476 OFFCURVE",
"499 1476 CURVE SMOOTH",
"246 1476 OFFCURVE",
"72 1307 OFFCURVE",
"63 1071 CURVE",
"244 1071 LINE",
"255 1218 OFFCURVE",
"351 1312 OFFCURVE",
"499 1312 CURVE SMOOTH",
"727 1312 OFFCURVE",
"795 1124 OFFCURVE",
"795 936 CURVE SMOOTH",
"795 822 LINE SMOOTH",
"794 635 OFFCURVE",
"729 452 OFFCURVE",
"505 449 CURVE SMOOTH",
"410 449 LINE",
"410 0 LINE",
"602 0 LINE"
);
}
);
width = 1103;
}
);
note = uni0241;
unicode = 0241;
},
{
glyphname = uni0242;
lastChange = "2017-04-17 15:00:40 +0000";
layers = (
{
layerId = "EFC0C7B3-D173-4BF6-BF18-C95D96D5B447";
paths = (
{
closed = 1;
nodes = (
"575 332 LINE",
"798 364 OFFCURVE",
"882 512 OFFCURVE",
"882 688 CURVE SMOOTH",
"882 957 OFFCURVE",
"732 1102 OFFCURVE",
"461 1102 CURVE SMOOTH",
"236 1102 OFFCURVE",
"61 948 OFFCURVE",
"61 700 CURVE",
"246 700 LINE",
"246 844 OFFCURVE",
"332 950 OFFCURVE",
"461 950 CURVE SMOOTH",
"638 950 OFFCURVE",
"697 832 OFFCURVE",
"697 692 CURVE SMOOTH",
"697 549 OFFCURVE",
"642 445 OFFCURVE",
"475 445 CURVE SMOOTH",
"389 445 LINE",
"389 0 LINE",
"575 0 LINE"
);
}
);
width = 975;
}
);
note = uni0242;
unicode = 0242;
},
{
glyphname = uni0244;
lastChange = "2017-04-17 15:00:40 +0000";
layers = (
{
layerId = "EFC0C7B3-D173-4BF6-BF18-C95D96D5B447";
paths = (
{
closed = 1;
nodes = (
"1079 -20 OFFCURVE",
"1324 143 OFFCURVE",
"1324 471 CURVE SMOOTH",
"1324 675 LINE",
"1556 675 LINE",
"1556 827 LINE",
"1324 827 LINE",
"1324 1456 LINE",
"1132 1456 LINE",
"1132 827 LINE",
"461 827 LINE",
"461 1456 LINE",
"270 1456 LINE",
"270 827 LINE",
"31 827 LINE",
"31 675 LINE",
"270 675 LINE",
"270 471 LINE SMOOTH",
"270 143 OFFCURVE",
"499 -20 OFFCURVE",
"796 -20 CURVE SMOOTH"
);
},
{
closed = 1;
nodes = (
"1132 675 LINE",
"1132 471 LINE SMOOTH",
"1132 243 OFFCURVE",
"997 137 OFFCURVE",
"796 137 CURVE SMOOTH",
"596 137 OFFCURVE",
"461 243 OFFCURVE",
"461 471 CURVE SMOOTH",
"461 675 LINE"
);
}
);
width = 1587;
}
);
note = uni0244;
unicode = 0244;
},
{
glyphname = uni0245;
lastChange = "2017-04-17 15:00:40 +0000";
layers = (
{
layerId = "EFC0C7B3-D173-4BF6-BF18-C95D96D5B447";
paths = (
{
closed = 1;
nodes = (
"650 1200 LINE",
"1067 0 LINE",
"1276 0 LINE",
"737 1456 LINE",
"566 1456 LINE",
"28 0 LINE",
"237 0 LINE"
);
}
);
width = 1304;
}
);
leftKerningGroup = A;
note = uni0245;
rightKerningGroup = A;
unicode = 0245;
},
{
glyphname = uni0246;
lastChange = "2017-04-17 15:00:40 +0000";
layers = (
{
layerId = "EFC0C7B3-D173-4BF6-BF18-C95D96D5B447";
paths = (
{
closed = 1;
nodes = (
"378 -125 LINE",
"510 -125 LINE",
"545 0 LINE",
"1094 0 LINE",
"1094 157 LINE",
"588 157 LINE",
"732 673 LINE",
"992 673 LINE",
"992 830 LINE",
"775 830 LINE",
"906 1298 LINE",
"1084 1298 LINE",
"1084 1456 LINE",
"950 1456 LINE",
"979 1562 LINE",
"848 1562 LINE",
"818 1456 LINE",
"169 1456 LINE",
"169 0 LINE",
"413 0 LINE"
);
},
{
closed = 1;
nodes = (
"774 1298 LINE",
"644 830 LINE",
"362 830 LINE",
"362 1298 LINE"
);
},
{
closed = 1;
nodes = (
"600 673 LINE",
"457 157 LINE",
"362 157 LINE",
"362 673 LINE"
);
}
);
width = 1164;
}
);
note = uni0246;
unicode = 0246;
},
{
glyphname = uni0247;
lastChange = "2017-04-17 15:00:40 +0000";
layers = (
{
layerId = "EFC0C7B3-D173-4BF6-BF18-C95D96D5B447";
paths = (
{
closed = 1;
nodes = (
"803 -20 OFFCURVE",
"926 82 OFFCURVE",
"997 189 CURVE",
"885 278 LINE",
"817 189 OFFCURVE",
"731 131 OFFCURVE",
"600 131 CURVE SMOOTH",
"545 131 OFFCURVE",
"496 143 OFFCURVE",
"451 167 CURVE",
"581 489 LINE",
"1011 489 LINE",
"1011 557 LINE SMOOTH",
"1011 796 OFFCURVE",
"942 957 OFFCURVE",
"805 1041 CURVE",
"973 1456 LINE",
"842 1456 LINE",
"693 1087 LINE",
"654 1097 OFFCURVE",
"611 1102 OFFCURVE",
"566 1102 CURVE SMOOTH",
"485 1102 OFFCURVE",
"408 1080 OFFCURVE",
"336 1037 CURVE SMOOTH",
"192 949 OFFCURVE",
"93 781 OFFCURVE",
"93 545 CURVE SMOOTH",
"93 494 LINE SMOOTH",
"95 312 OFFCURVE",
"158 173 OFFCURVE",
"283 77 CURVE",
"83 -416 LINE",
"215 -416 LINE",
"390 17 LINE",
"451 -8 OFFCURVE",
"518 -20 OFFCURVE",
"590 -20 CURVE SMOOTH"
);
},
{
closed = 1;
nodes = (
"590 950 OFFCURVE",
"613 948 OFFCURVE",
"634 943 CURVE",
"511 640 LINE",
"285 640 LINE",
"310 840 OFFCURVE",
"419 950 OFFCURVE",
"566 950 CURVE SMOOTH"
);
},
{
closed = 1;
nodes = (
"643 640 LINE",
"742 885 LINE",
"798 830 OFFCURVE",
"826 753 OFFCURVE",
"826 654 CURVE SMOOTH",
"826 640 LINE"
);
},
{
closed = 1;
nodes = (
"354 253 LINE",
"307 317 OFFCURVE",
"282 396 OFFCURVE",
"279 489 CURVE",
"450 489 LINE"
);
}
);
width = 1086;
}
);
note = uni0247;
unicode = 0247;
},
{
glyphname = uni024A;
lastChange = "2017-04-17 15:00:40 +0000";
layers = (
{
layerId = "EFC0C7B3-D173-4BF6-BF18-C95D96D5B447";
paths = (
{
closed = 1;
nodes = (
"990 1451 OFFCURVE",
"871 1476 OFFCURVE",
"728 1476 CURVE SMOOTH",
"332 1476 OFFCURVE",
"120 1175 OFFCURVE",
"120 784 CURVE SMOOTH",
"120 672 LINE SMOOTH",
"120 550 OFFCURVE",
"141 437 OFFCURVE",
"184 332 CURVE SMOOTH",
"269 122 OFFCURVE",
"447 -20 OFFCURVE",
"728 -20 CURVE SMOOTH",
"855 -20 OFFCURVE",
"963 0 OFFCURVE",
"1052 39 CURVE",
"1052 -108 LINE SMOOTH",
"1057 -327 OFFCURVE",
"1151 -437 OFFCURVE",
"1334 -437 CURVE SMOOTH",
"1375 -437 OFFCURVE",
"1413 -431 OFFCURVE",
"1449 -420 CURVE",
"1448 -268 LINE",
"1430 -274 OFFCURVE",
"1407 -277 OFFCURVE",
"1380 -277 CURVE SMOOTH",
"1287 -277 OFFCURVE",
"1244 -229 OFFCURVE",
"1244 -89 CURVE SMOOTH",
"1244 1456 LINE",
"1098 1456 LINE",
"1085 1401 LINE"
);
},
{
closed = 1;
nodes = (
"833 1313 OFFCURVE",
"909 1300 OFFCURVE",
"954 1275 CURVE SMOOTH",
"999 1250 OFFCURVE",
"1032 1226 OFFCURVE",
"1052 1204 CURVE",
"1052 252 LINE",
"1032 230 OFFCURVE",
"999 206 OFFCURVE",
"954 181 CURVE SMOOTH",
"909 156 OFFCURVE",
"833 143 OFFCURVE",
"728 143 CURVE SMOOTH",
"429 143 OFFCURVE",
"311 380 OFFCURVE",
"311 672 CURVE SMOOTH",
"311 784 LINE SMOOTH",
"311 872 OFFCURVE",
"324 957 OFFCURVE",
"350 1038 CURVE SMOOTH",
"401 1200 OFFCURVE",
"517 1313 OFFCURVE",
"728 1313 CURVE SMOOTH"
);
}
);
width = 1458;
}
);
leftKerningGroup = C;
note = uni024A;
unicode = 024A;
},
{
glyphname = uni024B;
lastChange = "2017-04-17 15:00:40 +0000";
layers = (
{
layerId = "EFC0C7B3-D173-4BF6-BF18-C95D96D5B447";
paths = (
{
closed = 1;
nodes = (
"755 1059 OFFCURVE",
"654 1102 OFFCURVE",
"526 1102 CURVE SMOOTH",
"255 1102 OFFCURVE",
"95 881 OFFCURVE",
"95 550 CURVE SMOOTH",
"95 529 LINE SMOOTH",
"95 213 OFFCURVE",
"257 -20 OFFCURVE",
"524 -20 CURVE SMOOTH",
"649 -20 OFFCURVE",
"748 20 OFFCURVE",
"822 100 CURVE",
"822 -135 LINE SMOOTH",
"822 -330 OFFCURVE",
"957 -437 OFFCURVE",
"1122 -437 CURVE SMOOTH",
"1159 -437 OFFCURVE",
"1193 -433 OFFCURVE",
"1223 -424 CURVE",
"1221 -297 LINE",
"1204 -302 OFFCURVE",
"1184 -304 OFFCURVE",
"1162 -304 CURVE SMOOTH",
"1062 -304 OFFCURVE",
"1011 -251 OFFCURVE",
"1008 -146 CURVE",
"1008 1082 LINE",
"838 1082 LINE",
"830 973 LINE"
);
},
{
closed = 1;
nodes = (
"281 765 OFFCURVE",
"369 950 OFFCURVE",
"572 950 CURVE SMOOTH",
"681 950 OFFCURVE",
"764 903 OFFCURVE",
"822 808 CURVE",
"822 277 LINE",
"764 180 OFFCURVE",
"680 131 OFFCURVE",
"570 131 CURVE SMOOTH",
"370 131 OFFCURVE",
"281 314 OFFCURVE",
"281 529 CURVE SMOOTH",
"281 549 LINE SMOOTH"
);
}
);
width = 1211;
}
);
leftKerningGroup = c;
note = uni024B;
unicode = 024B;
},
{
glyphname = uni024C;
lastChange = "2017-04-17 15:00:40 +0000";
layers = (
{
layerId = "EFC0C7B3-D173-4BF6-BF18-C95D96D5B447";
paths = (
{
closed = 1;
nodes = (
"1290 12 LINE",
"948 630 LINE",
"1121 697 OFFCURVE",
"1225 838 OFFCURVE",
"1225 1019 CURVE SMOOTH",
"1225 1303 OFFCURVE",
"1042 1456 OFFCURVE",
"715 1456 CURVE SMOOTH",
"233 1456 LINE",
"233 747 LINE",
"38 747 LINE",
"38 590 LINE",
"233 590 LINE",
"233 0 LINE",
"425 0 LINE",
"425 590 LINE",
"767 590 LINE",
"1083 0 LINE",
"1290 0 LINE"
);
},
{
closed = 1;
nodes = (
"939 1297 OFFCURVE",
"1032 1186 OFFCURVE",
"1032 1019 CURVE SMOOTH",
"1032 868 OFFCURVE",
"928 747 OFFCURVE",
"720 747 CURVE SMOOTH",
"425 747 LINE",
"425 1298 LINE",
"719 1298 LINE SMOOTH"
);
}
);
width = 1322;
}
);
note = uni024C;
unicode = 024C;
},
{
glyphname = uni024E;
lastChange = "2017-04-17 15:00:40 +0000";
layers = (
{
layerId = "EFC0C7B3-D173-4BF6-BF18-C95D96D5B447";
paths = (
{
closed = 1;
nodes = (
"1351 1064 LINE",
"1351 1179 LINE",
"1136 1179 LINE",
"1288 1456 LINE",
"1069 1456 LINE",
"925 1179 LINE",
"455 1179 LINE",
"312 1456 LINE",
"91 1456 LINE",
"244 1179 LINE",
"31 1179 LINE",
"31 1064 LINE",
"307 1064 LINE",
"594 544 LINE",
"594 0 LINE",
"786 0 LINE",
"786 544 LINE",
"1072 1064 LINE"
);
},
{
closed = 1;
nodes = (
"866 1064 LINE",
"690 725 LINE",
"515 1064 LINE"
);
}
);
width = 1382;
}
);
leftKerningGroup = Y;
note = uni024E;
rightKerningGroup = Y;
unicode = 024E;
},
{
glyphname = uni024F;
lastChange = "2017-04-17 15:00:40 +0000";
layers = (
{
layerId = "EFC0C7B3-D173-4BF6-BF18-C95D96D5B447";
paths = (
{
closed = 1;
nodes = (
"401 -426 OFFCURVE",
"501 -330 OFFCURVE",
"564 -147 CURVE SMOOTH",
"838 640 LINE",
"1018 640 LINE",
"1018 755 LINE",
"878 755 LINE",
"992 1082 LINE",
"794 1082 LINE",
"693 755 LINE",
"381 755 LINE",
"272 1082 LINE",
"70 1082 LINE",
"188 755 LINE",
"31 755 LINE",
"31 640 LINE",
"229 640 LINE",
"456 12 LINE",
"415 -98 LINE",
"371 -231 OFFCURVE",
"307 -275 OFFCURVE",
"182 -275 CURVE",
"132 -271 LINE",
"132 -421 LINE",
"164 -432 OFFCURVE",
"199 -437 OFFCURVE",
"236 -437 CURVE SMOOTH",
"266 -436 LINE"
);
},
{
closed = 1;
nodes = (
"542 271 LINE",
"419 640 LINE",
"657 640 LINE"
);
}
);
width = 1049;
}
);
note = uni024F;
unicode = 024F;
},
{
glyphname = uni0250;
lastChange = "2017-04-17 15:00:40 +0000";
layers = (
{
layerId = "EFC0C7B3-D173-4BF6-BF18-C95D96D5B447";
paths = (
{
closed = 1;
nodes = (
"797 209 OFFCURVE",
"703 129 OFFCURVE",
"564 129 CURVE SMOOTH",
"415 129 OFFCURVE",
"335 212 OFFCURVE",
"335 340 CURVE SMOOTH",
"335 426 LINE",
"519 426 LINE SMOOTH",
"816 426 OFFCURVE",
"1005 549 OFFCURVE",
"1005 781 CURVE SMOOTH",
"1005 961 OFFCURVE",
"861 1102 OFFCURVE",
"640 1102 CURVE SMOOTH",
"505 1102 OFFCURVE",
"400 1041 OFFCURVE",
"331 968 CURVE",
"326 1019 OFFCURVE",
"317 1057 OFFCURVE",
"305 1082 CURVE",
"112 1082 LINE",
"112 1066 LINE",
"137 1007 OFFCURVE",
"150 928 OFFCURVE",
"150 828 CURVE SMOOTH",
"150 342 LINE SMOOTH",
"150 99 OFFCURVE",
"317 -20 OFFCURVE",
"553 -20 CURVE SMOOTH",
"816 -20 OFFCURVE",
"983 145 OFFCURVE",
"983 300 CURVE",
"797 300 LINE"
);
},
{
closed = 1;
nodes = (
"749 940 OFFCURVE",
"820 859 OFFCURVE",
"820 756 CURVE SMOOTH",
"820 623 OFFCURVE",
"706 556 OFFCURVE",
"477 556 CURVE SMOOTH",
"335 556 LINE",
"335 778 LINE",
"375 859 OFFCURVE",
"478 940 OFFCURVE",
"613 940 CURVE SMOOTH"
);
}
);
width = 1114;
}
);
note = uni0250;
unicode = 0250;
},
{
glyphname = uni0251;
lastChange = "2017-04-17 15:00:40 +0000";
layers = (
{
layerId = "EFC0C7B3-D173-4BF6-BF18-C95D96D5B447";
paths = (
{
closed = 1;
nodes = (
"1107 147 OFFCURVE",
"1095 145 OFFCURVE",
"1084 145 CURVE SMOOTH",
"1063 145 OFFCURVE",
"1044 155 OFFCURVE",
"1029 175 CURVE",
"1013 194 OFFCURVE",
"1005 234 OFFCURVE",
"1005 295 CURVE SMOOTH",
"1005 1082 LINE",
"848 1082 LINE",
"831 942 LINE",
"760 1049 OFFCURVE",
"656 1102 OFFCURVE",
"521 1102 CURVE SMOOTH",
"249 1102 OFFCURVE",
"98 863 OFFCURVE",
"98 522 CURVE SMOOTH",
"98 501 LINE SMOOTH",
"98 196 OFFCURVE",
"251 -21 OFFCURVE",
"519 -21 CURVE SMOOTH",
"657 -21 OFFCURVE",
"762 34 OFFCURVE",
"834 144 CURVE",
"860 34 OFFCURVE",
"922 -21 OFFCURVE",
"1019 -21 CURVE SMOOTH",
"1068 -21 OFFCURVE",
"1109 -10 OFFCURVE",
"1141 13 CURVE",
"1119 151 LINE"
);
},
{
closed = 1;
nodes = (
"284 754 OFFCURVE",
"363 950 OFFCURVE",
"566 950 CURVE SMOOTH",
"677 950 OFFCURVE",
"762 887 OFFCURVE",
"819 762 CURVE",
"819 316 LINE",
"770 209 OFFCURVE",
"695 131 OFFCURVE",
"564 131 CURVE SMOOTH",
"364 131 OFFCURVE",
"284 296 OFFCURVE",
"284 501 CURVE SMOOTH",
"284 521 LINE SMOOTH"
);
}
);
width = 1206;
}
);
note = uni0251;
unicode = 0251;
},
